<?xml version="1.0" encoding="UTF-8"?><svg id="uuid-ffeda2d4-aa40-4ee6-a28c-c1fb90df5588" xmlns="http://www.w3.org/2000/svg" viewBox="0 0 48 48"><defs><style>.uuid-7f13d189-36cd-4eb5-8c5d-95acac87fce3{fill:#123543;}</style></defs><path class="uuid-7f13d189-36cd-4eb5-8c5d-95acac87fce3" d="M23.05061,19.2778v.787c0,.6533,.5273,1.1806,1.1806,1.1806,.6532,0,1.1805-.5273,1.1805-1.1806v-.787c0-.6532-.5273-1.1806-1.1805-1.1806-.6533,0-1.1806,.5274-1.1806,1.1806Zm-7.8704,14.3005v-4.0218c-.2597,.0315-.5273,.063-.8027,.063-.5431,0-1.0625-.0787-1.5584-.2125v4.1713c0,1.5189,1.2357,2.7546,2.7547,2.7546h3.0143v-2.3611h-3.0143c-.2204,0-.3936-.1732-.3936-.3935Zm6.9496-17.0551h4.7222c.8657,0,1.5741-.7084,1.5741-1.5741v-3.9352c0-.8657-.7084-1.5741-1.5741-1.5741h-4.7222c-.8658,0-1.5741,.7084-1.5741,1.5741v3.9352c0,.8657,.7083,1.5741,1.5741,1.5741Zm4.7222,14.9537h-4.7222c-.8658,0-1.5741,.7083-1.5741,1.5741v3.9351c0,.8658,.7083,1.5741,1.5741,1.5741h4.7222c.8657,0,1.5741-.7083,1.5741-1.5741v-3.9351c0-.8658-.7084-1.5741-1.5741-1.5741Zm-1.5741-2.7546v-.7871c0-.6532-.5273-1.1805-1.1805-1.1805-.6533,0-1.1806,.5273-1.1806,1.1805v.7871c0,.6532,.5273,1.1805,1.1806,1.1805,.6532,0,1.1805-.5273,1.1805-1.1805Zm12.1755-5.6746l-3.5496-3.5495c-.1574-.1574-.3541-.2283-.5587-.2283-.2047,0-.4014,.0787-.5588,.2283l-2.9278,2.9278h-11.6324c-.5116-1.6607-2.0306-2.8727-3.8565-2.8727-2.2352,0-4.0532,1.8102-4.0532,4.0532s1.8101,4.0532,4.0532,4.0532c1.8259,0,3.3449-1.212,3.8565-2.8726h11.6324l2.9278,2.9277c.1574,.1574,.3541,.2283,.5588,.2283,.2046,0,.4013-.0787,.5587-.2283l3.5496-3.5495c.3069-.3069,.3069-.8028,0-1.1097v-.0079Z"/></svg>