<?xml version="1.0" encoding="UTF-8"?><svg id="uuid-f9cbf692-4a99-48ad-9c86-e3ace84f2260" xmlns="http://www.w3.org/2000/svg" viewBox="0 0 48 48"><defs><style>.uuid-5e68a6d5-0342-4416-9160-219374e72ebb{fill:#123543;}</style></defs><rect class="uuid-5e68a6d5-0342-4416-9160-219374e72ebb" x="9.5" y="9.5" width="11.07692" height="11.07692" rx="1" ry="1"/><rect class="uuid-5e68a6d5-0342-4416-9160-219374e72ebb" x="22.42308" y="9.5" width="11.07692" height="11.07692" rx="1" ry="1"/><rect class="uuid-5e68a6d5-0342-4416-9160-219374e72ebb" x="9.5" y="22.42308" width="11.07692" height="11.07692" rx="1" ry="1"/><path class="uuid-5e68a6d5-0342-4416-9160-219374e72ebb" d="M30.07092,22.62415c-.16388-.11743-.35394-.20111-.57092-.20111h-6c-.55231,0-1,.44775-1,1v6.07697c0,.17657,.05798,.33386,.13831,.47784,.64514-3.77917,3.64044-6.74713,7.43262-7.3537Z"/><path class="uuid-5e68a6d5-0342-4416-9160-219374e72ebb" d="M31.5,24.5c-3.86597,0-7,3.13397-7,7s3.13403,7,7,7,7-3.13403,7-7-3.13403-7-7-7Zm4,8.25h-2.75v2.75c0,.55225-.44769,1-1,1h-.5c-.55231,0-1-.44775-1-1v-2.75h-2.75c-.55231,0-1-.44775-1-1v-.5c0-.55231,.44769-1,1-1h2.75v-2.75c0-.55231,.44769-1,1-1h.5c.55231,0,1,.44769,1,1v2.75h2.75c.55231,0,1,.44769,1,1v.5c0,.55225-.44769,1-1,1Z"/></svg>