<?xml version="1.0" encoding="UTF-8"?><svg id="uuid-83711f4a-17c4-4905-a99c-2ab6e9ae7430" xmlns="http://www.w3.org/2000/svg" viewBox="0 0 48 48"><defs><style>.uuid-54081ecd-1015-4ab2-8573-58b04f1a4f22{fill:#123543;}</style></defs><path class="uuid-54081ecd-1015-4ab2-8573-58b04f1a4f22" d="M34.47079,11.21075h-3.33197c-.92004,0-1.66595,.74585-1.66595,1.66595,0,.92004-.74597,1.66602-1.66595,1.66602-.92004,0-1.66602-.74597-1.66602-1.66602,0-.9201-.74591-1.66595-1.66595-1.66595h-4.16498c-.91998,0-1.66595,.74585-1.66595,1.66595,0,.92004-.74591,1.66602-1.66595,1.66602s-1.66602-.74597-1.66602-1.66602c0-.9201-.74591-1.66595-1.66595-1.66595h-3.33197c-.92004,0-1.66595,.74585-1.66595,1.66595v20.82471c0,.92004,.74591,1.66602,1.66595,1.66602h12.62744c-.44458-1.11432-.69611-2.32666-.69611-3.59955,0-5.37177,4.35468-9.72638,9.72638-9.72638,1.49261,0,2.90106,.34613,4.16492,.94696V12.87671c0-.9201-.74591-1.66595-1.66595-1.66595ZM13.64609,31.35138c-.92004,0-1.66595-.74591-1.66595-1.66595,0-.9201,.74591-1.66595,1.66595-1.66595s1.66595,.74585,1.66595,1.66595c0,.92004-.74591,1.66595-1.66595,1.66595Zm0-4.99792c-.92004,0-1.66595-.74591-1.66595-1.66595,0-.9201,.74591-1.66595,1.66595-1.66595s1.66595,.74585,1.66595,1.66595c0,.92004-.74591,1.66595-1.66595,1.66595Zm4.99792,4.99792c-.92004,0-1.66595-.74591-1.66595-1.66595,0-.9201,.74591-1.66595,1.66595-1.66595s1.66595,.74585,1.66595,1.66595c0,.92004-.74591,1.66595-1.66595,1.66595Zm0-4.99792c-.92004,0-1.66595-.74591-1.66595-1.66595,0-.9201,.74591-1.66595,1.66595-1.66595s1.66595,.74585,1.66595,1.66595c0,.92004-.74591,1.66595-1.66595,1.66595Zm0-4.99792c-.92004,0-1.66595-.74591-1.66595-1.66595,0-.9201,.74591-1.66595,1.66595-1.66595s1.66595,.74585,1.66595,1.66595c0,.92004-.74591,1.66595-1.66595,1.66595Zm4.99792,0c-.92004,0-1.66595-.74591-1.66595-1.66595,0-.9201,.74591-1.66595,1.66595-1.66595s1.66602,.74585,1.66602,1.66595c0,.92004-.74597,1.66595-1.66602,1.66595Z"/><path class="uuid-54081ecd-1015-4ab2-8573-58b04f1a4f22" d="M31.85495,24.271c-4.14038,0-7.49695,3.35645-7.49695,7.49689,0,1.74872,.6037,3.35364,1.60742,4.62885,.25958-1.17957,1.30768-2.06354,2.56525-2.06354h6.26697c1.39294,0,2.5213,1.08624,2.61267,2.45605,1.2027-1.32977,1.94153-3.0871,1.94153-5.02136,0-4.14044-3.35651-7.49689-7.49689-7.49689Zm-.00012,8.76062c-1.78156,0-3.22583-1.44427-3.22583-3.22589s1.44427-3.22589,3.22583-3.22589c1.78168,0,3.22601,1.44427,3.22601,3.22589s-1.44434,3.22589-3.22601,3.22589Z"/></svg>