<?xml version="1.0" encoding="UTF-8"?><svg id="uuid-b1fc2bed-5753-4aae-8f1b-fd67c7194e4b" xmlns="http://www.w3.org/2000/svg" viewBox="0 0 48 48"><defs><style>.uuid-5d08c991-3ec4-4b56-be50-26c50f41e33d{fill:#123543;}</style></defs><rect class="uuid-5d08c991-3ec4-4b56-be50-26c50f41e33d" x="10.85504" y="16.84851" width="11.73102" height="19.5517" rx="2" ry="2"/><rect class="uuid-5d08c991-3ec4-4b56-be50-26c50f41e33d" x="25.5188" y="16.84851" width="11.73102" height="11.73102" rx="1.54919" ry="1.54919"/><path class="uuid-5d08c991-3ec4-4b56-be50-26c50f41e33d" d="M21.35547,11.59979H12.01465c-.73926,0-1.33838,.59912-1.33838,1.33838s.59912,1.33838,1.33838,1.33838h9.34082c.73926,0,1.33838-.59912,1.33838-1.33838s-.59912-1.33838-1.33838-1.33838Z"/><path class="uuid-5d08c991-3ec4-4b56-be50-26c50f41e33d" d="M26.80811,14.26581h9.18799c.73291,0,1.32764-.59473,1.32764-1.32764s-.59473-1.32764-1.32764-1.32764h-9.18799c-.73291,0-1.32764,.59473-1.32764,1.32764s.59473,1.32764,1.32764,1.32764Z"/></svg>