<?xml version="1.0" encoding="UTF-8"?><svg id="uuid-ac6c1eb0-0f93-44e9-949c-357166721727" xmlns="http://www.w3.org/2000/svg" viewBox="0 0 48 48"><defs><style>.uuid-a31969c6-29f6-4eb1-8b7b-07beec71a623{fill:#123543;}</style></defs><path class="uuid-a31969c6-29f6-4eb1-8b7b-07beec71a623" d="M25.5288,11.7696h5.3508c1.26604,0,2.2932,1.02668,2.2932,2.2932v9.9372H14.8272V14.0628c0-1.26652,1.02668-2.2932,2.2932-2.2932h.7644l1.5288,3.0576,1.5288-3.0576h1.5288l1.5288,3.0576,1.5288-3.0576Zm7.644,13.7592v1.5288c0,1.68646-1.37114,3.0576-3.0576,3.0576h-3.0576v3.0576c0,1.68646-1.37114,3.0576-3.0576,3.0576s-3.0576-1.37114-3.0576-3.0576v-3.0576h-3.0576c-1.68885,0-3.0576-1.37114-3.0576-3.0576v-1.5288h18.3456Zm-9.1728,8.4084c.42042,0,.7644-.34398,.7644-.7644s-.34398-.7644-.7644-.7644-.7644,.34398-.7644,.7644,.34398,.7644,.7644,.7644Z"/></svg>