<?xml version="1.0" encoding="UTF-8"?><svg id="uuid-1e74d617-4e11-4b94-bb51-8118cae31429" xmlns="http://www.w3.org/2000/svg" viewBox="0 0 48 48"><defs><style>.uuid-7f9d7bca-2417-4909-b9a3-4b8fbdec1cc8{fill:#123543;}</style></defs><path class="uuid-7f9d7bca-2417-4909-b9a3-4b8fbdec1cc8" d="M31.38243,29.98306v-2.7002c0-.11835-.0387-.23248-.10773-.32861-1.05341-1.46802-1.6214-3.23071-1.6214-5.04065v-1.55145c0-2.48517-1.68915-4.68121-4.03473-5.22864v-1.08984c0-.58771-.47644-1.06409-1.06409-1.06409h-.17737c-.58771,0-1.06409,.47638-1.06409,1.06409v1.08728c-2.3092,.52484-4.03473,2.58539-4.03473,5.05347v1.72919c0,1.80994-.56799,3.57263-1.62146,5.04065-.06891,.09613-.10773,.21027-.10773,.32861v2.7002c0,.3183,.25812,.57635,.57642,.57635h12.68054c.31836,0,.57635-.25806,.57635-.57635Z"/><path class="uuid-7f9d7bca-2417-4909-b9a3-4b8fbdec1cc8" d="M24.33275,33.72958h.26605c.88153,0,1.59613-.7146,1.59613-1.59613v-.2439h-3.45831v.2439c0,.88153,.7146,1.59613,1.59613,1.59613Z"/><path class="uuid-7f9d7bca-2417-4909-b9a3-4b8fbdec1cc8" d="M12.49632,16.10763l5.11169-1.00519c.36102-.07098,.49664-.51636,.23651-.77667l-1.12805-1.12811c4.46613-3.04645,10.52911-2.97113,14.90625,.24188,.00049,.00031,.00092,.00085,.00134,.00116,.21295,.15686,.42096,.3183,.6214,.48395,.23993,.1983,.53094,.2948,.81946,.2948,.37152,0,.73981-.15936,.9939-.46802,.45374-.54852,.37579-1.36084-.17279-1.81366-.23737-.19586-.48224-.38666-.73389-.57202-.00128-.00085-.00244-.00128-.0036-.00214-5.38129-3.95184-12.8952-3.95862-18.28711-.02094l-1.12341-1.12335c-.26025-.26031-.70563-.12463-.77667,.23651l-1.00519,5.11163c-.06311,.3208,.2193,.60333,.54016,.54016Z"/><path class="uuid-7f9d7bca-2417-4909-b9a3-4b8fbdec1cc8" d="M35.54833,17.99154c.2298,.44159,.67859,.69446,1.14404,.69446,.20044,0,.40338-.047,.59296-.14551,.63153-.32843,.87732-1.10626,.54932-1.73743-.27673-.53217-.5871-1.05334-.9234-1.54822-.39923-.58881-1.20013-.74353-1.789-.34308-.58868,.39923-.74219,1.2002-.34302,1.789,.2793,.4126,.53851,.84705,.7691,1.29077Z"/><path class="uuid-7f9d7bca-2417-4909-b9a3-4b8fbdec1cc8" d="M36.77794,21.53128c.09558,.49487,.16187,.99603,.19788,1.48999,.04956,.67725,.61481,1.19391,1.28326,1.19391,.03186,0,.06372-.00134,.09558-.00336,.70959-.05206,1.24298-.66974,1.19098-1.37927-.04364-.59296-.12329-1.19434-.23657-1.7868-.13501-.69867-.81262-1.15576-1.50793-1.02246-.69867,.13422-1.15662,.8089-1.02319,1.508Z"/><path class="uuid-7f9d7bca-2417-4909-b9a3-4b8fbdec1cc8" d="M11.23924,26.65957c-.09979-.47845-.17273-.9679-.21722-1.4552-.06622-.70874-.69025-1.22992-1.40143-1.16449-.70874,.06543-1.22961,.69269-1.16418,1.401,.05371,.58331,.14093,1.16998,.26001,1.74286,.12665,.60803,.6626,1.02655,1.2597,1.02655,.08728,0,.17529-.00873,.26343-.02722,.69696-.14471,1.14398-.82697,.99969-1.5235Z"/><path class="uuid-7f9d7bca-2417-4909-b9a3-4b8fbdec1cc8" d="M35.49278,31.89456l-4.98273,.9798c-.35205,.06927-.48413,.50342-.23041,.7572l1.09448,1.09448c-4.4762,3.12469-10.60425,3.07275-15.01752-.16602-.00037-.00037-.00079-.00079-.00122-.0011-.21307-.15643-.42023-.31744-.62067-.48352-.54767-.45374-1.36121-.37738-1.81329,.17114-.45367,.54803-.37744,1.36029,.17108,1.81409,.23743,.19629,.48309,.38745,.73474,.57324,.00061,.00043,.00122,.00061,.00189,.00092,2.69623,1.98047,5.9278,2.97064,9.1601,2.97064,3.23077,0,6.46234-.99005,9.15869-2.96985,.02582-.01892,.04871-.04211,.07446-.06122l1.05994,1.06006c.25366,.25366,.68793,.1214,.75714-.23059l.97986-4.98273c.06165-.31274-.21393-.58807-.52655-.52655Z"/><path class="uuid-7f9d7bca-2417-4909-b9a3-4b8fbdec1cc8" d="M9.69347,22.55246c.08221,.01587,.16364,.02344,.24408,.02344,.60559,0,1.14569-.42938,1.26398-1.04675,.04858-.25409,.10486-.50739,.16943-.75891,.17694-.68909-.23822-1.39111-.92761-1.56799-.6911-.17664-1.39142,.23859-1.56842,.92719-.078,.30359-.14594,.60883-.20465,.91589-.1333,.69855,.32465,1.37335,1.02319,1.50714Z"/><path class="uuid-7f9d7bca-2417-4909-b9a3-4b8fbdec1cc8" d="M38.24815,25.78433c-.69531-.14838-1.38135,.29108-1.53149,.98724-.05536,.25403-.11823,.50739-.18866,.75861-.19214,.68518,.20795,1.39594,.89319,1.58765,.11658,.03229,.23315,.04779,.34808,.04779,.5636,0,1.08026-.37274,1.23956-.94183,.08392-.30066,.16028-.60352,.22565-.90796,.15094-.69525-.29102-1.38092-.98633-1.53149Z"/><path class="uuid-7f9d7bca-2417-4909-b9a3-4b8fbdec1cc8" d="M12.48308,30.1083c-.33472-.62939-1.11804-.86725-1.742-.5321-.62823,.33417-.86639,1.11414-.53253,1.74243,.27588,.51874,.58368,1.02612,.91412,1.50714,.24994,.36353,.65259,.55859,1.06268,.55859,.25159,0,.50574-.07343,.72876-.2265,.58636-.40302,.73474-1.2052,.33221-1.7915-.27594-.40125-.53265-.8244-.76324-1.25806Z"/></svg>