<?xml version="1.0" encoding="UTF-8"?><svg id="uuid-1f20cfea-864e-4c7f-94e7-4f17bcf8f70e" xmlns="http://www.w3.org/2000/svg" viewBox="0 0 48 48"><defs><style>.uuid-21e69bc0-c07e-4bd7-94bc-c7831850ae5d{fill:#123543;}</style></defs><path class="uuid-21e69bc0-c07e-4bd7-94bc-c7831850ae5d" d="M28.57031,14.25693h-9.06378c.00854,.07355,.0224,.14545,.0224,.22119v5.79498c0,1.31525-1.07001,2.38525-2.38519,2.38525h-5.79486c-.07489,0-.14825-.0083-.22137-.01654v13.35187c0,.80695,.65424,1.46106,1.46112,1.46106h15.98169c.80695,0,1.46112-.65411,1.46112-1.46106V15.71799c0-.80695-.65417-1.46106-1.46112-1.46106Z"/><path class="uuid-21e69bc0-c07e-4bd7-94bc-c7831850ae5d" d="M11.34888,20.83194h5.79486c.30872,0,.55878-.25024,.55878-.55884v-5.79498c0-.08783-.0719-.146-.14673-.146-.03564,0-.07227,.01331-.10187,.04297l-6.20813,6.20807c-.09167,.0918-.02673,.24878,.10309,.24878Z"/><path class="uuid-21e69bc0-c07e-4bd7-94bc-c7831850ae5d" d="M24.54358,10.76645c0-.08783-.07184-.14594-.14679-.14594-.03564,0-.0722,.01324-.10181,.04291l-1.73767,1.73767h1.98627v-1.63464Z"/><path class="uuid-21e69bc0-c07e-4bd7-94bc-c7831850ae5d" d="M35.41138,10.54526h-9.06384c.00854,.07355,.0224,.14545,.0224,.22119v1.63464h2.20044c1.82892,0,3.31689,1.48798,3.31689,3.31689v18.02515h3.52411c.80695,0,1.46112-.65417,1.46112-1.46118V12.00638c0-.80701-.65417-1.46112-1.46112-1.46112Z"/></svg>