<?xml version="1.0" encoding="UTF-8"?><svg id="uuid-4979881d-834f-4687-a0b4-0c0e22fbb246" xmlns="http://www.w3.org/2000/svg" viewBox="0 0 48 48"><defs><style>.uuid-c9f918bf-e7b1-4b61-b066-62d8a672502b{fill:#123543;}</style></defs><path class="uuid-c9f918bf-e7b1-4b61-b066-62d8a672502b" d="M37.27466,15.58881c0-.66748-.26025-1.29541-.73242-1.76758l-3.60107-3.60107c-.94434-.94434-2.59326-.94336-3.53516,0l-1.99414,1.99365h0l-.0741,.0741-2.04749,2.047,.00018,.00018-12.53876,12.53839,.00275,.00275-1.38751,1.38055-.6416,7.78223,7.77197-.65039,1.38892-1.38159,.00269,.00269,1.02783-1.02771,1.09766-1.09192-.00287-.00287,10.41589-10.41516,.00006,.00006,.7627-.76282,1.35889-1.35876-.00012-.00012,1.9928-1.99304c.47266-.47217,.73291-1.1001,.73291-1.76855Zm-20.11719,16.90137l-3.15088,.26367,.25977-3.14941,.60974-.60681,2.88867,2.88818-.6073,.60437Zm2.73242-2.72363l-2.89478-2.89331,10.4165-10.41699,2.89453,2.89453-10.41626,10.41577ZM31.17358,12.69476l2.89404,2.89404-1.64014,1.64014-2.89404-2.89404,1.64014-1.64014Z"/><path class="uuid-c9f918bf-e7b1-4b61-b066-62d8a672502b" d="M32.45337,35.48773h-10.0874c-.82861,0-1.5,.67139-1.5,1.5s.67139,1.5,1.5,1.5h10.0874c.82861,0,1.5-.67139,1.5-1.5s-.67139-1.5-1.5-1.5Z"/></svg>