<?xml version="1.0" encoding="UTF-8"?><svg id="uuid-e96514df-f0cd-4aaf-9ba1-525a51d10f49" xmlns="http://www.w3.org/2000/svg" viewBox="0 0 48 48"><defs><style>.uuid-efb5edeb-a554-4d95-be91-f8549c84f8a3{fill:#123543;}</style></defs><path class="uuid-efb5edeb-a554-4d95-be91-f8549c84f8a3" d="M33.27292,16.37799c-2.76318-1.9436-5.85413-2.91534-9.27289-2.91534s-6.50977,.97174-9.27289,2.91534c-2.76312,1.94354-4.82379,4.48419-6.18195,7.62201,1.35815,3.13776,3.41882,5.67847,6.18195,7.62201s5.85406,2.91534,9.27289,2.91534,6.5097-.9718,9.27289-2.91534c2.76312-1.94354,4.82373-4.48425,6.18188-7.62201-1.35815-3.13782-3.41876-5.67847-6.18188-7.62201Zm-6.56805,9.65936h.66858c-.16199,.26587-.34723,.52124-.58105,.75507-.76099,.76099-1.69183,1.14154-2.79236,1.14154-1.10059,0-2.03137-.38055-2.79242-1.14154-.76105-.76105-1.14154-1.69183-1.14154-2.79242s.38049-2.03137,1.14154-2.79242,1.69183-1.14154,2.79242-1.14154c1.10052,0,2.03137,.38049,2.79236,1.14154,.52673,.52673,.85846,1.14044,1.02063,1.82977h-1.10815c-.82861,0-1.5,.67139-1.5,1.5s.67139,1.5,1.5,1.5Z"/></svg>