<?xml version="1.0" encoding="UTF-8"?><svg id="uuid-4ca08f8a-da03-4982-bf22-ed9f441e79ac" xmlns="http://www.w3.org/2000/svg" viewBox="0 0 48 48"><defs><style>.uuid-013cd4f0-55fc-4293-83d8-364bf8916a21{fill:#123543;}</style></defs><path class="uuid-013cd4f0-55fc-4293-83d8-364bf8916a21" d="M38.33671,15.30884c-.17197-.71654-1.07552-.95586-1.59645-.43615-1.25,1.25246-2.64453,2.64582-2.91872,2.92001-1.03316,1.03316-2.74804,.96955-3.6977-.19069-.82503-1.00946-.64925-2.51247,.27296-3.43468l2.81779-2.81784c.52094-.52094,.28168-1.42572-.43492-1.59768-1.04316-.24926-2.16976-.28045-3.33872-.02744-2.90257,.63065-5.21563,3.00848-5.73411,5.93223-.21585,1.21624-.12767,2.38778,.18584,3.46306l-13.37725,13.23033c-1.40705,1.40582-1.40705,3.68769,0,5.09474,1.40699,1.40705,3.68892,1.40705,5.09597,0l13.38889-13.23987c1.06721,.30631,2.22786,.39192,3.43293,.17805,2.92498-.51842,5.30158-2.83148,5.93094-5.73528,.25301-1.16902,.22311-2.29562-.02744-3.33878Z"/><path class="uuid-013cd4f0-55fc-4293-83d8-364bf8916a21" d="M12.62514,15.12262c.80341,1.07117,1.91364,1.87067,3.18372,2.29449l3.11652,3.11652,2.6145-2.58551-3.13104-3.13104c-.42377-1.27008-1.22327-2.38025-2.29449-3.18365l-2.40106-1.80048c-.66302-.49664-1.5899-.43164-2.17493,.15466l-.55896,.55902c-.5863,.58496-.65131,1.5119-.15472,2.17487l1.80048,2.40112Z"/><path class="uuid-013cd4f0-55fc-4293-83d8-364bf8916a21" d="M31.12917,26.37386c-.15094-.02405-.30237-.04224-.45251-.07446l-5.13678,5.07928,6.01294,6.02448c1.46246,1.46246,3.83368,1.46246,5.29749,0,1.46118-1.46252,1.46118-3.83368-.00134-5.29749l-5.71979-5.73181Z"/></svg>