<?xml version="1.0" encoding="UTF-8"?><svg id="uuid-70108de0-eda4-47e5-a7e6-619d7d4d65a1" xmlns="http://www.w3.org/2000/svg" viewBox="0 0 48 48"><defs><style>.uuid-0e870418-373c-4133-8b9b-f37b1505e0b0{fill:#123543;}</style></defs><path class="uuid-0e870418-373c-4133-8b9b-f37b1505e0b0" d="M20.76499,28.27945c0-1.7584-1.4005-3.1886-3.1224-3.1886-1.722,0-3.1225,1.4302-3.1225,3.1886,0,1.7583,1.4005,3.1885,3.1225,3.1885,1.7219,0,3.1224-1.4302,3.1224-3.1885Z"/><path class="uuid-0e870418-373c-4133-8b9b-f37b1505e0b0" d="M33.51309,28.27945c0-1.7584-1.4005-3.1886-3.1225-3.1886s-3.1225,1.4302-3.1225,3.1886c0,1.7583,1.4005,3.1885,3.1225,3.1885s3.1225-1.4302,3.1225-3.1885Z"/><path class="uuid-0e870418-373c-4133-8b9b-f37b1505e0b0" d="M22.65921,35.14875c-.11481-1.5415-1.4751-2.75482-3.10535-2.75482h-3.82837c-1.62439,0-2.99048,1.20752-3.10529,2.75482l-.06549,.88263v1.86407c0,.55231,.44769,1,1,1h9.38245l-.27795-3.7467Z"/><path class="uuid-0e870418-373c-4133-8b9b-f37b1505e0b0" d="M35.39597,35.14875c-.11475-1.5415-1.4751-2.75482-3.10516-2.75482h-3.83429c-1.62445,0-2.99042,1.20752-3.10522,2.75482h.01721l-.27802,3.7467h9.3548c.55231,0,1-.44769,1-1v-2.08215l-.04932-.66455Z"/><path class="uuid-0e870418-373c-4133-8b9b-f37b1505e0b0" d="M28.62912,11.17768c-2.8504-2.85052-7.34186-2.6748-10.01166-.00513-3.09625,3.09637-2.48907,7.54761,0,10.03668,.823,.82312,1.95673,1.51514,3.12091,1.81622,.41199,.10089,.74323,.20117,.92889,.56757l.71265,1.31482c.17566,.33618,.60718,.36633,.80298,.02002l.78778-1.46033c.1004-.21075,.27612-.36627,.48682-.4165,1.22449-.36127,2.33862-.98358,3.1817-1.82666,2.63959-2.63971,2.90558-7.1311-.01007-10.04669Zm-8.25891,5.94659c-.50391,0-.90845-.41162-.90845-.90845,0-.50385,.40454-.90839,.90845-.90839s.90839,.40454,.90839,.90839c0,.49683-.40448,.90845-.90839,.90845Zm3.27185,.00006c-.50385,0-.90839-.41156-.90839-.90839,0-.50391,.40454-.90839,.90839-.90839,.49683-.00708,.90845,.40448,.90845,.90131,0,.50391-.40454,.90839-.90845,.91547Zm3.27185,.00012c-.50391-.00708-.90845-.41168-.90845-.90851,0-.50378,.40454-.90839,.90845-.90839s.90839,.4046,.90839,.90839c0,.49683-.41162,.90851-.90839,.90851Z"/></svg>