<?xml version="1.0" encoding="UTF-8"?><svg id="uuid-04e68edc-60da-41d8-a64b-59fb35563791" xmlns="http://www.w3.org/2000/svg" viewBox="0 0 48 48"><defs><style>.uuid-5067529e-9051-4a34-b5dd-e946befb6585{fill:#123543;}</style></defs><path class="uuid-5067529e-9051-4a34-b5dd-e946befb6585" d="M28.51653,21.40082c-4.97052,0-9,4.02936-9,9s4.02948,9,9,9,9-4.02942,9-9-4.02942-9-9-9Zm3.42517,8.65894l-1.36755,1.33295,.32245,1.88306c.11145,.65094-.27148,.92944-.85596,.62183l-1.69061-.88867-1.69049,.88867c-.58453,.30762-.96759,.02911-.85602-.62183l.32251-1.88306-1.36798-1.33295c-.47302-.46045-.32635-.9115,.3266-1.00635l1.89075-.2749,.84564-1.71295c.2923-.59235,.76538-.59235,1.05798,0l.8457,1.71295,1.89069,.2749c.65289,.09485,.79932,.5459,.32629,1.00635Z"/><path class="uuid-5067529e-9051-4a34-b5dd-e946befb6585" d="M19.69317,19.93396c3.06067,0,5.55011-2.54199,5.55011-5.66736s-2.48944-5.66742-5.55011-5.66742-5.54999,2.54199-5.54999,5.66742,2.48938,5.66736,5.54999,5.66736Z"/><path class="uuid-5067529e-9051-4a34-b5dd-e946befb6585" d="M22.84166,21.58008h-6.58643c-2.88727,0-5.31549,2.14612-5.51947,4.89648l-.24951,2.47754c-.02039,.29169,.07141,.573,.2652,.79169,.19391,.20837,.4693,.33337,.74481,.33337h6.53668c.10883-3.56427,1.99585-6.68304,4.80872-8.49908Z"/></svg>