<?xml version="1.0" encoding="UTF-8"?><svg id="uuid-8e1e801a-0ffb-42bb-b0c5-bed043102152" xmlns="http://www.w3.org/2000/svg" viewBox="0 0 48 48"><defs><style>.uuid-76ec33b5-20e9-4d3b-b526-fed490240121{fill:#123543;}</style></defs><rect class="uuid-76ec33b5-20e9-4d3b-b526-fed490240121" x="34.33844" y="20.25" width="3.69977" height="2.29092" rx=".3658" ry=".3658"/><rect class="uuid-76ec33b5-20e9-4d3b-b526-fed490240121" x="34.33841" y="24.33939" width="3.69983" height="9.04593" rx=".36591" ry=".36591"/><path class="uuid-76ec33b5-20e9-4d3b-b526-fed490240121" d="M37.67239,35.25958l-2.96899,.00006c-.20172,.00006-.36542,.16125-.36578,.3631-.00067,.33673-.00134,.8197-.00061,1.04993,.00037,.08698,.03149,.16711,.08807,.23309l1.54572,1.80359c.1496,.17456,.42139,.16943,.56433-.01068l1.42383-1.79413c.05127-.0647,.07928-.14484,.07928-.22742l.00006-1.05164c0-.20203-.16388-.36591-.36591-.36591Z"/><path class="uuid-76ec33b5-20e9-4d3b-b526-fed490240121" d="M23.0867,16.5v-7.5H13.7117c-2.07129,0-3.75,1.67871-3.75,3.75v22.5c0,2.06836,1.67871,3.75,3.75,3.75h15c2.06836,0,3.75-1.68164,3.75-3.75V18.375h-7.5c-1.03711,0-1.875-.83789-1.875-1.875Zm5.11163,6.45831c.72705,0,1.31696,.58966,1.31696,1.31696v2.63397c0,.72705-.5899,1.31696-1.31696,1.31696h-2.63397c-.72705,0-1.31696-.5899-1.31696-1.31696v-.43903h-5.26782v.43903c0,.04663-.00275,.09326-.00824,.11249l2.20312,2.96039h2.63397c.72705,0,1.31696,.5899,1.31696,1.31702v2.63391c0,.72705-.5899,1.31696-1.31696,1.31696h-2.63397c-.72705,0-1.31696-.5899-1.31696-1.31696v-2.63391c0-.04669,.00275-.09332,.00824-.13721l-2.20319-2.93573h-2.63391c-.72736,0-1.31696-.5899-1.31696-1.31696v-2.63397c0-.72729,.5896-1.31696,1.31696-1.31696h2.63391c.72711,0,1.31702,.58966,1.31702,1.31696v.43903h5.26782v-.43903c0-.72729,.5899-1.31696,1.31696-1.31696h2.63397Z"/><polygon class="uuid-76ec33b5-20e9-4d3b-b526-fed490240121" points="24.9617 16.5 32.4617 16.5 24.9617 9 24.9617 16.5"/></svg>