<?xml version="1.0" encoding="UTF-8"?><svg id="uuid-11e7b661-779f-40ec-a213-a7639617d056" xmlns="http://www.w3.org/2000/svg" viewBox="0 0 48 48"><defs><style>.uuid-2cd7bf86-08bd-44c8-bd1f-bba10e4df247{fill:#123543;}</style></defs><path class="uuid-2cd7bf86-08bd-44c8-bd1f-bba10e4df247" d="M22.23676,30.25641H12.03253c-2.36517,0-4.28253,1.91736-4.28253,4.28253v2.36487c0,.21594,.17511,.39105,.39105,.39105H26.12823c.216,0,.39099-.17511,.39099-.39105v-2.36487c0-2.36517-1.91736-4.28253-4.28247-4.28253Z"/><path class="uuid-2cd7bf86-08bd-44c8-bd1f-bba10e4df247" d="M17.06433,28.13702c2.901,0,5.25281-2.35162,5.25281-5.25262,0-2.90082-2.35181-5.2525-5.25281-5.2525-2.90082,0-5.2525,2.35168-5.2525,5.2525,0,2.901,2.35168,5.25262,5.2525,5.25262Z"/><path class="uuid-2cd7bf86-08bd-44c8-bd1f-bba10e4df247" d="M38.4754,10.70514h-11.53497c-.9801,0-1.7746,.70026-1.7746,1.56409v11.99139c0,.3385-.12457,.66772-.35492,.93848l-1.24225,1.45978c-.43866,.51562-.02124,1.25134,.7099,1.25134h14.19684c.9801,0,1.7746-.70032,1.7746-1.56409V12.26923c0-.86383-.79449-1.56409-1.7746-1.56409Zm-2.27734,11.79175c-.19141,1.06372-.92969,1.75824-1.79651,2.11914-.37183,.15314-.78198,.25159-1.21405,.30078v.91333c0,.48395-.39099,.875-.875,.875-.48395,0-.875-.39105-.875-.875v-.95435c-.01093,0-.0246-.02734-.03552-.00543h-.00549c-.66443-.10394-1.76172-.39105-2.50195-.71918-.44159-.19684-.64038-.71362-.44403-1.15662,.19629-.44025,.71338-.63983,1.13037-.44299,.59607,.25433,1.53674,.50317,2.08087,.58789,.875,.13129,1.59412,.05469,2.08087-.14215,.4621-.18866,.67261-.4621,.73279-.79022,.05194-.2926,.01367-.45941-.03552-.56329-.052-.10938-.15314-.23242-.35278-.36639-.44568-.2926-1.12378-.4895-2.00427-.72736l-.07654-.02191c-.77661-.21051-1.7287-.47028-2.43469-.93787-.38586-.25702-.74731-.60431-.9718-1.08557-.22778-.48669-.27728-1.03357-.17145-1.61597,.1936-1.06372,.95978-1.74207,1.85962-2.08551,.35602-.13593,.74213-.22534,1.14954-.27344v-.94965c0-.48322,.39105-.875,.875-.875,.48401,0,.875,.39178,.875,.875v.97559c.04376,.00574,.08478,.01202,.12854,.01831,.28986,.04321,1.15387,.18243,1.50934,.2724,.44299,.11865,.75195,.59576,.63165,1.06335-.11755,.46759-.59332,.75195-1.06366,.6344-.25427-.09027-1.02814-.19415-1.33435-.23792-.87775-.13123-1.6297-.06561-2.14648,.13129-.49988,.19141-.7074,.4621-.76239,.76562-.05304,.29254-.01282,.45935,.03528,.56323,.0517,.10938,.15259,.23242,.35358,.36646,.44458,.29254,1.12274,.48944,2.00317,.72729l.0766,.02191c.77655,.21051,1.72809,.47028,2.43359,.93787,.38556,.25702,.74921,.60431,.97345,1.08557,.22693,.48669,.27612,1.03357,.17224,1.59137Z"/></svg>