<?xml version="1.0" encoding="UTF-8"?><svg id="uuid-1908f425-dd45-428e-99f6-66ce26ebc8fc" xmlns="http://www.w3.org/2000/svg" viewBox="0 0 48 48"><defs><style>.uuid-f7c54bc3-5b23-462f-872f-3ab78bc54f86{fill:#123543;}</style></defs><path class="uuid-f7c54bc3-5b23-462f-872f-3ab78bc54f86" d="M36.08193,12.22987c-2.15314-2.15326-4.97528-3.22986-7.79749-3.22986s-5.64429,1.0766-7.79755,3.22986c-3.77234,3.7724-4.2395,9.59741-1.40283,13.87909l-2.02814,2.02802-.31189-.31195c-.17218-.17218-.45154-.17218-.62372,0l-7.17383,7.17377c-.34448,.34448-.34448,.90314,0,1.24768l2.4953,2.49512c.34442,.34454,.90308,.34454,1.24756,0l7.17377-7.17377c.17224-.17218,.17224-.45148,0-.62378l-.31189-.31183,1.93274-1.9328c1.99158,1.56543,4.39417,2.35541,6.80048,2.35541,2.8222,0,5.64435-1.07648,7.79749-3.2298,4.30658-4.30652,4.30658-11.28864,0-15.59515Zm-2.49506,13.10004c-1.41638,1.4162-3.29938,2.19617-5.30243,2.19617-2.00293,0-3.88599-.77997-5.30225-2.19617-1.41638-1.41638-2.19641-3.2995-2.19641-5.30249s.78003-3.88599,2.19641-5.30225c1.41626-1.41638,3.29932-2.19635,5.30225-2.19635,2.00305,0,3.88605,.77997,5.30243,2.19635,1.41626,1.41626,2.19623,3.29932,2.19623,5.30225s-.77997,3.88611-2.19623,5.30249Z"/><path class="uuid-f7c54bc3-5b23-462f-872f-3ab78bc54f86" d="M28.18056,20.69398c1.54669,0,2.80054-1.25378,2.80054-2.80048,0-1.54657-1.25385-2.80042-2.80054-2.80042-1.54657,0-2.80035,1.25385-2.80035,2.80042,0,1.54669,1.25378,2.80048,2.80035,2.80048Z"/><path class="uuid-f7c54bc3-5b23-462f-872f-3ab78bc54f86" d="M30.61337,21.74299h-5.00507c-1.13135,0-2.04852,1.02356-2.04852,2.28613,0,.74823,.54352,1.35474,1.21393,1.35474h6.67426c.67047,0,1.21393-.60651,1.21393-1.35474,0-1.26257-.91711-2.28613-2.04852-2.28613Z"/></svg>