<?xml version="1.0" encoding="UTF-8"?><svg id="uuid-ea978006-908a-4716-9801-84997850c083" xmlns="http://www.w3.org/2000/svg" viewBox="0 0 48 48"><defs><style>.uuid-03aac358-5b57-44bc-8c9b-bb8b82a01df4{fill:#123543;}</style></defs><circle class="uuid-03aac358-5b57-44bc-8c9b-bb8b82a01df4" cx="20.40016" cy="36.08485" r="2.24362"/><circle class="uuid-03aac358-5b57-44bc-8c9b-bb8b82a01df4" cx="31.71582" cy="36.08485" r="2.24362"/><path class="uuid-03aac358-5b57-44bc-8c9b-bb8b82a01df4" d="M36.76873,13.94252H17.02489l-.65546-2.52307c-.18976-1.00299-1.0799-1.74792-2.10864-1.74792h-3.22528c-.75409,0-1.36572,.61157-1.36572,1.36566,0,.75421,.61163,1.36572,1.36572,1.36572h2.76715l3.69391,14.21857-1.4704,3.38098c-.18335,.42181-.14221,.90851,.11047,1.29327,.25226,.38489,.6817,.61694,1.14197,.61694h17.16858c.75415,0,1.36566-.61151,1.36566-1.36572,0-.75409-.61151-1.36566-1.36566-1.36566h-15.08533l.82758-1.90253c.0097-.02222,.00891-.047,.01733-.06958h14.17493c.7243,0,1.35339-.49829,1.51923-1.20331l2.38708-10.14508c.23053-.9798-.51276-1.91827-1.51929-1.91827Zm-13.25653,8.63824c0,.53882-.43658,.97546-.97546,.97546-.53882,0-.97552-.43665-.97552-.97546v-4.01013c0-.53888,.43671-.97546,.97552-.97546,.53888,0,.97546,.43658,.97546,.97546v4.01013Zm4.68237,0c0,.53882-.43665,.97546-.97552,.97546-.53876,0-.97546-.43665-.97546-.97546v-4.01013c0-.53888,.43671-.97546,.97546-.97546,.53888,0,.97552,.43658,.97552,.97546v4.01013Zm4.68231,0c0,.53882-.43658,.97546-.97546,.97546-.53882,0-.97552-.43665-.97552-.97546v-4.01013c0-.53888,.43671-.97546,.97552-.97546,.53888,0,.97546,.43658,.97546,.97546v4.01013Z"/></svg>