<?xml version="1.0" encoding="UTF-8"?><svg id="uuid-295a25b0-df6c-42ee-a238-d106344e0661" xmlns="http://www.w3.org/2000/svg" viewBox="0 0 48 48"><defs><style>.uuid-e8769826-ae05-43ae-bf62-f02dacf25181{fill:#123543;}</style></defs><path class="uuid-e8769826-ae05-43ae-bf62-f02dacf25181" d="M16.2652,13.5483h10.16608c.23376,0,.42328-.18958,.42328-.42328v-1.26984c0-1.49438-.96997-1.9118-2.31097-2.36536-.62677-.21204-1.08502-.79565-1.07544-1.45721,.01691-1.15869-.9173-2.10327-2.07208-2.10327h-.08807c-1.12146,0-2.11633,.89117-2.07349,2.0119,.02673,.69861-.41144,1.32501-1.06921,1.547-1.34558,.45398-2.32336,.87085-2.32336,2.36694v1.26984c0,.2337,.18945,.42328,.42328,.42328Z"/><rect class="uuid-e8769826-ae05-43ae-bf62-f02dacf25181" x="33.62916" y="25.48721" width="2.6507" height="4.28077" rx=".42334" ry=".42334" transform="translate(-9.29766 32.80906) rotate(-45.00072)"/><rect class="uuid-e8769826-ae05-43ae-bf62-f02dacf25181" x="23.61231" y="31.59615" width="10.46642" height="4.28084" rx=".4233" ry=".4233" transform="translate(-15.4067 30.27807) rotate(-45)"/><path class="uuid-e8769826-ae05-43ae-bf62-f02dacf25181" d="M31.93384,13.95595c0-.935-.758-1.69305-1.69305-1.69305h-.91937c-.23376,0-.42328,.18945-.42328,.42328v2.53961c0,.23383-.18958,.42328-.42328,.42328H14.14886c-.23383,0-.42328-.18945-.42328-.42328v-2.53961c0-.23383-.18958-.42328-.42328-.42328h-.83899c-.93512,0-1.69312,.75806-1.69312,1.69305v22.01019c0,.93518,.758,1.69312,1.69312,1.69312h6.57983c.10999-.19427,.2373-.37903,.39655-.53906,.30646-.30841,1.16205-1.15991,1.16193-1.15979l11.33221-11.33209V13.95595Zm-9.73517,12.17023h-5.92584c-.58453,0-1.05817-.47375-1.05817-1.05817,0-.58447,.47363-1.05823,1.05817-1.05823h5.92584c.58441,0,1.05817,.47375,1.05817,1.05823,0,.58441-.47375,1.05817-1.05817,1.05817Zm4.23273-4.23273h-10.15857c-.58453,0-1.05817-.47375-1.05817-1.05817,0-.58447,.47363-1.05823,1.05817-1.05823h10.15857c.58441,0,1.05817,.47375,1.05817,1.05823,0,.58441-.47375,1.05817-1.05817,1.05817Z"/><path class="uuid-e8769826-ae05-43ae-bf62-f02dacf25181" d="M22.39673,37.75558c-.16504-.16498-.43091-.16699-.59631-.0022-.27606,.27496-.67169,.66956-.8595,.85846-.07086,.07147-.11096,.16254-.11865,.26282l-.21094,2.74017c-.02045,.2652,.20612,.48334,.4704,.453l2.63275-.30298c.09491-.01093,.18335-.05359,.25092-.12115l.86041-.86035c.16534-.16534,.16534-.43341,0-.59875l-2.42908-2.42902Z"/></svg>