<?xml version="1.0" encoding="UTF-8"?><svg id="uuid-3e553a12-a5a5-4db2-8dfa-bb4c533d1cd4" xmlns="http://www.w3.org/2000/svg" viewBox="0 0 48 48"><defs><style>.uuid-82e208fe-f46f-4b86-a661-f944217d2272{fill:#123543;}</style></defs><path class="uuid-82e208fe-f46f-4b86-a661-f944217d2272" d="M25.42639,26.95291c.6037-1.17468,1.45715-2.19623,2.49176-3H10.57056v-4.04102h26.13446v2.76947c1.1286,.44183,2.14673,1.10071,3,1.93176V14.9426c0-2.75696-2.24304-5-5-5H12.57056c-2.75696,0-5,2.24304-5,5v13.98572c0,2.75702,2.24304,5,5,5h12.33472c-.30402-.90259-.47583-1.86584-.47583-2.87091,0-.04358,.00592-.08563,.00653-.12909H12.57056c-1.10455,0-2-.89539-2-2v-1.9754h14.85583ZM10.57056,14.9426c0-1.10455,.89545-2,2-2h22.13446c1.10455,0,2,.89545,2,2v1.9693H10.57056v-1.9693Z"/><path class="uuid-82e208fe-f46f-4b86-a661-f944217d2272" d="M33.42944,24.0574c-3.86597,0-7,3.13397-7,7s3.13403,7,7,7,7-3.13403,7-7-3.13397-7-7-7Zm4,8.25h-2.75v2.75c0,.55225-.44769,1-1,1h-.5c-.55225,0-1-.44775-1-1v-2.75h-2.75c-.55225,0-1-.44775-1-1v-.5c0-.55231,.44775-1,1-1h2.75v-2.75c0-.55231,.44775-1,1-1h.5c.55231,0,1,.44769,1,1v2.75h2.75c.55231,0,1,.44769,1,1v.5c0,.55225-.44769,1-1,1Z"/></svg>