<?xml version="1.0" encoding="UTF-8"?><svg id="uuid-9170f167-1da7-408c-827d-aaef2e470f8d" xmlns="http://www.w3.org/2000/svg" viewBox="0 0 48 48"><defs><style>.uuid-917daee4-9a58-4768-8d66-3ddf191cb66f{fill:#123543;}</style></defs><path class="uuid-917daee4-9a58-4768-8d66-3ddf191cb66f" d="M38.5,24c0,8.00898-6.49102,14.5-14.5,14.5s-14.5-6.49102-14.5-14.5,6.49102-14.5,14.5-14.5,14.5,6.49102,14.5,14.5Zm-25.73127-3.61934l.53016,.97988c.46955,.82129,1.24156,1.42734,2.15404,1.68789l3.22852,.93457c1.02519,.27754,1.69355,1.1668,1.69355,2.18066v2.25996c0,.62305,.35117,1.18945,.90625,1.41602,.55508,.32851,.90625,.89492,.90625,1.51797v2.20898c0,.88359,.84394,1.51797,1.69355,1.27441,.91758-.26055,1.61992-1.03652,1.85215-1.90879l.15859-.63438c.23789-.95723,.86094-1.77852,1.71621-2.27129l.45879-.26055c.84961-.48145,1.3707-1.38203,1.3707-2.36191v-.46445c0-.725-.28887-1.41602-.79863-1.92578l-.21523-.21523c-.50977-.50977-1.20645-.84961-1.92578-.84961h-2.49219c-.57774,0-1.20078-.11328-1.7502-.4248l-1.9541-1.12148c-.24355-.13594-.43047-.3625-.51543-.62871-.18125-.54375,.0623-1.13281,.57207-1.39336l.33984-.16426c.37383-.18691,.8043-.2209,1.15547-.08496l1.36504,.43613c.45879,.15293,.96855-.02266,1.24043-.4248,.26621-.40215,.23789-.92891-.06797-1.29707l-.77031-.91758c-.56641-.67969-.56074-1.6709,.01699-2.33926l.88926-1.04105c.49844-.5817,.57774-1.41375,.19824-2.07871l-.13594-.23562c-.24355-.00963-.39082-.01473-.58906-.01473-5.26191,0-9.71953,3.44941-11.23127,8.16191h0Zm21.51721-2.12969l-1.45,.5834c-.88926,.35684-1.34805,1.34238-1.04785,2.2543l.95723,2.87168c.19824,.58906,.67969,1.03652,1.28008,1.18945l1.65391,.40781c.06797-.50977,.10195-1.03086,.10195-1.55762,0-2.08438-.54375-4.04414-1.49531-5.74902h0Z"/></svg>