<?xml version="1.0" encoding="UTF-8"?><svg id="uuid-433078d1-ac80-4b3c-874a-0ed205491c93" xmlns="http://www.w3.org/2000/svg" viewBox="0 0 48 48"><defs><style>.uuid-eeb69572-04e8-434d-b342-34055c5bed84{fill:#123543;}</style></defs><path class="uuid-eeb69572-04e8-434d-b342-34055c5bed84" d="M32.69965,18.51273s.0282-.02112,.03876-.03516l1.61768-1.6106c.41235-.41235,.41583-1.08203,0-1.49438-.41235-.41229-1.08191-.41583-1.49426,0l-1.61768,1.6106s-.01758,.02472-.02814,.03528c-1.95599-1.63171-4.46881-2.61151-7.21417-2.61151s-5.26886,.98328-7.22473,2.61859c0,0-.01764-.02472-.0282-.03528l-1.60352-1.58948c-.41595-.41235-1.08551-.40875-1.49432,.00708-.41235,.41583-.40887,1.08551,.00702,1.49432l1.60358,1.58942s.0282,.02112,.03876,.03174c-1.61414,1.95239-2.57629,4.44409-2.57629,7.16132,0,6.22736,5.04681,11.27405,11.27411,11.27405s11.27765-5.04669,11.27765-11.27405c0-2.7243-.96564-5.22296-2.57623-7.17194Zm-3.06256,8.05298h-5.63525c-.48987,0-.8811-.39471-.8811-.88104v-5.63885c0-.48639,.39124-.88104,.8811-.88104,.48981,0,.88104,.39465,.88104,.88104v4.75775h4.75421c.48633,0,.88104,.39124,.88104,.8811,0,.48981-.39471,.88104-.88104,.88104Z"/><path class="uuid-eeb69572-04e8-434d-b342-34055c5bed84" d="M22.71899,13.15579h2.55859c.58496,0,1.05731-.47223,1.05731-1.05731,0-.58496-.47235-1.05719-1.05731-1.05719h-2.55859c-.58508,0-1.05731,.47223-1.05731,1.05719,0,.58508,.47223,1.05731,1.05731,1.05731Z"/></svg>