<?xml version="1.0" encoding="UTF-8"?><svg id="uuid-edce6d3d-f615-4d86-a92b-5114fca1fd37" xmlns="http://www.w3.org/2000/svg" viewBox="0 0 48 48"><defs><style>.uuid-9a0ea538-9267-4c36-b17f-983e4faacc60{fill:#123543;}</style></defs><path class="uuid-9a0ea538-9267-4c36-b17f-983e4faacc60" d="M12.66995,22.39514c.9845-.14795,2.0661,.01147,3.22369,.78497,.81616,.54529,1.46301,1.34204,1.77991,2.27118,.30432,.89227,.31641,1.75043,.13116,2.53436-.05554,.23462,.13013,.45654,.37115,.45654h.99133c.17804,0,.32452-.12573,.3667-.29858,.49127-2.0119,2.30499-3.51074,4.466-3.51074,2.16113,0,3.97491,1.49884,4.46625,3.51074,.04224,.17285,.18866,.29858,.36664,.29858h.99097c.24048,0,.42731-.22107,.37195-.45508-.18201-.76868-.17413-1.60883,.11292-2.48242,.38867-1.18298,1.28491-2.15289,2.40601-2.69495,.96686-.46753,1.88855-.54492,2.73425-.39557,.22638,.03998,.42975-.14813,.42975-.37793V11.66718c0-.84229-.68274-1.52502-1.52502-1.52502H13.76608c-.84222,0-1.52496,.68274-1.52496,1.52502v10.35211c0,.22974,.20166,.41003,.42883,.37585Z"/><path class="uuid-9a0ea538-9267-4c36-b17f-983e4faacc60" d="M31.59836,26.94708c0,1.69922,1.37744,3.07666,3.0766,3.07666s3.07678-1.37744,3.07678-3.07666-1.37756-3.07672-3.07678-3.07672-3.0766,1.37756-3.0766,3.07672Z"/><path class="uuid-9a0ea538-9267-4c36-b17f-983e4faacc60" d="M20.92331,29.23456c0,1.69928,1.37744,3.07672,3.0766,3.07672,1.69928,0,3.07678-1.37744,3.07678-3.07672,0-1.69916-1.3775-3.07666-3.07678-3.07666-1.69916,0-3.0766,1.3775-3.0766,3.07666Z"/><path class="uuid-9a0ea538-9267-4c36-b17f-983e4faacc60" d="M37.73941,31.57538h-6.12878c-.88269,0-1.6554,.45801-2.1015,1.14789-.11169,.17261-.07434,.39459,.08563,.5238,.64032,.5177,1.12146,1.22229,1.35095,2.03497,.04724,.1676,.19159,.28833,.36584,.28833h8.17383c.4212,0,.76251-.34131,.76251-.76251v-.724c0-1.38538-1.12305-2.50848-2.50848-2.50848Z"/><path class="uuid-9a0ea538-9267-4c36-b17f-983e4faacc60" d="M27.06442,33.86285h-6.12885c-1.38538,0-2.50848,1.12311-2.50848,2.50848v.724c0,.4212,.34143,.76251,.76251,.76251h9.62079c.42114,0,.76251-.34131,.76251-.76251v-.724c0-1.38538-1.12311-2.50848-2.50848-2.50848Z"/><path class="uuid-9a0ea538-9267-4c36-b17f-983e4faacc60" d="M18.49088,32.72314c-.44611-.68976-1.21881-1.14777-2.10144-1.14777h-6.12885c-1.38538,0-2.50848,1.12311-2.50848,2.50848v.724c0,.4212,.34137,.76251,.76251,.76251h8.17383c.17426,0,.3186-.12073,.36597-.28833,.22943-.81268,.71057-1.51746,1.35089-2.03503,.16003-.12915,.19727-.35114,.08557-.52386Z"/><path class="uuid-9a0ea538-9267-4c36-b17f-983e4faacc60" d="M13.32492,30.02374c1.69922,0,3.07678-1.37744,3.07678-3.07666s-1.37756-3.07672-3.07678-3.07672-3.0766,1.37756-3.0766,3.07672,1.37744,3.07666,3.0766,3.07666Z"/></svg>