<?xml version="1.0" encoding="UTF-8"?><svg id="uuid-72bfb0b5-9e24-49c3-ba4e-710adf817c27" xmlns="http://www.w3.org/2000/svg" viewBox="0 0 48 48"><defs><style>.uuid-48fd41e9-166f-4677-90fc-f4fc689158a0{fill:#123543;}</style></defs><rect class="uuid-48fd41e9-166f-4677-90fc-f4fc689158a0" x="9.1954" y="29.31513" width="8" height="8" rx="3" ry="3"/><rect class="uuid-48fd41e9-166f-4677-90fc-f4fc689158a0" x="19.40326" y="29.31513" width="8" height="8" rx="3" ry="3"/><rect class="uuid-48fd41e9-166f-4677-90fc-f4fc689158a0" x="29.61112" y="29.31513" width="8" height="8" rx="3" ry="3"/><path class="uuid-48fd41e9-166f-4677-90fc-f4fc689158a0" d="M31.94089,23.11364l1.12317-1.12317v.99847c0,.49927-.09357,.96716-.31207,1.4353l-1.22101,2.7594h2.70544l.79321-1.79266c.3432-.77997,.5304-1.59113,.5304-2.43353v-.99854l1.12317,1.12317c.24963,.24963,.56146,.37433,.8736,.37433,.31207,0,.6239-.12469,.87354-.37433,.49902-.46765,.49902-1.27899,0-1.74689h.00006l-3.24481-3.276c-.24963-.24963-.56146-.37433-.8736-.37433s-.65527,.12469-.8736,.37433l-3.276,3.276c-.49921,.49921-.49921,1.27917,0,1.77844,.49927,.49927,1.27924,.49927,1.7785,0Z"/><path class="uuid-48fd41e9-166f-4677-90fc-f4fc689158a0" d="M22.39395,16.11364l1.12317-1.12317v.99847c0,.49927-.09357,.96716-.31207,1.4353l-1.55994,3.52557c-.3432,.77997-.5304,1.59113-.5304,2.43359v1.4975c0,.78143,.15833,1.58301,.45782,2.30273h2.75958l-.37848-.80524c-.21851-.4679-.3432-.99847-.3432-1.4975v-1.4975c0-.49927,.09363-.96716,.31213-1.4353l1.55994-3.52557c.3432-.78003,.5304-1.59113,.5304-2.43359v-.99847l1.12317,1.12317c.24963,.24963,.56146,.37433,.87354,.37433,.31213,0,.62396-.12469,.8736-.37433,.49927-.49921,.49927-1.27924,0-1.77844l-3.24457-3.276c-.24963-.24963-.56146-.37433-.8736-.37433-.3432,0-.65527,.12469-.87354,.37433l-3.276,3.276c-.49927,.49921-.49927,1.27917,0,1.77844,.49921,.49927,1.27924,.49927,1.77844,0Z"/><path class="uuid-48fd41e9-166f-4677-90fc-f4fc689158a0" d="M12.87833,22.11364l1.12317-1.12317v.99847c0,.49927-.12494,.96741-.31207,1.4353l-1.56,3.52557c-.03394,.07715-.0592,.15607-.09009,.23383h2.70581l1.22174-2.76111c.34314-.78003,.53033-1.59113,.53033-2.43359v-.99847l1.12317,1.12317c.24963,.24963,.56152,.37433,.8736,.37433s.62396-.12469,.8736-.37433c.49921-.49927,.49921-1.27924,0-1.77844l-3.24463-3.276c-.49927-.49927-1.27924-.49927-1.7785,0l-3.24463,3.276c-.49921,.49921-.49921,1.27924,0,1.77844,.49927,.49927,1.27924,.49927,1.7785,0Z"/></svg>