<?xml version="1.0" standalone="no"?>
<!DOCTYPE svg PUBLIC "-//W3C//DTD SVG 1.1//EN" "http://www.w3.org/Graphics/SVG/1.1/DTD/svg11.dtd">
<svg xmlns="http://www.w3.org/2000/svg">
<metadata>Copyright (C) 2022 by original authors @ fontello.com</metadata>
<defs>
<font id="appward" horiz-adv-x="1000" >
<font-face font-family="appward" font-weight="400" font-stretch="normal" units-per-em="1000" ascent="850" descent="-150" />
<missing-glyph horiz-adv-x="1000" />
<glyph glyph-name="actions" unicode="&#xe800;" d="M480 448v-16c0-14 11-25 25-25 13 0 24 11 24 25v16c0 14-11 25-24 25-14 0-25-11-25-25z m-164-297v83c-5 0-11-1-16-1-12 0-23 2-33 4v-86c0-32 26-58 58-58h62v49h-62c-5 0-9 4-9 9z m145 355h98c19 0 33 15 33 33v82c0 18-14 32-33 32h-98c-18 0-33-14-33-32v-82c0-18 15-33 33-33z m98-312h-98c-18 0-33-14-33-33v-81c0-19 15-33 33-33h98c19 0 33 14 33 33v81c0 19-14 33-33 33z m-32 58v16c0 14-11 25-25 25-14 0-25-11-25-25v-16c0-14 11-25 25-25 14 0 25 11 25 25z m253 118l-74 74c-3 3-7 5-11 5-5 0-9-2-12-5l-61-61h-242c-11 34-43 60-81 60-46 0-84-38-84-85s38-84 84-84c38 0 70 25 81 60h242l61-61c3-4 7-5 12-5 4 0 8 2 11 5l74 74c7 6 7 16 0 23v0z" horiz-adv-x="1000" />

<glyph glyph-name="announcements" unicode="&#xe801;" d="M259 428h-23c-17 0-31-14-31-31v-107c0-17 14-31 31-31h23c4 0 8 4 8 8v153c0 4-4 8-8 8z m396 109l-345-97c-3-1-5-4-5-7v-183h0v-61c0-25 18-46 43-50l112-19c3-1 5-1 8-1 12 0 24 4 33 12 12 10 18 24 18 39v22l136-37c5-1 10 2 10 7v367c0 5-5 9-10 8z m-182-367c0-2-1-3-2-4 0 0-2-1-4-1h0l-112 19c-2 0-4 2-4 5v48l122-33v-34z m291 411h-31c-16 0-30-14-30-31v-398c0-17 14-30 30-30h31c17 0 31 13 31 30v398c0 17-14 31-31 31z" horiz-adv-x="1000" />

<glyph glyph-name="app-creator" unicode="&#xe802;" d="M408 421h-189c-12 0-21 10-21 21v189c0 12 9 21 21 21h189c11 0 21-9 21-21v-189c0-11-10-21-21-21z m290 21v189c0 12-9 21-21 21h-189c-11 0-21-9-21-21v-189c0-11 10-21 21-21h189c12 0 21 10 21 21z m-269-269v189c0 12-10 21-21 21h-189c-12 0-21-9-21-21v-189c0-12 9-21 21-21h189c11 0 21 9 21 21z m198 206c-4 2-8 4-12 4h-125c-12 0-21-9-21-21v-127c0-3 1-6 3-9 13 78 76 140 155 153z m175-185c0-81-65-146-146-146s-146 65-146 146 66 146 146 146 146-66 146-146z m-42-5v10c0 12-9 21-20 21h-58v57c0 12-9 21-20 21h-11c-11 0-21-9-21-21v-57h-57c-12 0-21-9-21-21v-10c0-12 9-21 21-21h57v-58c0-11 10-20 21-20h11c11 0 20 9 20 20v58h58c11 0 20 9 20 21z" horiz-adv-x="1000" />

<glyph glyph-name="appointments" unicode="&#xe803;" d="M718 616h-69c-19 0-35-15-35-34 0-19-15-35-35-35-19 0-34 16-34 35 0 19-16 34-35 34h-87c-19 0-35-15-35-34 0-19-15-35-34-35s-35 16-35 35c0 19-15 34-35 34h-69c-19 0-35-15-35-34v-434c0-19 16-35 35-35h263c-9 23-15 49-15 75 0 112 91 203 203 203 31 0 61-7 87-20v211c0 19-16 34-35 34z m-434-419c-19 0-34 15-34 35 0 19 15 34 34 34s35-15 35-34c0-20-15-35-35-35z m0 104c-19 0-34 16-34 35 0 19 15 34 34 34s35-15 35-34c0-19-15-35-35-35z m104-104c-19 0-34 15-34 35 0 19 15 34 34 34s35-15 35-34c0-20-15-35-35-35z m0 104c-19 0-34 16-34 35 0 19 15 34 34 34s35-15 35-34c0-19-15-35-35-35z m0 104c-19 0-34 16-34 35 0 19 15 35 34 35s35-16 35-35c0-19-15-35-35-35z m105 0c-20 0-35 16-35 35 0 19 15 35 35 35s34-16 34-35c0-19-15-35-34-35z m171-61c-87 0-156-70-156-156 0-36 12-70 33-96 5 24 27 43 53 43h131c29 0 53-23 54-51 25 27 41 64 41 104 0 86-70 156-156 156z m0-182c-37 0-68 30-68 67s31 67 68 67c37 0 67-30 67-67s-30-67-67-67z" horiz-adv-x="1000" />

<glyph glyph-name="articles" unicode="&#xe804;" d="M756 606h-402c-20 0-37-17-37-37v-383c0-10-8-19-18-19s-18 9-18 19v347h-37c-20 0-36-17-36-37v-329c0-40 33-73 73-73h438c40 0 73 33 73 73v402c0 20-16 37-36 37z m-238-439h-109c-10 0-18 9-18 19s8 18 18 18h109c10 0 19-8 19-18 0-10-9-19-19-19z m0 110h-109c-10 0-18 8-18 18s8 19 18 19h109c10 0 19-9 19-19s-9-18-19-18z m183-110h-110c-10 0-18 9-18 19 0 10 8 18 18 18h110c10 0 18-8 18-18 0-10-8-19-18-19z m0 110h-110c-10 0-18 8-18 18s8 19 18 19h110c10 0 18-9 18-19s-8-18-18-18z m18 128c0-10-8-18-18-18h-292c-10 0-18 8-18 18v109c0 10 8 19 18 19h292c10 0 18-9 18-19v-109z" horiz-adv-x="1000" />

<glyph glyph-name="assets" unicode="&#xe805;" d="M759 280h0c-13 17-36 20-53 7l-107-84c-6-5-12-7-19-7l-77 0c-10 0-19 9-19 19 0 11 9 19 19 19l65 0c20 0 37 17 37 38 0 21-17 38-38 38l-147 0-10 0c-21 0-40-7-56-20l-53-41c-3-3-4-7-1-11l102-129c1-2 4-3 6-3l124-1 34 0c21-1 41 6 57 19l130 103c17 13 19 37 6 53z m-369 185l149 131c7 7 18 7 25 0l149-131c7-6 18-6 25 1 7 7 7 19-1 26l-160 141c-15 13-37 13-51 0l-160-141c-8-7-9-19-1-26 6-7 17-7 25-1z m168 103c-4 4-9 4-13 0l-141-124c-1-1-1-2-1-3v-90c2 0 4 0 7 0l10 0 91 1v36c0 10 9 19 19 19h42c11 0 19-9 19-19v-40c27-8 47-30 54-56l35 28c6 4 13 8 20 11v110c0 1-1 2-2 3l-140 124z" horiz-adv-x="1000" />

<glyph glyph-name="audits" unicode="&#xe806;" d="M443 97h-180c-4 0-8-4-8-8v-8c0-18 15-33 33-33h130c18 0 33 15 33 33v8c0 4-4 8-8 8z m114 506h131c4 0 8 4 8 8v8c0 19-15 33-33 33h-81c-18 0-33-14-33-33v-8c0-4 4-8 8-8z m-245 0h131c4 0 8 4 8 8v8c0 19-15 33-33 33h-81c-18 0-33-14-33-33v-8c0-4 4-8 8-8z m425-506h-180c-4 0-8-4-8-8v-8c0-18 15-33 33-33h130c18 0 33 15 33 33v8c0 4-4 8-8 8z m-5 369c-21 6-36 25-36 47v41c0 5-4 8-8 8h-131c-4 0-8-3-8-8v-24c0-9-7-17-16-17h-66c-9 0-16 8-16 17v24c0 5-4 8-8 8h-131c-4 0-8-3-8-8v-41c0-22-15-41-36-47-7-2-13-8-13-16v-304c0-5 4-8 8-8h180c4 0 8 3 8 8v106c0 9 7 16 16 16h66c9 0 16-7 16-16v-106c0-5 4-8 8-8h180c4 0 8 3 8 8v304c0 8-6 14-13 16z m-201-85c0-17-14-31-31-31s-31 14-31 31v20c0 17 14 31 31 31s31-14 31-31v-20z" horiz-adv-x="1000" />

<glyph glyph-name="calendar" unicode="&#xe809;" d="M173 536c0-17 14-31 32-31h590c18 0 32 14 32 31 0 18-14 32-32 32h-590c-18 0-32-14-32-32z m527-404c-23 1-41 19-41 42 0 23 18 41 40 42h1c23 0 41-19 41-42 0-23-18-42-41-42z m-199 181c-22-1-41 17-42 40 0 22 18 41 40 42 22 0 40-17 41-39 1-23-17-42-39-43z m0-178c-22-1-41 16-42 39 0 23 18 41 40 42 22 0 40-17 41-39 1-23-17-41-39-42z m-200 178c-22-1-41 17-42 40 0 22 18 41 40 42 22 0 40-17 41-39 1-23-17-42-39-43z m0-178c-23-1-41 16-42 39 0 23 18 41 40 42 22 0 40-17 40-39 1-23-16-41-38-42z m359 218c0 23 17 41 40 42 22 0 39-18 40-40 1-22-17-41-39-42-22 0-41 17-41 40v0z" horiz-adv-x="1000" />

<glyph glyph-name="calls" unicode="&#xe80a;" d="M725 567h-276v-378c0-23-18-42-41-42h-104c-24 0-42 19-42 42v376c-40-6-70-40-70-82v-305c0-46 37-83 83-83h450c46 0 83 37 83 83v305c0 46-37 84-83 84z m-168-395c0-11-9-20-20-20h-17c-11 0-20 9-20 20v17c0 11 9 20 20 20h17c11 0 20-9 20-20v-17z m0 105c0-12-9-21-20-21h-17c-11 0-20 9-20 21v16c0 11 9 21 20 21h17c11 0 20-10 20-21v-16z m97-105c0-11-10-20-21-20h-16c-12 0-21 9-21 20v17c0 11 9 20 21 20h16c11 0 21-9 21-20v-17z m0 105c0-12-10-21-21-21h-16c-12 0-21 9-21 21v16c0 11 9 21 21 21h16c11 0 21-10 21-21v-16z m96-105c0-11-9-20-21-20h-16c-11 0-21 9-21 20v17c0 11 10 20 21 20h16c12 0 21-9 21-20v-17z m0 105c0-12-9-21-21-21h-16c-11 0-21 9-21 21v16c0 11 10 21 21 21h16c12 0 21-10 21-21v-16z m0 120c0-23-18-42-41-42h-167c-23 0-42 19-42 42v90c0 23 19 41 42 41h167c23 0 41-18 41-41v-90z" horiz-adv-x="1000" />

<glyph glyph-name="changes" unicode="&#xe80b;" d="M654 225v57c0 2-1 5-2 7-22 30-34 67-34 105v32c0 52-35 97-84 109v22c0 13-10 23-22 23h-4c-12 0-22-10-22-23v-22c-48-11-84-54-84-105v-36c0-38-12-75-34-105-2-2-2-5-2-7v-57c0-6 5-12 12-12h264c6 0 12 6 12 12z m-147-78h6c18 0 33 15 33 34v5h-72v-5c0-19 15-34 33-34z m-247 367l107 21c7 2 10 11 5 17l-24 23c93 64 220 62 311-5 0 0 0 0 0 0 4-3 9-7 13-10 5-4 11-6 17-6 8 0 15 3 21 10 9 11 7 28-4 37-5 4-10 8-15 12 0 0 0 0 0 0-112 83-269 83-381 1l-24 23c-5 6-14 3-16-5l-21-106c-1-7 5-13 11-12z m481-39c4-9 14-14 23-14 5 0 9 1 13 3 13 7 18 23 11 36-5 11-12 22-19 32-8 13-25 16-37 7-13-8-16-25-7-37 5-8 11-18 16-27z m25-74c2-10 4-20 4-31 1-14 13-24 27-24 1 0 1 0 2 0 15 1 26 14 25 28-1 13-3 25-5 38-3 14-17 24-31 21-15-3-25-17-22-32z m-532-106c-2 10-3 20-4 30-2 15-15 26-30 24-14-1-25-14-24-29 1-12 3-24 6-36 2-13 13-22 26-22 2 0 4 1 5 1 15 3 24 17 21 32z m505-109l-103-21c-8-1-10-10-5-16l23-22c-94-66-221-64-313 3 0 0 0 0 0 0-5 3-9 7-13 10-12 10-29 8-38-3-9-12-8-29 4-38 5-4 10-8 15-12 0 0 0 0 0 0 56-41 123-62 191-62 67 0 134 21 191 62 0 0 1 1 1 1l22-22c6-5 15-3 16 5l20 104c2 6-4 12-11 11z m-537 194c2 0 3 0 5 0 13 0 24 9 26 22 1 5 3 10 4 15 4 15-5 29-19 33-15 4-29-5-33-19-2-7-3-13-4-19-3-15 6-29 21-32z m595-67c-15 3-29-6-32-21-1-5-2-10-4-15-4-15 4-30 19-34 2 0 5-1 7-1 12 0 22 8 26 20 1 6 3 13 4 19 4 14-6 29-20 32z m-537-90c-7 13-23 18-36 11-13-7-18-23-11-36 5-11 12-22 19-32 5-7 13-11 22-11 5 0 10 1 15 4 12 9 15 25 7 38-6 8-11 17-16 26z" horiz-adv-x="1000" />

<glyph glyph-name="chat" unicode="&#xe80c;" d="M809 96l-28 85c-2 5-1 10 1 15 21 41 30 90 21 142-14 79-72 144-147 169 19-46 25-98 16-150-20-105-104-188-209-207-14-2-27-3-41-4 32-34 75-59 122-67 51-9 100-1 141 20 5 3 10 3 15 1l85-28c15-5 29 9 24 24z m-176 268c29 156-105 290-260 261-89-16-160-88-176-177-9-52 0-101 21-142 2-4 3-10 1-15l-28-85c-5-14 9-29 24-24l85 29c5 1 10 1 15-1 41-21 90-30 141-21 89 16 160 87 177 175z" horiz-adv-x="1000" />

<glyph glyph-name="checklist-creator" unicode="&#xe80d;" d="M321 543h212c5 0 9 4 9 8v27c0 31-20 40-48 49-13 5-23 17-23 31 1 24-19 43-43 43h-2c-23 0-44-18-43-42 1-14-9-27-22-32-28-9-49-18-49-49v-27c0-4 4-8 9-8z m139-398c0 103 84 187 188 187v202c0 20-16 35-36 35h-19c-5 0-9-3-9-8v-53c0-5-4-9-8-9h-297c-5 0-9 4-9 9v53c0 5-4 8-9 8h-19c-20 0-35-15-35-35v-458c0-20 15-36 35-36h250c-20 30-32 66-32 105z m-75 20c0-11-9-20-21-20h-81c-11 0-20 9-20 20v81c0 12 9 21 20 21h81c12 0 21-9 21-21v-81z m0 158c0-12-9-21-21-21h-81c-11 0-20 9-20 21v81c0 11 9 21 20 21h81c12 0 21-10 21-21v-81z m45 72c0 11 10 20 22 20h123c12 0 21-9 21-20s-9-20-21-20h-123c-12 0-22 9-22 20z m218-105c-81 0-146-65-146-145s65-146 146-146 145 65 145 146-65 145-145 145z m83-172h-57v-57c0-11-10-21-21-21h-11c-11 0-20 10-20 21v57h-58c-11 0-21 10-21 21v11c0 11 10 21 21 21h58v57c0 11 9 21 20 21h11c11 0 21-10 21-21v-57h57c11 0 21-10 21-21v-11c0-11-10-21-21-21z m-428 207c4-3 8-5 12-5s9 2 12 5l44 44c6 6 6 17 0 24s-17 6-24 0l-32-32-6 5c-6 7-17 7-23 0s-7-17 0-23l17-18z m44-90l-32-32-6 6c-6 6-17 6-23 0s-7-17 0-24l17-17c4-4 8-5 12-5s9 1 12 5l44 44c6 6 6 17 0 23s-17 7-24 0z" horiz-adv-x="1000" />

<glyph glyph-name="companies" unicode="&#xe80e;" d="M749 428h-122c0 0-1 0-1 0v177c0 23-19 42-42 42h-182c-23 0-41-19-41-42v-99h-110c-23 0-42-19-42-42v-314c0-23 19-42 42-42h110v-13c0-23 18-42 41-42h182c23 0 42 19 42 42v14c0 0 1-1 1-1h122c23 0 42 19 42 42v236c0 23-19 42-42 42z m-398-190h-79c-11 0-20 9-20 21s9 21 20 21h79c12 0 21-10 21-21s-9-21-21-21z m0 71h-79c-11 0-20 9-20 21s9 21 20 21h79c12 0 21-9 21-21s-9-21-21-21z m0 71h-79c-11 0-20 10-20 21s9 21 20 21h79c12 0 21-9 21-21s-9-21-21-21z m196-208h-108c-11 0-20 9-20 21s9 21 20 21h108c12 0 21-10 21-21s-9-21-21-21z m0 94h-108c-11 0-20 10-20 21s9 21 20 21h108c12 0 21-9 21-21s-9-21-21-21z m0 95h-108c-11 0-20 9-20 21s9 20 20 20h108c12 0 21-9 21-20s-9-21-21-21z m0 94h-108c-11 0-20 9-20 21s9 21 20 21h108c12 0 21-10 21-21s-9-21-21-21z m0 95h-108c-11 0-20 9-20 20s9 21 20 21h108c12 0 21-9 21-21s-9-20-21-20z m167-364h-79c-11 0-20 9-20 20s9 21 20 21h79c12 0 21-9 21-21s-9-20-21-20z m0 71h-79c-11 0-20 9-20 21s9 20 20 20h79c12 0 21-9 21-20s-9-21-21-21z m0 71h-79c-11 0-20 9-20 21s9 20 20 20h79c12 0 21-9 21-20s-9-21-21-21z" horiz-adv-x="1000" />

<glyph glyph-name="contacts" unicode="&#xe80f;" d="M500 563c61 0 111-50 111-112s-50-113-111-113-110 51-110 113 50 112 110 112z m-183-404c0-6 2-11 6-16 4-4 9-6 15-6h325c5 0 10 2 14 6 4 4 6 10 6 16l-6 49c-4 55-52 98-110 98h-135c-57 0-106-43-110-98l-5-49z" horiz-adv-x="1000" />

<glyph glyph-name="database_manager" unicode="&#xe810;" d="M415 386c85 0 164 21 206 54 2 2 4 5 4 7v99c0 56-94 100-209 100s-208-44-208-100v-100c0-3 2-6 4-7 42-33 119-53 203-53z m1 203c63 0 114-19 114-43 0-23-51-42-114-42s-113 19-113 42c0 24 51 43 113 43z m63-451c-15 6-27 21-30 38 0 5-1 9-1 14-11 0-22-1-33-1-74 0-143 15-194 40-6 3-13-1-13-7v-44c0 0 1-1 1-1 0-1-1-1-1-2 0-55 94-99 208-99 27 0 52 2 75 6-2 3-4 5-6 7-10 14-12 33-6 49z m311 89c0 3-3 6-7 6h-14c-5 1-8 4-10 9-2 8-6 16-10 24-2 3-1 6 1 8l11 11c3 3 3 7 1 9-9 12-19 22-31 31-2 2-6 2-9-1l-11-11c-2-2-6-2-8-1-11 6-22 11-34 13q0 0 0 0v22c0 3-3 6-6 7-7 1-15 1-22 1-7 0-15 0-22-1-3-1-6-4-6-7v-22c0 0 0 0 0 0-12-2-23-7-33-13-3-1-7-1-9 1l-11 11c-3 3-6 3-9 1-12-9-22-19-31-31-2-2-2-6 1-9l11-11c2-2 3-5 1-8-4-8-8-16-10-24-2-5-5-8-10-9h-14c-3 0-6-3-7-6-1-7-2-15-2-22 0-8 1-15 2-23 1-3 4-5 7-5h14c5-2 8-5 10-10 2-8 6-16 10-24 2-2 1-6-1-8l-11-11c-3-3-3-7-1-9 9-12 19-22 31-31 3-2 6-2 9 1l11 11c2 2 6 3 9 1 10-6 21-10 33-13 0 0 0 0 0 0v-22c0-3 3-6 6-6 7-1 15-2 22-2 7 0 15 1 22 2 3 0 6 3 6 6v22c0 0 0 0 0 0 12 3 23 7 34 13 2 2 6 1 8-1l11-11c3-3 7-3 9-1 12 9 22 19 31 31 2 2 2 6-1 9l-11 11c-2 2-3 6-1 8 4 8 8 16 10 24 2 5 5 8 10 10h14c4 0 7 2 7 5 1 8 2 15 2 23 0 7-1 15-2 22z m-108-29c-3-17-17-32-34-34-28-5-52 19-48 47 3 18 17 32 35 34 27 5 51-19 47-47z m-267 34c12 0 23 1 34 2 3 17 15 31 30 38-6 15-4 34 6 48 9 12 20 22 31 32-31-6-65-9-101-9-74 0-143 14-194 40-6 3-13-1-13-8v-83c0-3 2-5 4-7 42-32 119-53 203-53z" horiz-adv-x="1000" />

<glyph glyph-name="deals" unicode="&#xe811;" d="M350 512l-56 44c-3 2-8 2-10-2l-114-146c-2-3-2-8 1-10l56-44c3-2 8-1 10 2l114 146c3 3 2 8-1 10z m-109-109c-6-7-16-8-23-3-7 6-8 16-3 23 6 7 16 8 23 3 7-6 8-16 3-23z m589 41l-122 129c-3 3-8 3-11 1l-51-49c-3-2-3-7 0-10l122-129c2-3 7-3 10-1l51 49c3 2 3 7 1 10z m-45-15c-6-6-16-5-22 1-7 6-6 16 0 23 7 6 17 5 23-1 6-7 5-17-1-23z m-246-70l-23-21c-32-29-61-37-83-37-6 0-11 1-16 2-30 5-50 24-59 41-11 18-8 40 8 55l90 82c-11 8-23 12-36 12-17 0-35-8-46-23l-88-113c-7-9-10-21-9-33l6-46c1-11 7-22 16-29l154-120c4-3 9-5 15-5 6 0 12 3 17 8l7 8c9 10 8 25-2 34l25-22c5-4 10-5 16-5 5 0 11 2 16 6l8 8c10 10 9 26-1 35l19-16c4-4 9-6 15-6 6 0 12 3 16 7l7 7c10 10 10 26-1 35l13-11c4-4 10-6 15-6 7 0 14 3 18 9l11 13c9 10 7 25-3 33l-125 98z m80 127c-4 4-10 7-17 8l-54 7c-8 1-17-1-23-7l-13-12-122-110c-1-1-4-5-1-9l1-1c4-9 16-20 34-23 21-4 44 5 67 26l46 42 143-112 44 42c12 11 12 30 1 41l-106 108z" horiz-adv-x="1000" />

<glyph glyph-name="discussions" unicode="&#xe812;" d="M637 200c54 0 98 43 98 97 0 54-44 98-98 98-53 0-97-44-97-98 0-54 44-97 97-97z m-176-30h-193c-45 0-81-38-81-84v-46c0-4 3-8 7-8h340c4 0 8 4 8 8v46c0 46-36 84-81 84z m-97 30c54 0 98 43 98 97 0 54-44 98-98 98-53 0-97-44-97-98 0-54 44-97 97-97z m407 468h-540c-23 0-42-19-42-42v-131c0-23 19-42 42-42h28v-72c0-5 6-8 9-4l69 76h313l77-76c3-3 8-1 8 3v73h36c23 0 42 19 42 42v131c0 23-19 42-42 42z m-327-129h-167c-18 0-32 14-32 31s14 32 32 32h167c17 0 31-14 31-32s-14-31-31-31z m99 9c-6-6-14-9-23-9-2 0-4 0-6 1-2 0-4 1-5 1-2 1-4 2-6 3-2 2-3 3-5 4-1 2-2 3-4 5-1 2-2 4-2 5-1 2-2 4-2 6-1 2-1 4-1 6s0 4 1 6 1 4 2 6c0 2 1 4 2 6 2 1 3 3 4 4s3 3 5 4c2 1 4 2 6 3 1 1 3 2 5 2 10 2 21-1 29-9 1-1 2-3 4-4 1-2 2-4 2-6 1-2 2-4 2-6s1-4 1-6c0-8-4-16-9-22z m75-9h-20c-17 0-31 14-31 31s14 32 31 32h20c17 0 31-14 31-32s-14-31-31-31z m100 9c-6-6-14-9-22-9-8 0-16 3-22 9-6 6-9 14-9 22 0 2 0 5 0 6 1 2 1 4 2 6 1 2 2 4 3 6 1 1 2 3 4 4 11 12 32 12 44 0 1-1 3-3 4-4 1-2 2-4 3-6 1-2 1-4 2-6 0-1 0-4 0-6 0-8-3-16-9-22z m10-378h-150c17-24 26-53 26-84v-46c0-3 0-5 0-8h201c5 0 8 4 8 8v46c0 46-38 84-85 84z" horiz-adv-x="1000" />

<glyph glyph-name="documents" unicode="&#xe813;" d="M595 553h-189c1-2 1-3 1-5v-120c0-28-22-50-50-50h-121c-1 0-3 0-4 0v-278c0-17 14-30 30-30h333c17 0 31 13 31 30v423c0 16-14 30-31 30z m-359-137h121c7 0 12 5 12 12v120c0 2-2 3-3 3-1 0-2 0-2 0l-130-130c-2-2 0-5 2-5z m275 210c0 2-1 3-3 3 0 0-1 0-2-1l-36-36h41v34z m227 4h-189c0-1 0-3 0-4v-34h46c38 0 69-31 69-69v-376h74c17 0 30 14 30 31v422c0 17-13 30-30 30z" horiz-adv-x="1000" />

<glyph glyph-name="drawings" unicode="&#xe814;" d="M777 525c0 14-6 27-16 37l-75 75c-19 20-54 20-73 0l-42-41h0l-1-2-43-43 0 0-261-261 0 0-29-29-14-162 162 14 29 29 0 0 22 21 23 23 0 0 217 217 0 0 16 16 28 28 0 0 41 41c10 10 16 23 16 37z m-420-352l-65-5 5 65 13 13 60-60-13-13z m57 57l-60 60 217 217 60-60-217-217z m235 356l61-61-34-34-61 60 34 35z m27-475h-210c-17 0-31-14-31-32s14-31 31-31h210c17 0 31 14 31 31s-14 32-31 32z" horiz-adv-x="1000" />

<glyph glyph-name="employees" unicode="&#xe815;" d="M522 301h-149c-63 0-116-47-121-107l-5-54c-1-6 1-12 6-17 4-5 10-8 16-8h357c7 0 12 3 17 8 4 4 6 11 5 17l-6 54c-4 60-57 107-120 107z m-74 36c67 0 121 56 121 124s-54 124-121 124-121-56-121-124 54-124 121-124z m146 47c53 2 95 46 95 100 0 55-44 101-99 101-9 0-18-2-27-5 31-30 50-73 50-119 0-28-7-54-19-77z m154-117c-3 49-46 87-98 87h-75c-4-5-9-10-13-14 64-16 115-69 123-137h50c5 0 10 2 13 6 4 4 6 9 5 14l-5 44z" horiz-adv-x="1000" />

<glyph glyph-name="expense-reports" unicode="&#xe816;" d="M606 329c-86 0-156-70-156-156s70-156 156-156 157 70 157 156-70 156-157 156z m-7-128l35-19c21-10 32-33 28-56-2-19-14-33-30-40v-5c0-12-10-21-22-21-12 0-21 9-21 21v4c-17 5-32 18-39 35-5 11 0 24 11 28 11 5 24 0 29-11 3-8 12-13 21-12 6 1 8 5 9 8 0 1 0 8-6 11l-35 18c-21 11-33 34-28 58 4 21 18 36 38 41v4c0 12 9 21 21 21 12 0 22-9 22-21v-8c14-7 25-18 31-32 5-11 0-24-11-29-11-5-24 0-29 11-4 9-12 14-21 13-6-1-8-5-9-8 0-2 0-8 6-11z m7 172c23 0 45-4 65-12v296c0 13-14 21-25 15l-39-21c-5-3-11-3-16 0l-56 30c-5 3-12 3-17 0l-55-30c-6-3-12-3-17 0l-56 30c-5 3-11 3-16 0l-56-30c-5-3-11-3-17 0l-38 21c-11 6-25-2-25-15v-557c0-13 14-21 25-15l39 21c5 3 11 3 16 0l56-30c5-3 11-3 17 0l32 17c-10 25-16 52-16 80 0 110 89 200 199 200z m-303 159c0 12 9 22 21 22h256c12 0 22-10 22-22 0-12-10-21-22-21h-256c-12 0-21 9-21 21z m21-65h256c12 0 22-9 22-21 0-12-10-22-22-22h-256c-12 0-21 10-21 22 0 12 9 21 21 21z m26-217h-26c-12 0-21 10-21 22 0 12 9 22 21 22h26c12 0 22-10 22-22 0-12-10-22-22-22z m-26 87c-12 0-21 10-21 22 0 12 9 21 21 21h77c12 0 22-9 22-21 0-12-10-22-22-22h-77z" horiz-adv-x="1000" />

<glyph glyph-name="faq" unicode="&#xe817;" d="M803 101l-28 84c-1 4-1 9 2 14 20 40 29 88 20 139-14 77-71 142-144 166 19-46 25-97 15-147-19-103-101-184-204-203-14-2-27-3-41-4 32-33 74-57 120-66 50-9 98 0 138 20 5 3 10 3 15 1l83-27c15-5 29 9 24 23z m-173 263c29 153-102 284-255 256-87-16-156-87-172-174-9-51 0-98 21-139 2-4 2-10 1-14l-28-84c-5-14 9-28 24-23l83 27c5 2 10 2 15-1 40-20 88-29 138-20 87 16 157 85 173 172z m-308 90h186c10 0 19-8 19-19 0-11-9-19-19-19h-186c-10 0-19 8-19 19 0 11 9 19 19 19z m109-115h-109c-10 0-19 8-19 19 0 10 9 19 19 19h109c10 0 19-9 19-19 0-11-9-19-19-19z" horiz-adv-x="1000" />

<glyph glyph-name="goals" unicode="&#xe818;" d="M821 67l-231 406c-12 21-43 21-54-1l-94-177 50-88c10-16 6-37-7-50-6 1-7 1-13 2l-99 174c-12 21-43 20-55-1l-139-266c-2-5 1-11 7-11h628c6 0 10 6 7 12z m-261 470c0-4 3-8 8-8h156c7 0 11 8 6 14l-33 39c-3 3-3 7 0 10l33 39c5 6 1 14-6 14h-156c-5 0-8-4-8-8v-100z" horiz-adv-x="1000" />

<glyph glyph-name="insights" unicode="&#xe819;" d="M569 407c-8 0-15 3-21 9-5 6-8 13-8 21s3 15 8 21c6 6 13 9 21 9s16-3 21-9c6-6 9-13 9-21s-3-15-9-21c-5-6-12-9-21-9z m-68 182c0 9 6 17 16 17 124 0 224-100 224-224 0-9-8-16-17-16h-223v223z m-272-255c0 121 90 222 206 238 10 1 18-6 18-16v-238l157-156c6-7 6-18-2-24-39-27-87-44-139-44-132 0-240 108-240 240z m526-16c10 0 17-8 16-17-8-56-35-105-74-142-6-5-16-5-21 0l-159 159h238z" horiz-adv-x="1000" />

<glyph glyph-name="inspections" unicode="&#xe81a;" d="M693 509c-57 40-122 61-193 61s-136-21-193-61c-58-41-101-94-129-159 28-65 71-118 129-159s122-60 193-60 136 20 193 60c58 41 101 94 129 159-28 65-71 118-129 159z m-137-201h14c-3-6-7-11-12-16-16-16-35-24-58-24-23 0-42 8-58 24-16 16-24 35-24 58s8 42 24 58 35 24 58 24c23 0 42-8 58-24 11-11 18-24 21-38h-23c-17 0-31-14-31-31s14-31 31-31z" horiz-adv-x="1000" />

<glyph glyph-name="installations" unicode="&#xe81b;" d="M625 642h-104v-223l30 29c9 8 22 8 30 0 8-9 8-22-1-30l-66-62c0 0 0 0 0 0-2-2-4-3-6-4 0 0 0 0 0 0-3-1-5-2-8-2-3 0-5 1-8 2-1 0-1 1-2 1-1 1-3 2-4 3l-66 62c-8 8-9 21-1 30 8 8 21 8 30 0l30-29v223h-104c-46 0-83-38-83-84v-416c0-46 37-84 83-84h250c46 0 83 38 83 84v416c0 46-37 84-83 84z m-2-542h-246c-23 0-41 19-41 42 0 23 18 41 41 41h246c23 0 42-18 42-41 0-23-19-42-42-42z m-191 57c-2 0-3 1-4 2-1 1-2 1-3 2-2 1-3 1-4 1-7 2-14-1-19-5-2-3-3-5-4-7-1-3-2-6-2-8s1-6 2-8c1-3 2-5 4-7 4-4 9-6 15-6 2 0 5 1 8 2s4 2 7 4c1 2 3 4 4 7 1 2 2 5 2 8s-1 5-2 8c-1 2-3 4-4 7z" horiz-adv-x="1000" />

<glyph glyph-name="inventory" unicode="&#xe81c;" d="M355 587c0 30 24 54 54 54h55v-91c0-10 8-18 18-18h36c10 0 18 8 18 18v91h55c30 0 55-24 55-54v-146c0-30-25-55-55-55h-182c-30 0-54 25-54 55v146z m-73-273v-91c0-10 8-18 18-18h36c10 0 19 8 19 18v91h54c30 0 55-25 55-55v-145c0-31-25-55-55-55h-182c-30 0-54 24-54 55v145c0 30 24 55 54 55h55z m364 0v-91c0-10 8-18 18-18h36c10 0 18 8 18 18v91h55c30 0 55-25 55-55v-145c0-31-25-55-55-55h-182c-30 0-55 24-55 55v145c0 30 25 55 55 55h55z" horiz-adv-x="1000" />

<glyph glyph-name="mail" unicode="&#xe81d;" d="M752 463l-219 136c-20 13-46 13-66 0l-219-136c-17-11-27-29-27-48v-267c0-31 26-56 58-56h442c32 0 58 25 58 56v267c0 19-10 37-27 48z m-323-226l-136-105c-3-3-8-4-12-4-5 0-11 2-15 7-6 8-4 20 4 26l136 106c8 6 20 5 26-3 6-9 5-20-3-27z m53 44l-172 122c-19 14-9 43 14 43h352c23 0 33-29 14-43l-172-122c-11-7-25-7-36 0z m252-146c-4-5-10-7-15-7-4 0-8 1-12 4l-136 105c-8 7-9 18-3 27 7 8 18 9 27 3l135-106c9-6 10-18 4-26z m-166 275h-121c-12 0-22-10-22-22s10-23 22-23h121c12 0 23 10 23 23s-11 22-23 22z" horiz-adv-x="1000" />

<glyph glyph-name="maintenance" unicode="&#xe81e;" d="M799 531c-4 15-23 20-34 9-26-26-55-55-60-61-22-21-58-20-77 4-18 21-14 53 5 72l59 59c11 10 6 29-9 33-22 5-45 6-70 0-60-13-108-62-119-123-5-25-3-50 4-72l-279-276c-29-29-29-77 0-106 29-29 77-29 106 0l279 276c22-7 47-8 72-4 61 11 110 59 123 120 6 24 5 47 0 69z m-536 4c17-22 40-39 66-48l65-65 55 54-65 65c-9 27-26 50-48 67l-50 37c-14 11-33 9-46-3l-11-12c-12-12-14-31-3-45l37-50z m386-234c-4 0-7 0-10 1l-107-106 125-125c31-31 80-31 111 0 30 30 30 80 0 110l-119 120z" horiz-adv-x="1000" />

<glyph glyph-name="labor-tracking" unicode="&#xe81f;" d="M594 404c-103 0-187-84-187-187s84-188 187-188 188 84 188 188-84 187-188 187z m26-202c0-12-9-22-21-22h-85c-12 0-22 10-22 22s10 21 22 21h64v81c0 12 9 21 21 21s21-9 21-21v-102z m-210 233c64 0 116 53 116 118s-52 118-116 118-115-53-115-118 52-118 115-118z m66-35h-137c-60 0-111-44-115-102l-5-51c-1-6 1-12 5-17 4-4 10-7 16-7h136c2 75 41 140 100 177z" horiz-adv-x="1000" />

<glyph glyph-name="manpower" unicode="&#xe820;" d="M691 516c-70 0-126-58-123-127 0 0 0-1 0-1-52 0-97-31-117-75 0 0-43 35-43 54v43h53c18 0 32 14 32 32v11c0 7-1 13-5 18l-19 29c-11 16-31 23-49 17l-100-34c-17-5-29-22-29-40v-161c0-71 121-213 138-213h54c118 0 217 88 232 202l0 3c56 11 98 60 98 119 0 68-55 123-122 123z m-144-383c-12 0-21 9-21 21s9 21 21 21c29 0 54 24 54 54 0 11 9 20 20 20s21-9 21-20c0-53-43-96-95-96z m-298 235c-4 0-8 1-12 3l-41 30c-5 3-9 9-9 15-1 6 2 13 6 17l25 24-17 30c-3 6-3 12-1 18 2 6 7 10 13 12l33 11-2 35c0 6 2 12 7 17s11 6 17 5l34-5 14 33c2 5 7 10 13 12 6 1 12 0 17-3l30-19 25 23c5 4 11 6 17 5 7-1 12-4 15-10l18-30 34 10c6 2 12 1 17-3s9-9 9-15l5-51c1-11-8-21-19-22-11-1-22 7-23 19l-2 25-25-7c-9-3-18 1-23 9l-13 22-20-17c-7-6-17-7-25-2l-21 14-10-23c-4-9-13-14-22-13l-26 3 2-25c0-10-5-19-14-21l-25-8 13-23c4-8 3-18-4-25l-19-18 21-15c10-6 12-19 5-29-4-5-10-8-17-8z" horiz-adv-x="1000" />

<glyph glyph-name="new-hire" unicode="&#xe821;" d="M594 404c-103 0-187-84-187-187s84-188 187-188 188 84 188 188-84 187-188 187z m72-180l-29-28 7-39c2-14-6-20-18-13l-35 18-36-18c-12-7-20-1-17 13l6 39-28 28c-10 9-7 19 7 21l39 5 18 36c6 13 16 13 22 0l17-36 40-5c13-2 16-12 7-21z m-256 211c64 0 116 53 116 118s-52 118-116 118-115-53-115-118 52-118 115-118z m66-35h-137c-60 0-111-44-115-102l-5-51c-1-6 1-12 5-17 4-4 10-7 16-7h136c2 75 41 140 100 177z" horiz-adv-x="1000" />

<glyph glyph-name="meetings" unicode="&#xe822;" d="M433 261c0 37-30 66-65 66-36 0-65-29-65-66 0-37 29-67 65-67 35 0 65 30 65 67z m265 0c0 37-29 66-65 66s-65-29-65-66c0-37 29-67 65-67s65 30 65 67z m-226-143c-2 32-31 57-65 57h-79c-34 0-63-25-65-57l-1-19v-38c0-12 9-21 20-21h196l-6 78z m265 0c-2 32-30 57-64 57h-80c-34 0-62-25-65-57h1l-6-78h195c11 0 20 9 20 21v43l-1 14z m-141 499c-59 60-152 56-208 0-65-64-52-157 0-209 17-17 41-31 65-38 9-2 15-4 19-11l15-28c4-7 13-7 17 0l16 30c2 5 6 8 10 9 26 7 49 20 67 38 55 55 60 148-1 209z m-172-124c-10 0-18 9-18 19 0 11 8 19 18 19s19-8 19-19c0-10-8-19-19-19z m69 0c-11 0-19 9-19 19 0 11 8 19 19 19 10 0 19-8 19-19 0-10-9-19-19-19z m68 0c-11 0-19 9-19 19 0 11 8 19 19 19s19-8 19-19c0-10-9-19-19-19z" horiz-adv-x="1000" />

<glyph glyph-name="notes" unicode="&#xe823;" d="M665 320h-326c-18 0-33 14-33 31 0 17 15 31 33 31h326c18 0 33-14 33-31 0-17-15-31-33-31z m0-184h-326c-13-2-25 4-32 14-6 11-6 24 0 34 7 10 19 16 32 15h326c17-2 29-15 29-32 0-16-12-30-29-31z m-326 428v1h124c18 0 33-14 33-32 0-17-15-32-33-32h-124c-18 0-33 15-33 32 0 17 15 31 33 31z" horiz-adv-x="1000" />

<glyph glyph-name="parts" unicode="&#xe824;" d="M573 370l-38 38c0-1 0-1-1-1l-91-91c0-1 0-1-1-1l38-38c0 0 0 1 1 1l91 91c0 1 1 1 1 1l0 0z m118-118l-38 38c0 0 0-1-1-1l-91-91c0-1-1-1-1-1l38-38c0 1 0 1 1 1l91 92c0 0 0 0 1 0l0 0z m-177 177l-64 64 4 3c4 4 7 11 6 18l-7 76c-2 23-31 34-47 17l-58-57c-3-3-4-7-4-11s1-7 4-10c8-8 8-20 0-27-7-8-19-8-27 0l0 0c-6 6-15 6-21 0l-57-58c-17-16-6-45 17-47l77-7c6 0 13 2 18 7l3 3 63-64c0 0 1 1 1 1l91 91c0 1 1 1 1 1v0z m118-118l-38 38c0 0 0-1-1-1l-91-91c0-1 0-1-1-1l38-38c0 1 0 1 1 1l91 91c0 1 1 1 1 1l0 0z m133-200l-9 69c0 5-2 9-6 13l-38 38c0 0 0-1-1-1l-91-91c0 0-1-1-1-1l38-38c4-3 8-6 13-6l69-9c15-2 28 11 26 26l0 0z" horiz-adv-x="1000" />

<glyph glyph-name="paintbrush" unicode="&#xe825;" d="M421 343c0 29 14 57 38 75l233 175c19 14 44 12 61-3 17-16 20-41 7-61l-159-246c-15-23-39-39-66-42l-114 102z m95-135c0-61-50-110-110-110h-142c-18 0-32 14-32 31s14 32 32 32h4c18 0 30 19 28 36-1 3-1 7-1 11 0 60 47 108 106 110l115-102c0-2 0-5 0-8h0z" horiz-adv-x="1000" />

<glyph glyph-name="pinpoint" unicode="&#xe826;" d="M488 195c7-6 17-6 24 0 39 31 160 134 160 254 0 101-87 182-191 171-91-10-160-98-152-189 11-120 121-209 159-236z m12 322c38 0 68-30 68-68s-30-68-68-68-68 31-68 68 30 68 68 68z m210-399l-28 127c-3 15-16 25-31 25h-9c-25-33-59-69-106-105-10-8-23-13-36-13-13 0-25 4-35 11-26 19-72 56-110 107h-7c-15 0-28-10-31-25l-27-127c-4-20 11-39 31-39h358c20 0 36 19 31 39z" horiz-adv-x="1000" />

<glyph glyph-name="problems" unicode="&#xe827;" d="M830 399c-2 7-8 13-16 13h-31c-10 3-18 11-21 21-6 18-14 36-23 53-4 5-3 13 2 18l25 25c5 5 6 14 2 20-20 26-43 49-68 68-6 4-15 4-20-2l-26-25c-4-5-12-6-18-2-23 13-48 23-75 29 0 0 0 0 0 0v48c0 7-5 14-13 15-15 2-32 3-48 3s-32-1-48-3c-8-1-13-8-13-15v-48c0 0 0 0 0 0-27-6-52-16-75-29-6-4-13-3-18 2l-25 25c-6 6-14 6-21 2-25-19-48-42-67-68-5-6-4-15 1-20l25-25c5-5 6-13 3-18-10-17-18-35-24-53-3-10-11-18-21-21h-31c-8 0-14-6-16-13-2-16-3-32-3-49 0-17 1-33 3-49 2-7 8-13 16-13h31c10-3 18-10 21-21 6-18 14-36 24-52 3-6 2-14-3-19l-25-25c-5-5-6-14-1-20 19-26 42-48 67-68 7-4 15-4 21 2l25 25c5 5 12 6 18 2 23-13 48-23 75-29 0 0 0 0 0 0v-47c0-8 5-14 13-16 16-2 32-3 48-3s33 1 48 3c8 2 13 8 13 16v47c0 0 0 0 0 0 27 6 52 16 75 29 6 4 14 3 18-2l26-25c5-6 14-6 20-2 25 20 48 42 68 68 4 6 3 15-2 20l-25 25c-5 5-6 13-2 19 9 16 17 34 23 52 3 11 11 18 21 21h31c8 0 14 6 16 13 2 16 3 32 3 49 0 17-1 33-3 49z m-154 33l-151-253c-11-21-41-22-54-1l-146 252c-13 21 2 48 26 48h298c24 0 39-25 27-46z m-176 31c-17 0-31-14-31-32v-77c0-18 14-32 31-32s31 14 31 32v77c0 18-14 32-31 32z m0-165c-17 0-31-14-31-31v-5c0-17 14-31 31-31s31 14 31 31v5c0 17-14 31-31 31z" horiz-adv-x="1000" />

<glyph glyph-name="projects" unicode="&#xe828;" d="M715 388l0 33c0 4 4 7 8 7h62c4 0 8-3 8-7l0-33c0-4-4-8-8-8l-62 0c-4 0-8 4-8 8z m8-233h62c4 0 8 3 8 7v173c0 5-4 8-8 8l-62 0c-4 0-8-3-8-8v-173c0-4 4-7 8-7z m62-40l-62 0c-4 0-8-3-8-7 0-7 0-17 0-22 0-2 1-3 2-5l32-37c4-4 9-4 12 0l30 37c1 2 2 3 2 5l0 22c0 4-4 7-8 7z m-265 352h156v-351c0-43-35-78-78-78h-312c-43 0-78 35-78 78v468c0 44 35 79 78 79h195v-157c0-21 17-39 39-39z m13-95c-16 0-28-13-28-28v-9h-110v9c0 15-12 28-27 28h-55c-15 0-27-13-27-28v-55c0-15 12-27 27-27h55l46-61c0-1 0-2 0-3v-55c0-15 12-27 27-27h55c15 0 27 12 27 27v55c0 15-12 27-27 27h-55l-46 62c0 0 0 1 0 2v10h110v-10c0-15 12-27 28-27h55c15 0 27 12 27 27v55c0 15-12 28-27 28h-55z m-13 134h156l-156 157v-157z" horiz-adv-x="1000" />

<glyph glyph-name="purchase-orders" unicode="&#xe829;" d="M557 482c26 0 51-4 74-11v187c0 12-12 19-23 14l-35-19c-5-3-11-3-15 0l-51 27c-5 3-11 3-16 0l-51-27c-4-3-10-3-15 0l-51 27c-4 3-10 3-15 0l-51-27c-5-3-10-3-15 0l-35 19c-11 5-23-2-23-14v-509c0-12 12-20 23-14l35 19c5 3 11 3 15 0l4-2c-7 23-11 48-11 74 0 141 115 256 256 256z m-243 86h234c11 0 20-9 20-20 0-11-9-20-20-20h-234c-11 0-20 9-20 20 0 11 9 20 20 20z m-20-99c0 11 9 19 20 19h49c11 0 19-8 19-19 0-11-8-20-19-20h-49c-11 0-20 9-20 20z m263-35c-53 0-101-20-138-52 6-5 11-11 12-18l5-18h116v-74l-12 12c-8 8-22 8-30 0s-8-21 0-29l48-48c4-4 10-6 15-6s11 2 15 6l48 48c8 8 8 21 0 29s-22 8-30 0l-12-12v74h93c12 0 22-12 19-24l-30-128c-2-9-10-15-19-15h-179c0-2 0-4-1-6l-10-32h190c11 0 19-9 19-19 0-11-8-19-19-19h-216c-6 0-12 3-16 8-3 5-4 11-2 17l17 51-44 170h-6c-26-34-41-77-41-123 0-115 93-208 208-208s209 93 209 208-94 208-209 208z" horiz-adv-x="1000" />

<glyph glyph-name="queries" unicode="&#xe82a;" d="M396 663c-115 0-208-45-208-100v-101c0-3 1-5 3-7 43-32 120-53 204-53 85 0 164 22 205 55 3 1 4 4 4 7v99c0 55-93 100-208 100z m0-143c-63 0-114 19-114 43 0 23 51 43 114 43s114-20 114-43c0-24-51-43-114-43z m208-160v31c0 7-7 11-12 8-28-14-61-24-97-31 0 0 0 0 0 0-31-6-64-9-99-9-35 0-68 3-99 9 0 0 0 0 0 0-36 7-69 17-97 31-6 3-12-1-12-8v-82c0-3 1-6 3-7 43-33 120-53 204-53 0 0 0 0 1 0 0 0 1 0 1 0 35 0 68 3 98 10 21 47 60 84 109 101z m63-31c-81 0-146-65-146-146s65-145 146-145 146 65 146 145-66 146-146 146z m-2-252c-14 0-25 10-25 25 0 14 11 25 25 25 14 0 26-11 26-25 0-15-12-25-26-25z m35 92c-8-3-14-13-17-18-1-1-2-2-4-2h-25c-3 0-5 2-5 5 1 11 6 37 26 46l10 4c10 4 12 13 12 17 0 12-8 18-20 18-9 0-17-5-20-13-1-5-5-7-10-7h-18c-7 0-12 6-11 12 5 32 28 48 59 48 35 0 60-21 60-55 0-28-15-47-37-55z m-204-63c-11 23-17 50-17 77 0 11 1 20 3 30-19-3-39-5-60-7-6 0-12 0-18 0-3 0-7 0-11 0-3 0-7 0-10 0-6 0-12 0-18 0-63 4-121 18-165 40-6 3-12-1-12-8v-44c0 0 0 0 0-1 0 0 0-1 0-1 0-42 53-78 129-93 0 0 0 0-1 0 16-3 32-5 49-6 7 0 14-1 21-1 2 0 3 0 5 0 1 0 2 0 2 0 1 0 2 0 3 0 1 0 3 0 5 0 7 0 14 1 21 1 17 1 33 3 48 6 0 0 0 0 0 0 9 2 18 4 26 7z" horiz-adv-x="1000" />

<glyph glyph-name="purchase-requests" unicode="&#xe82b;" d="M557 434c-115 0-208-93-208-208s93-208 208-208 209 93 209 208-94 208-209 208z m119-286c0-23-18-42-41-42h-146c-23 0-42 19-42 42v145c0 23 19 42 42 42h41v-48h68v48h37c23 0 41-19 41-42v-145z m-98 99c-8 9-21 9-29 0l-48-48c-9-8-9-21 0-29s21-8 29 0l13 12v-39c0-12 9-21 20-21s21 9 21 21v39l13-12c4-4 9-6 14-6s11 2 15 6c8 8 8 21 0 29l-48 48z m-264 119c-11 0-20 8-20 19 0 11 9 20 20 20h61c15 16 32 29 50 40h-111c-11 0-20 9-20 20 0 11 9 20 20 20h234c4 0 7-2 10-3 25 0 50-4 73-11v187c0 12-12 19-23 14l-35-19c-5-3-11-3-15 0l-51 27c-5 3-11 3-16 0l-51-27c-4-3-10-3-15 0l-51 27c-4 3-10 3-15 0l-51-27c-5-3-10-3-15 0l-35 19c-11 5-23-2-23-14v-509c0-12 12-20 23-14l35 19c5 3 11 3 15 0l4-2c-7 23-11 48-11 74 0 52 16 99 42 140h-29z m0 198h234c11 0 20-9 20-20 0-11-9-20-20-20h-234c-11 0-20 9-20 20 0 11 9 20 20 20z" horiz-adv-x="1000" />

<glyph glyph-name="quotes" unicode="&#xe82c;" d="M463 220h-212c-50 0-89-40-89-90v-49c0-4 3-8 8-8h374c5 0 9 4 9 8v49c0 50-40 90-90 90z m-107 44c60 0 109 49 109 109 0 61-49 110-109 110-61 0-110-49-110-110 0-60 49-109 110-109z m446 363h-241c-20 0-37-15-37-33v-249c0-7-2-14-7-20l-26-30c-9-11 0-26 15-26h296c20 0 37 14 37 32v293c0 18-17 33-37 33z m-48-246c-4-22-19-36-37-44-8-3-17-5-26-6v-19c0-10-8-18-18-18-10 0-18 8-18 18v20c0 0-1 0-1 0h0c-14 2-37 8-52 15-9 4-13 15-9 24 4 9 15 13 23 9 13-5 32-10 44-12 18-3 33-1 43 3 10 4 14 10 15 16 1 6 1 10 0 12-2 2-4 5-8 8-9 6-23 10-42 15l-1 0c-16 5-36 10-51 20-8 5-15 13-20 23-5 10-6 21-4 33 4 22 20 36 39 44 7 2 16 4 24 5v20c0 10 8 18 18 18 10 0 18-8 18-18v-20c1 0 2 0 3-1 6 0 24-3 32-5 9-3 15-13 13-22-3-10-13-16-22-14-6 2-22 4-28 5-19 3-34 2-45-2-10-4-15-10-16-16-1-6 0-10 1-12 1-2 3-5 7-8 10-6 24-10 42-15l2 0c16-5 36-10 50-20 8-5 16-12 21-22 4-11 5-22 3-34z" horiz-adv-x="1000" />

<glyph glyph-name="receiving" unicode="&#xe82d;" d="M465 143c5 0 8 3 8 8v47c0 25-10 49-27 67l-79 78c-15 15-40 15-54-2-12-15-9-37 4-50l40-40c8-8 8-21 0-29-8-8-20-8-28 0l-39 39c-15 15-23 34-24 55l0 94c0 23-20 42-43 39-21-2-35-21-35-41v-97c0-22 7-44 22-61l88-104c2-2 4-3 6-3l161 0z m312 306c-23 3-43-16-43-39l0-94c-1-21-9-40-24-55l-39-39c-7-8-20-8-28 0-8 8-8 21 0 29l40 40c13 13 16 35 4 50-14 17-39 17-54 2l-79-78c-17-18-27-42-27-67v-47c0-5 3-8 8-8l161 0c2 0 5 1 6 3l88 104c15 17 23 39 23 61v97c0 20-15 39-36 41z m-422 144c0 31 24 55 54 55h55v-91c0-10 8-18 18-18h37c10 0 18 8 18 18v91h54c30 0 55-24 55-55v-145c0-30-25-55-55-55h-182c-30 0-54 25-54 55v145z" horiz-adv-x="1000" />

<glyph glyph-name="recruiting" unicode="&#xe82e;" d="M752 595c-45 45-104 68-163 68s-117-23-162-68c-79-78-88-200-29-289l-43-42-6 6c-4 4-10 4-13 0l-150-149c-7-7-7-19 0-26l52-52c8-7 19-7 26 0l150 149c3 4 3 10 0 13l-7 7 41 40c41-32 91-49 141-49 59 0 118 23 163 67 89 90 89 236 0 325z m-52-273c-30-29-69-45-111-45-41 0-81 16-110 45-30 30-46 69-46 111s16 81 46 110c29 30 69 46 110 46 42 0 81-16 111-46 29-29 46-68 46-110s-17-81-46-111z m-113 97c32 0 58 26 58 58 0 32-26 59-58 59-32 0-58-27-58-59 0-32 26-58 58-58z m51-22h-104c-24 0-43-21-43-48 0-15 11-28 25-28h139c14 0 26 13 26 28 0 27-20 48-43 48z" horiz-adv-x="1000" />

<glyph glyph-name="report-creator" unicode="&#xe830;" d="M646 360c7 0 14 0 21-1v272c0 23-19 42-42 42h-375c-23 0-42-19-42-42v-500c0-23 19-41 42-41h228c-12 25-20 53-20 83 0 104 84 187 188 187z m-101 226c26-8 47-29 55-55h-55v55z m-41 2v-98h99c-8-38-42-67-82-67-46 0-83 37-83 83 0 40 28 74 66 82z m-194-1h67c10 0 18-10 18-23 0-12-8-22-18-22h-67c-10 0-18 10-18 22 0 13 8 23 18 23z m0-106h67c10 0 18-10 18-22 0-13-8-23-18-23h-67c-10 0-18 10-18 23 0 12 8 22 18 22z m2-107h167c12 0 21-10 21-22 0-13-9-23-21-23h-167c-11 0-20 10-20 23 0 12 9 22 20 22z m105-152h-105c-11 0-20 10-20 22 0 13 9 23 20 23h105c11 0 20-10 20-23 0-12-9-22-20-22z m229 97c-81 0-146-65-146-146s65-146 146-146 146 65 146 146-66 146-146 146z m83-172h-57v-57c0-12-9-21-21-21h-10c-12 0-21 9-21 21v57h-57c-12 0-21 9-21 21v10c0 12 9 21 21 21h57v57c0 12 9 21 21 21h10c12 0 21-9 21-21v-57h57c12 0 21-9 21-21v-10c0-12-9-21-21-21z" horiz-adv-x="1000" />

<glyph glyph-name="roles" unicode="&#xe831;" d="M780 470h-560c-5 0-9-4-9-9v-351c0-25 21-46 47-46h484c26 0 47 21 47 46v351c0 5-4 9-9 9z m-280-94c31 0 57-25 57-56 0-31-26-57-57-57-31 0-56 26-56 57 0 31 25 56 56 56z m96-220c0-8-6-14-13-14h-165c-7 0-13 6-13 14v13c0 26 20 46 43 46h105c23 0 43-20 43-46v-13z m-377 352h562c4 0 8 3 8 6v71c0 28-29 52-64 52h-450c-36 0-64-24-64-52v-71c0-3 3-6 8-6z m174 92c17 0 31-14 31-32 0-17-14-31-31-31-18 0-32 14-32 31 0 18 14 32 32 32z m-102 0c17 0 31-14 31-32 0-17-14-31-31-31-17 0-31 14-31 31 0 18 14 32 31 32z" horiz-adv-x="1000" />

<glyph glyph-name="safety" unicode="&#xe833;" d="M467 129c4 0 7 3 7 7v46c0 24-9 47-26 64l-75 75c-15 15-39 14-52-2-12-14-9-35 4-48l38-39c8-7 8-19 0-27-7-7-20-7-27 0l-37 37c-15 14-23 33-23 53l0 90c0 22-19 40-42 38-19-2-34-20-34-40v-93c0-21 8-42 22-58l84-100c2-2 4-3 6-3l155 0z m299 294c-23 2-42-16-42-38l1-90c-1-20-9-39-24-53l-37-37c-7-7-19-7-27 0-8 8-8 20 0 27l38 39c13 13 16 34 4 48-13 16-37 17-52 2l-75-75c-17-17-26-40-26-64v-46c0-4 3-7 7-7l155 0c2 0 4 1 6 3l84 100c14 16 22 37 22 58v93c0 20-15 38-34 40z m-100 141c0 9-7 17-16 18-58 8-114 51-138 72-6 5-16 5-23 0-23-21-79-64-138-72-9-1-16-9-15-18 7-177 123-255 156-273 5-3 12-3 17 0 33 18 150 96 157 273z m-165-110c-32 0-57 25-57 57s25 57 57 57c31 0 56-26 56-57s-25-57-56-57z" horiz-adv-x="1000" />

<glyph glyph-name="sales-orders" unicode="&#xe834;" d="M472 98c0-26-21-46-47-46-26 0-47 20-47 46s21 47 47 47c26 0 47-21 47-47z m189 47c-26 0-47-21-47-47s21-46 47-46c26 0 47 20 47 46s-21 47-47 47z m137 375l-50-212c-3-14-17-25-32-25h-295c0 0 0-1 0-1l-18-40h315c15 0 28-13 28-28 0-16-13-29-28-29h-358c-10 0-19 5-24 13-5 8-6 18-2 27l31 70-77 297h-58c-16 0-28 12-28 28 0 16 12 29 28 29h67c22 0 40-16 44-37l14-52h411c21 0 37-20 32-40z m-308-57c0 11-9 20-20 20-12 0-21-9-21-20v-83c0-12 9-21 21-21 11 0 20 9 20 21v83z m97 0c0 11-9 20-20 20-11 0-20-9-20-20v-83c0-12 9-21 20-21 11 0 20 9 20 21v83z m98 0c0 11-9 20-20 20-12 0-21-9-21-20v-83c0-12 9-21 21-21 11 0 20 9 20 21v83z" horiz-adv-x="1000" />

<glyph glyph-name="script-hub" unicode="&#xe835;" d="M795 128c-17-9-37-15-59-19 0 0 1 0 1 0-19-3-39-5-60-5-21 0-41 2-59 5 0 0 0 0 0 0-22 4-42 10-58 19-4 1-8-1-8-5v-39c0-9 4-17 12-21 26-16 68-25 112-25 1 0 1 0 1 0 0 0 1 0 1 0 44 0 86 9 112 25 8 4 12 12 12 21v39c0 4-4 6-7 5z m5 43c1 1 2 3 2 5v59c0 33-56 60-125 60s-125-27-125-60v-60c0-2 1-4 2-5 26-19 72-31 122-31 51 0 99 13 124 32z m-191 62c0 15 30 26 68 26s68-11 68-26-30-25-68-25-68 11-68 25z m131 430h-480c-46 0-83-38-83-84v-396c0-46 37-83 83-83h250v23c0 10 3 19 8 26-2 4-4 9-6 14 0 0 0 0 0 0h-274c-11 0-21 9-21 20s10 21 21 21h272v31c0 59 71 102 167 102 65 0 118-20 146-51v293c0 46-37 84-83 84z m-445-226c-5-4-10-6-16-6-6 0-13 3-17 8l-37 43c-8 8-8 20-2 29l38 51c7 10 22 12 32 4 11-7 13-22 5-32l-26-36 25-28c8-10 7-25-2-33z m119 123l-36-130c-3-11-13-17-23-17-2 0-4 0-6 0-12 4-20 17-16 29l36 131c3 12 16 19 28 16 13-4 20-16 17-29z m108-69l-37-50c-5-7-12-10-19-10-5 0-10 2-14 5-10 7-13 22-5 32l26 36-25 28c-8 10-7 25 2 33 10 9 25 8 33-2l38-43c7-8 7-20 1-29z" horiz-adv-x="1000" />

<glyph glyph-name="scheduling" unicode="&#xe836;" d="M688 381c38 0 74-11 104-31v260c0 23-19 42-42 42h-52c-17 0-31-14-31-31s-14-31-32-31-31 14-31 31-14 31-31 31h-188c-17 0-31-14-31-31s-14-31-31-31-31 14-31 31-14 31-32 31h-52c-23 0-41-19-41-42v-458c0-23 18-42 41-42h312c-13 26-20 54-20 84 0 103 84 187 188 187z m10 167c17 0 31-14 31-31s-14-32-31-32-31 14-31 32 14 31 31 31z m-104 0c17 0 31-14 31-31s-14-32-31-32-31 14-31 32 14 31 31 31z m-313-375c-17 0-31 14-31 31s14 31 31 31 32-14 32-31-14-31-32-31z m0 104c-17 0-31 14-31 31s14 32 31 32 32-14 32-32-14-31-32-31z m0 104c-17 0-31 14-31 32s14 31 31 31 32-14 32-31-14-32-32-32z m0 104c-17 0-31 14-31 32s14 31 31 31 32-14 32-31-14-32-32-32z m209 63c17 0 31-14 31-31s-14-32-31-32-32 14-32 32 14 31 32 31z m-105-375c-17 0-31 14-31 31s14 31 31 31 32-14 32-31-14-31-32-31z m0 104c-17 0-31 14-31 31s14 32 31 32 32-14 32-32-14-31-32-31z m0 104c-17 0-31 14-31 32s14 31 31 31 32-14 32-31-14-32-32-32z m0 104c-17 0-31 14-31 32s14 31 31 31 32-14 32-31-14-32-32-32z m73-72c0 17 14 31 32 31s31-14 31-31-14-32-31-32-32 14-32 32z m230-73c-81 0-146-66-146-146s65-146 146-146 145 65 145 146-65 146-145 146z m83-172h-57v-58c0-11-10-20-21-20h-11c-11 0-20 9-20 20v58h-58c-11 0-21 9-21 21v10c0 12 10 21 21 21h58v57c0 12 9 21 20 21h11c11 0 21-9 21-21v-57h57c11 0 21-9 21-21v-10c0-12-10-21-21-21z" horiz-adv-x="1000" />

<glyph glyph-name="shipping" unicode="&#xe837;" d="M781 256v112c0 17-6 33-18 45l-75 75c-13 12-28 18-45 18h-49v47c0 26-21 47-47 47h-313c-25 0-46-21-46-47v-312c0-26 21-47 46-47h16c0-52 41-94 94-94 52 0 94 42 94 94h125c0-52 41-94 93-94 52 0 94 42 94 94h31c18 0 32 14 32 31s-14 31-32 31z m-437-109c-26 0-47 21-47 47s21 47 47 47 47-21 47-47-21-47-47-47z m170 202c0-25-20-45-45-45h-152c-26 0-46 20-46 45v122c0 25 20 46 46 46h45v-76c0-9 7-16 15-16h31c8 0 15 7 15 16v76h46c25 0 45-21 45-46v-122z m142-202c-26 0-47 21-47 47s21 47 47 47 47-21 47-47-21-47-47-47z m63 203h-125v94h49l76-76v-18z" horiz-adv-x="1000" />

<glyph glyph-name="skills-qualifications" unicode="&#xe838;" d="M823 398c-2 6-8 12-15 12h-31c-10 3-17 11-21 21-6 19-12 36-23 52-4 7-2 13 2 19l25 25c7 6 7 15 3 19-19 25-42 48-67 67-6 4-15 4-19-3l-25-25c-6-6-12-6-19-2-23 13-48 23-73 30 0 0 0 0 0 0v43c0 9-6 15-12 15-15 2-31 4-48 4-17 0-31-2-48-4-6-2-12-8-12-15v-46c0 0 0 0 0 0-27-6-50-16-73-29-7-2-13-2-17 4l-25 25c-6 7-15 7-19 3-25-19-48-42-66-67-5-6-5-15 2-19l25-25c4-4 6-12 2-19-9-16-17-33-23-52-4-10-11-18-21-21h-31c-9 0-15-6-15-12-2-15-4-31-4-48 0-17 2-31 4-48 2-6 9-12 15-12h31c10-2 17-11 21-21 6-19 12-36 23-52 4-7 2-13-2-19l-25-25c-7-6-7-15-2-19 18-25 41-48 66-66 7-5 15-5 19 2l25 25c4 4 13 6 19 2 23-13 48-23 73-29 0 0 0 0 0 0v-46c0-9 6-15 12-15 15-2 31-4 48-4 17 0 31 2 48 4 6 2 13 8 13 15v46c0 0 0 0 0 0 27 6 50 16 72 29 7 4 13 2 19-2l25-25c6-7 15-7 19-2 25 18 48 41 67 66 4 6 4 15-2 19l-25 25c-5 4-7 12-3 19 9 16 17 33 23 52 5 10 11 19 21 21h31c9 0 15 6 15 12 2 15 4 31 4 48-4 17-4 31-6 48z m-208-208c-5-5-9-7-15-9 0 0 0 0 0 0-4-2-10-6-15-8l0 0c-27-13-56-21-87-21-31 0-60 8-88 21-4 2-10 4-14 8 0 0 0 0 0 0-4 2-8 7-15 9-48 35-81 93-81 158 0 108 88 198 196 198 108 0 196-90 196-198 4-63-27-121-77-158l0 0z m-115 254c40 0 71-31 71-71s-31-71-71-71-71 31-71 71 34 71 71 71z m44-165h-86c-29 0-54-16-64-41 27-28 66-44 108-44 42 0 79 16 106 44-10 25-35 41-64 41z" horiz-adv-x="1000" />

<glyph glyph-name="suggestion-box" unicode="&#xe839;" d="M724 208h-448c-4 0-8-3-8-8v-143c0-16 14-30 30-30h404c16 0 30 14 30 30v143c0 5-3 8-8 8z m3 116l-47 105c-5 11-16 18-27 18h-41l72 73c8 8 8 21 0 29l-118 118c-8 8-21 8-29 0l-148-147c-8-9-8-22 0-30l43-43h-84c-12 0-23-7-28-18l-47-105c-3-7-5-16-5-24v-40c0-4 4-7 8-7h448c5 0 8 3 8 7v40c0 8-2 17-5 24z m-91 20h-252c-17 0-31 14-31 31s14 31 31 31h89l34-34c8-8 22-8 30 0l34 34h65c18 0 32-14 32-31s-14-31-32-31z" horiz-adv-x="1000" />

<glyph glyph-name="support-contracts" unicode="&#xe83a;" d="M508 421c-3 3-8 3-11 0-6-5-13-13-17-16-1-2-2-3-2-5l-4-52c0-5 4-9 9-9l50 6c2 0 3 1 5 2l16 17c3 3 3 8 0 11l-46 46z m29 40l129 129c3 3 8 3 11 0l46-46c3-3 3-8 0-11l-129-129c-3-3-8-3-11 0l-46 46c-3 3-3 8 0 11z m204-176h-5v130c0 22-3 43-8 63l-54-54c0-3 0-6 0-9v-83h-42c-17 0-31-14-31-32v-140c0-17 14-31 31-31h62c18 0 31 14 31 31v16h16c17 0 31 14 31 31v47c0 17-14 31-31 31z m-483-109h16v-16c0-17 14-31 31-31h62c17 0 31 14 31 31v140c0 18-14 32-31 32h-42v83c0 96 78 175 175 175 30 0 59-8 84-22l46 45c-38 25-82 39-130 39-131 0-237-106-237-237v-130h-5c-17 0-31-14-31-31v-47c0-17 14-31 31-31z m218-69h-31c-11 0-21-7-27-16h-129c-25 0-46 21-46 47 0 9-7 15-16 15s-16-6-16-15c0-43 35-78 78-78h129c6-9 16-16 27-16h31c17 0 31 14 31 32 0 17-14 31-31 31z" horiz-adv-x="1000" />

<glyph glyph-name="surveys" unicode="&#xe83b;" d="M340 569h212c4 0 8 4 8 8v27c0 31-20 40-47 50-13 4-23 17-23 31 0 25-19 44-44 44h-2c-23 0-44-19-44-41 0-15-8-28-23-32-27-10-48-18-48-50v-27c0-8 4-10 11-10l0 0z m343-277l27 27c5 4 9 4 13 0l50-50c4-4 4-9 0-13l-27-27c-4-4-8-4-13 0l-50 50c-4 4-4 11 0 13z m-185-184l142 142c4 4 8 4 12 0l50-50c4-4 4-8 0-12l-139-144c-5-4-9-4-13 0l-50 50c-4 4-4 10-2 14z m167 450c0 19-17 36-36 36h-19c-4 0-8-4-8-9v-52c0-4-4-8-8-8h-300c-4 0-9 4-9 8v52c0 5-4 9-8 9h-17c-18 0-35-17-35-36v-458c0-19 17-35 35-35h136c2 4 4 8 8 10 6 6 25 25 25 25l236 235c0 3 0 223 0 223z m-202-252h-123c-13 0-23 11-23 23 0 13 10 23 23 23h123c12 0 22-10 22-23 0-14-10-23-22-23z m87 88h-210c-13 0-23 10-23 23 0 12 10 23 23 23h212c13 0 23-11 23-23-2-13-12-23-25-23z m-83-331c-4 4-9 4-13 0-6-7-14-15-19-19-2-2-2-4-2-6l-4-57c0-6 4-10 11-10l54 6c2 0 4 2 6 2l19 19c4 4 4 8 0 12-2 3-52 53-52 53z" horiz-adv-x="1000" />

<glyph glyph-name="table-builder" unicode="&#xe83c;" d="M530 289c11 22 28 42 47 58 17 14 37 26 58 34v54h130v-57c23-10 44-23 62-41v202c0 57-46 104-104 104h-461c-57 0-104-47-104-104v-292c0-57 47-104 104-104h257c-6 19-10 39-10 60 0 1 0 2 0 3h-103v83h124z m43 62h-167v84h167v-84z m-167 147v82h167v-82h-167z m359 41v-41h-130v82h88c23 0 42-18 42-41z m-545 0c0 23 19 41 42 41h82v-82h-124v41z m0-104h124v-84h-124v84z m124-229h-82c-23 0-42 18-42 41v42h124v-83z m352 143c-80 0-145-65-145-146s65-146 145-146 146 65 146 146-65 146-146 146z m84-172h-57v-57c0-12-10-21-21-21h-11c-11 0-21 9-21 21v57h-57c-11 0-21 9-21 21v10c0 12 10 21 21 21h57v57c0 12 10 21 21 21h11c11 0 21-9 21-21v-57h57c11 0 21-9 21-21v-10c0-12-10-21-21-21z" horiz-adv-x="1000" />

<glyph glyph-name="territories" unicode="&#xe83d;" d="M802 350c0-167-135-302-302-302s-302 135-302 302 135 302 302 302 302-135 302-302z m-536 75l11-20c10-17 26-30 45-35l67-20c22-5 36-24 36-45v-47c0-13 7-25 18-30 12-6 19-18 19-31v-46c0-19 18-32 36-27 19 6 33 22 38 40l3 13c5 20 18 37 36 47l10 6c17 10 28 29 28 49v10c0 15-6 29-16 40l-5 4c-10 11-25 18-40 18h-52c-12 0-25 2-36 9l-41 23c-5 3-9 8-11 13-4 12 2 24 12 29l7 4c8 4 17 4 24 2l29-9c9-4 20 0 26 8 5 9 5 20-2 27l-16 20c-12 14-12 34 0 48l19 22c10 12 12 29 4 43l-3 5c-5 0-8 0-12 0-110 0-202-71-234-170h0z m448 45l-30-12c-18-8-28-28-22-47l20-60c4-12 14-22 27-25l34-8c2 10 2 21 2 32 0 43-11 84-31 120h0z" horiz-adv-x="1000" />

<glyph glyph-name="tickets" unicode="&#xe83e;" d="M783 355l-278 278c-16 16-37 24-58 24h-192c-35 0-62-27-62-61v-193c0-21 9-42 24-58l278-278c32-32 85-32 117 0l171 171c32 32 32 85 0 117z m-507 168c-23 0-41 19-41 41 0 23 18 41 41 41 22 0 41-18 41-41 0-22-19-41-41-41z m386-334c-17-17-45-17-63 0l-110 111c-15-5-31-7-47-4-38 7-70 36-80 74-4 17-3 33 0 47 2 8 12 10 17 5l47-48h52v52l-48 47c-5 6-3 15 5 17 15 3 30 4 47-1 38-10 68-42 74-80 3-17 1-33-4-48l111-110c8-8 13-20 13-31s-5-22-14-31z" horiz-adv-x="1000" />

<glyph glyph-name="time-off" unicode="&#xe83f;" d="M589 425c-104 0-188-84-188-187s84-188 188-188 187 84 187 188-84 187-187 187z m26-202c0-12-10-22-22-22h-85c-12 0-21 10-21 22s9 21 21 21h64v81c0 12 10 21 21 21s22-9 22-21v-102z m-215 381h163v-34h46v34c0 25-21 46-46 46h-163c-25 0-46-21-46-46v-34h46v34z m189-147c58 0 111-24 151-61v113c0 15-13 27-28 27h-461c-15 0-27-12-27-27v-136c0-29 24-54 54-54h108c32 81 111 138 203 138z m-214-172h-97c-9 0-18 2-27 5v-93c0-15 12-27 27-27h103c-7 21-11 44-11 68 0 16 2 32 5 47z" horiz-adv-x="1000" />

<glyph glyph-name="training" unicode="&#xe840;" d="M264 383c21 4 43 0 67-16 17-11 31-28 37-47 7-19 7-37 3-53-1-5 3-9 8-9h20c4 0 7 2 8 6 10 42 48 73 93 73 45 0 83-31 93-73 1-4 4-6 8-6h20c5 0 9 4 8 9-4 16-4 34 2 52 9 24 27 45 51 56 20 10 39 11 57 8 4-1 9 3 9 8v216c0 18-15 32-32 32h-429c-18 0-32-14-32-32v-216c0-4 4-8 9-8z m394-94c0-36 29-64 64-64s65 28 65 64-29 64-65 64-64-29-64-64z m-222-48c0-35 29-64 64-64 35 0 64 29 64 64 0 35-29 64-64 64-35 0-64-29-64-64z m350-49h-127c-19 0-35-9-44-24-3-3-2-8 2-11 13-10 23-25 28-42 1-3 4-6 7-6h171c8 0 16 7 16 16v15c0 29-24 52-53 52z m-222-47h-128c-29 0-52-24-52-53v-15c0-9 7-16 16-16h200c9 0 16 7 16 16v15c0 29-23 53-52 53z m-179 23c-9 15-25 24-44 24h-127c-29 0-52-23-52-52v-15c0-9 7-16 15-16h171c3 0 6 3 7 6 5 17 15 32 28 42 4 3 5 8 2 11z m-107 57c35 0 64 28 64 64s-29 64-64 64-64-29-64-64 28-64 64-64z" horiz-adv-x="1000" />

<glyph glyph-name="time-tracker" unicode="&#xe841;" d="M681 464s1 1 1 1l34 34c8 8 8 22 0 31-9 8-23 8-31 0l-34-34s0 0-1-1c-40 34-93 55-150 55s-110-21-150-55c0 0-1 1-1 1l-33 33c-9 9-23 9-32 0-8-9-8-23 1-31l33-33s1-1 1-1c-34-41-54-92-54-149 0-130 105-235 235-235s235 105 235 235c0 57-20 109-54 149z m-64-167h-117c-10 0-18 8-18 18v117c0 11 8 19 18 19 10 0 18-8 18-19v-99h99c11 0 19-8 19-18 0-10-8-18-19-18z m-144 279h54c12 0 22 10 22 22 0 12-10 22-22 22h-54c-12 0-22-10-22-22 0-12 10-22 22-22z" horiz-adv-x="1000" />

<glyph glyph-name="travel" unicode="&#xe842;" d="M326 508c7 0 13 2 17 7 6 7 13 14 20 20 9 8 10 22 2 31-9 10-23 11-32 2-8-7-16-15-23-23-9-9-8-23 1-32 5-3 10-5 15-5z m85 63c3 0 6 0 9 2 9 4 17 7 26 10 12 4 18 17 14 29-4 12-17 18-29 14-10-4-20-8-30-13-11-5-16-18-11-30 4-8 12-12 21-12z m117 71h-23v-584h23c161 0 292 132 292 294 0 160-131 290-292 290z m219-178h-74c-9 44-25 82-44 111 51-23 93-62 118-111z m-197 128c32-16 61-61 77-128h-77v128z m0-173h86c2-21 4-43 4-67 0-24-2-46-4-68h-86v135z m0-310v130h77c-16-67-46-114-77-130z m79 16c19 30 35 69 44 114h75c-25-50-68-91-119-114z m52 159c3 22 4 44 4 68 0 23-2 46-4 67h84c7-21 10-44 10-67 0-24-3-46-9-68h-85z m-235-167c-8 3-17 7-25 11-11 5-25 0-30-11-6-11-1-24 10-30 10-5 20-9 30-12 3-1 5-2 8-2 9 0 18 6 21 15 4 12-2 25-14 29z m-102 69c-8 9-23 10-32 2-9-9-10-23-2-32 8-8 15-16 23-23 5-4 10-6 15-6 7 0 13 3 17 7 8 10 8 24-2 32-6 6-13 13-19 20z m-74 239c0 16 14 43 30 43 17 0 30-27 30-43v-31l83-56c4-3 7-7 7-12v-27c0-5-5-9-10-7l-80 27v-38l27-20c2-1 3-3 3-6v-19c0-4-3-7-7-7 0 0-1 0-1 0l-52 15-51-15c-1 0-2 0-2 0-4 0-7 3-7 7v19c0 3 1 5 3 6l27 20v38l-80-27c-5-2-10 2-10 7v27c0 5 3 9 7 12l83 56v31z" horiz-adv-x="1000" />

<glyph glyph-name="work-heat-map" unicode="&#xe843;" d="M296 73h-42c-34 0-62 28-62 62v42c0 34 28 62 62 62h42c34 0 62-28 62-62v-42c0-34-28-62-62-62z m275 62v42c0 34-28 62-63 62h-41c-35 0-63-28-63-62v-42c0-34 28-62 63-62h41c35 0 63 28 63 62z m213 0v42c0 34-28 62-63 62h-42c-34 0-62-28-62-62v-42c0-34 28-62 62-62h42c35 0 63 28 63 62z m-119 234l24 23v-21c0-10-2-20-7-30l-25-57h56l17 37c7 16 11 33 11 51v21l23-24c5-5 12-8 18-8 7 0 13 3 19 8 10 10 10 27 0 37h0l-68 68c-5 5-12 8-18 8s-14-3-18-8l-69-68c-10-11-10-27 0-37 11-11 27-11 37 0z m-198 145l23 24v-21c0-10-2-20-7-30l-32-73c-7-17-11-34-11-51v-31c0-17 3-33 9-48h58l-8 17c-4 9-7 20-7 31v31c0 10 2 20 6 30l33 73c7 16 11 33 11 51v21l23-24c6-5 12-7 19-7 6 0 13 2 18 7 10 11 10 27 0 37l-68 69c-5 5-12 7-18 7-7 0-14-2-18-7l-68-69c-11-10-11-26 0-37 10-10 26-10 37 0z m-199-125l24 24v-21c0-10-3-20-7-30l-32-73c-1-2-1-4-2-5h56l26 57c7 16 11 33 11 51v21l23-24c5-5 12-7 18-7s13 2 19 7c10 11 10 27 0 37l-68 69c-10 10-27 10-37 0l-68-69c-10-10-10-26 0-37 11-10 27-10 37 0z" horiz-adv-x="1000" />

<glyph glyph-name="work-orders" unicode="&#xe844;" d="M729 125h-475c-14 0-26-11-26-25 0-14 12-26 26-26h475c14 0 26 12 26 26 0 14-12 25-26 25z m17 501h-68c-18 0-34-15-34-34 0-19-15-34-34-34s-34 15-34 34c0 19-15 34-33 34h-85c-19 0-34-15-34-34 0-19-16-34-34-34-19 0-34 15-34 34 0 19-16 34-34 34h-68c-19 0-34-15-34-34v-391c0-18 15-34 34-34h492c19 0 34 16 34 34v391c0 19-15 34-34 34z m-379-154c27 0 49-22 49-50s-22-49-49-49-50 22-50 49 22 50 50 50z m82-192c0-7-5-12-11-12h-143c-6 0-11 5-11 12v11c0 23 17 41 37 41h91c20 0 37-18 37-41v-11z m229 11h-152c-12 0-22 9-22 21 0 11 10 21 22 21h152c12 0 22-10 22-21 0-12-10-21-22-21z m0 84h-152c-12 0-22 10-22 22 0 11 10 21 22 21h152c12 0 22-10 22-21 0-12-10-22-22-22z" horiz-adv-x="1000" />

<glyph glyph-name="boards" unicode="&#xe84c;" d="M471 457v-324c0-23-19-41-42-41h-161c-23 0-42 18-42 41v324c0 23 19 42 42 42h161c23 0 42-19 42-42z m273 42h-180c-18 0-32-14-32-32v-180c0-18 14-32 32-32h180c18 0 32 14 32 32v180c0 18-14 32-32 32z m-299 109h-195c-15 0-28-12-28-27s13-28 28-28h195c15 0 28 12 28 28s-13 27-28 27z m114-55h191c15 0 28 12 28 28s-13 27-28 27h-191c-16 0-28-12-28-27s12-28 28-28z" horiz-adv-x="1000" />

<glyph glyph-name="appward-logo" unicode="&#xe850;" d="M805 479v-238c0-17-14-30-31-30h-82c-17 0-30 13-30 30v238c0 16 13 30 30 30h82c17 0 31-14 31-30z m-31-300l-6 0h-76c-17 0-30-14-30-30v-83c0-16 13-30 30-30h82c17 0 31 14 31 30v83c0 16-14 30-31 30z m-174 0h-90c-22 0-43 4-63 12-3 1-7 2-11 2-11 0-20-5-26-14l-44-71c-1-1-1-2-2-4-3-7-3-15-1-23 3-7 9-13 17-17 41-18 84-28 130-28h90c16 0 30 14 30 30v83c0 16-14 30-30 30z m160 361c-59 78-152 124-251 124-64 0-126-20-179-57-69-48-115-120-130-202-14-83 4-166 52-235 22-31 48-57 79-78 0 11 3 23 9 32l44 71c5 8 12 15 20 20-33 26-55 62-63 103-8 45 1 91 27 129 32 46 85 74 142 74 34 0 67-10 96-29 9-7 17-14 25-21v8c0 33 27 61 61 61h68z" horiz-adv-x="1000" />
</font>
</defs>
</svg>
