<?xml version="1.0" encoding="UTF-8"?><svg id="uuid-87573127-0626-429b-9502-740ec647dccf" xmlns="http://www.w3.org/2000/svg" viewBox="0 0 49.8 61.9"><defs><style>.uuid-3b46db5d-2379-4901-8869-7c49e9efac98{fill:#f3701d;}.uuid-8de0521a-946e-4ac6-a8cc-e89404dea2f0{fill:none;}.uuid-2497854c-1ecf-41a8-a73c-40a2e7c9beda{fill:#123543;}</style></defs><path class="uuid-2497854c-1ecf-41a8-a73c-40a2e7c9beda" d="M5.8,5.8L25,.3c4.2-1.2,8.7,1.2,9.9,5.5l5.5,19.2c1.2,4.2-1.2,8.7-5.5,9.9l-19.2,5.5c-4.2,1.2-8.7-1.2-9.9-5.5L.3,15.7C-.9,11.5,1.5,7,5.8,5.8Z"/><path class="uuid-3b46db5d-2379-4901-8869-7c49e9efac98" d="M8,16.2c0-4.5,3.7-8.2,8.2-8.2h23.6c4.5,0,8.2,3.7,8.2,8.2v23.6c0,4.5-3.7,8.2-8.2,8.2H8V16.2Z"/><rect class="uuid-8de0521a-946e-4ac6-a8cc-e89404dea2f0" x="17.8" y="19.8" width="30.2" height="30.2"/></svg>