<?xml version="1.0" encoding="UTF-8"?><svg id="uuid-43002ac3-6aa6-4a72-8df6-119384d13374" xmlns="http://www.w3.org/2000/svg" viewBox="0 0 49.8 61.9"><defs><style>.uuid-e2156aa7-da8f-4552-a4b7-2ebacb68cdcb{fill:#7b81dd;}.uuid-e2b2cc56-f7fb-4f15-97a6-cdf922c3b801{fill:none;}.uuid-4d6826d4-1631-42a0-a8f9-75119d98a76d{fill:#123543;}</style></defs><path class="uuid-4d6826d4-1631-42a0-a8f9-75119d98a76d" d="M5.8,5.8L25,.3c4.2-1.2,8.7,1.2,9.9,5.5l5.5,19.2c1.2,4.2-1.2,8.7-5.5,9.9l-19.2,5.5c-4.2,1.2-8.7-1.2-9.9-5.5L.3,15.7C-.9,11.5,1.5,7,5.8,5.8Z"/><path class="uuid-e2156aa7-da8f-4552-a4b7-2ebacb68cdcb" d="M8,16.2c0-4.5,3.7-8.2,8.2-8.2h23.6c4.5,0,8.2,3.7,8.2,8.2v23.6c0,4.5-3.7,8.2-8.2,8.2H8V16.2Z"/><rect class="uuid-e2b2cc56-f7fb-4f15-97a6-cdf922c3b801" x="17.8" y="19.8" width="30.2" height="30.2"/></svg>