<?xml version="1.0" encoding="UTF-8"?><svg id="uuid-7182be1b-aba6-41ae-91bc-1113f2c9979d" xmlns="http://www.w3.org/2000/svg" viewBox="0 0 49.8 61.9"><defs><style>.uuid-261ad719-5558-47d5-b979-149ba6de752d{fill:#690;}.uuid-36dba494-3130-432d-976b-4fcde72d6bc7{fill:none;}.uuid-47063e76-8858-4271-b10f-baafc55242fa{fill:#123543;}</style></defs><path class="uuid-47063e76-8858-4271-b10f-baafc55242fa" d="M5.8,5.8L25,.3c4.2-1.2,8.7,1.2,9.9,5.5l5.5,19.2c1.2,4.2-1.2,8.7-5.5,9.9l-19.2,5.5c-4.2,1.2-8.7-1.2-9.9-5.5L.3,15.7C-.9,11.5,1.5,7,5.8,5.8Z"/><path class="uuid-261ad719-5558-47d5-b979-149ba6de752d" d="M8,16.2c0-4.5,3.7-8.2,8.2-8.2h23.6c4.5,0,8.2,3.7,8.2,8.2v23.6c0,4.5-3.7,8.2-8.2,8.2H8V16.2Z"/><rect class="uuid-36dba494-3130-432d-976b-4fcde72d6bc7" x="17.8" y="19.8" width="30.2" height="30.2"/></svg>