<?xml version="1.0" encoding="UTF-8"?><svg id="uuid-2bdf21bb-1aaf-4e6b-a4c9-03d22f940db8" xmlns="http://www.w3.org/2000/svg" viewBox="0 0 49.8 61.9"><defs><style>.uuid-87806c84-e088-4d98-8d93-c35ef52e17d9{fill:#db2828;}.uuid-2ae35795-524f-4f2e-b8c0-b7f9a1cdbc8e{fill:none;}.uuid-e1c5bb90-2441-495f-b21a-c446f3127214{fill:#123543;}</style></defs><path class="uuid-e1c5bb90-2441-495f-b21a-c446f3127214" d="M5.8,5.8L25,.3c4.2-1.2,8.7,1.2,9.9,5.5l5.5,19.2c1.2,4.2-1.2,8.7-5.5,9.9l-19.2,5.5c-4.2,1.2-8.7-1.2-9.9-5.5L.3,15.7C-.9,11.5,1.5,7,5.8,5.8Z"/><path class="uuid-87806c84-e088-4d98-8d93-c35ef52e17d9" d="M8,16.2c0-4.5,3.7-8.2,8.2-8.2h23.6c4.5,0,8.2,3.7,8.2,8.2v23.6c0,4.5-3.7,8.2-8.2,8.2H8V16.2Z"/><rect class="uuid-2ae35795-524f-4f2e-b8c0-b7f9a1cdbc8e" x="17.8" y="19.8" width="30.2" height="30.2"/></svg>