<?xml version="1.0" encoding="UTF-8"?><svg id="uuid-e406afae-0d31-476f-ab00-5df29defcbe3" xmlns="http://www.w3.org/2000/svg" viewBox="0 0 49.8 61.9"><defs><style>.uuid-e61d3f78-695b-4174-a920-08665150919b{fill:#fbbd08;}.uuid-9b600716-b359-49e8-aed0-b8bfb0cfa52f{fill:none;}.uuid-d33ec880-876d-4aef-8665-ae1cd2dca459{fill:#123543;}</style></defs><path class="uuid-d33ec880-876d-4aef-8665-ae1cd2dca459" d="M5.8,5.8L25,.3c4.2-1.2,8.7,1.2,9.9,5.5l5.5,19.2c1.2,4.2-1.2,8.7-5.5,9.9l-19.2,5.5c-4.2,1.2-8.7-1.2-9.9-5.5L.3,15.7C-.9,11.5,1.5,7,5.8,5.8Z"/><path class="uuid-e61d3f78-695b-4174-a920-08665150919b" d="M8,16.2c0-4.5,3.7-8.2,8.2-8.2h23.6c4.5,0,8.2,3.7,8.2,8.2v23.6c0,4.5-3.7,8.2-8.2,8.2H8V16.2Z"/><rect class="uuid-9b600716-b359-49e8-aed0-b8bfb0cfa52f" x="17.8" y="19.8" width="30.2" height="30.2"/></svg>