<?xml version="1.0" encoding="UTF-8"?><svg id="uuid-9c29129e-bfab-4202-aa16-a425e30da28e" xmlns="http://www.w3.org/2000/svg" viewBox="0 0 49.8 61.9"><defs><style>.uuid-f79c8702-55fe-4cd2-8d5f-ffc9906528a6{fill:#2185d0;}.uuid-e82e340d-b244-4e0c-82cd-1c6745cc36b1{fill:none;}.uuid-f9afd242-b710-41e4-bcce-59dbbc748054{fill:#123543;}</style></defs><path class="uuid-f9afd242-b710-41e4-bcce-59dbbc748054" d="M5.8,5.8L25,.3c4.2-1.2,8.7,1.2,9.9,5.5l5.5,19.2c1.2,4.2-1.2,8.7-5.5,9.9l-19.2,5.5c-4.2,1.2-8.7-1.2-9.9-5.5L.3,15.7C-.9,11.5,1.5,7,5.8,5.8Z"/><path class="uuid-f79c8702-55fe-4cd2-8d5f-ffc9906528a6" d="M8,16.2c0-4.5,3.7-8.2,8.2-8.2h23.6c4.5,0,8.2,3.7,8.2,8.2v23.6c0,4.5-3.7,8.2-8.2,8.2H8V16.2Z"/><rect class="uuid-e82e340d-b244-4e0c-82cd-1c6745cc36b1" x="17.8" y="19.8" width="30.2" height="30.2"/></svg>