<?xml version="1.0" encoding="UTF-8"?><svg id="uuid-fbe5ed4b-9523-47fc-850c-0b68bc1df198" xmlns="http://www.w3.org/2000/svg" viewBox="0 0 49.8 61.9"><defs><style>.uuid-0b5b30b5-6031-4cfc-b579-9554500dd8de{fill:#ad1771;}.uuid-5233455e-b9dc-470b-b057-1779e9088be9{fill:none;}.uuid-7b2feeca-438e-432f-bcd1-83ef24cd7e9a{fill:#123543;}</style></defs><path class="uuid-7b2feeca-438e-432f-bcd1-83ef24cd7e9a" d="M5.8,5.8L25,.3c4.2-1.2,8.7,1.2,9.9,5.5l5.5,19.2c1.2,4.2-1.2,8.7-5.5,9.9l-19.2,5.5c-4.2,1.2-8.7-1.2-9.9-5.5L.3,15.7C-.9,11.5,1.5,7,5.8,5.8Z"/><path class="uuid-0b5b30b5-6031-4cfc-b579-9554500dd8de" d="M8,16.2c0-4.5,3.7-8.2,8.2-8.2h23.6c4.5,0,8.2,3.7,8.2,8.2v23.6c0,4.5-3.7,8.2-8.2,8.2H8V16.2Z"/><rect class="uuid-5233455e-b9dc-470b-b057-1779e9088be9" x="17.8" y="19.8" width="30.2" height="30.2"/></svg>