<?xml version="1.0" encoding="utf-8"?>
<!-- Generator: Adobe Illustrator 26.4.1, SVG Export Plug-In . SVG Version: 6.00 Build 0)  -->
<svg version="1.1" id="Layer_1" xmlns="http://www.w3.org/2000/svg" xmlns:xlink="http://www.w3.org/1999/xlink" x="0px" y="0px"
	 viewBox="0 0 49.8 61.9" style="enable-background:new 0 0 49.8 61.9;" xml:space="preserve">
<style type="text/css">
	.st0{fill:#123543;}
	.st1{fill:#99CC00;}
	.st2{fill:none;}
</style>
<g id="uuid-5574d734-8819-4102-85dd-b27a6e087bcb">
	<path class="st0" d="M5.8,5.8L25,0.3c4.2-1.2,8.7,1.2,9.9,5.5L40.4,25c1.2,4.2-1.2,8.7-5.5,9.9l-19.2,5.5c-4.2,1.2-8.7-1.2-9.9-5.5
		L0.3,15.7C-0.9,11.5,1.5,7,5.8,5.8z"/>
	<path class="st1" d="M8,16.2C8,11.7,11.7,8,16.2,8h23.6c4.5,0,8.2,3.7,8.2,8.2v23.6c0,4.5-3.7,8.2-8.2,8.2H8V16.2z"/>
</g>
<g id="uuid-fd237338-5436-4761-ac2c-ac1a7e8608d6">
	<rect x="17.8" y="19.8" class="st2" width="30.2" height="30.2"/>
</g>
</svg>
