<svg width="179" height="40" viewBox="0 0 179 40" fill="none" xmlns="http://www.w3.org/2000/svg">
<path d="M61.7437 16.0678V32.1145H57.2339V30.1166C56.0998 31.7011 53.8581 32.4218 52.0669 32.4218C47.9334 32.4218 44.1814 29.221 44.1814 24.0541C44.1814 18.8871 47.9334 15.6863 52.0669 15.6863C53.927 15.6863 56.0945 16.3752 57.2339 17.9915V16.0625H61.7437V16.0678ZM57.0961 24.0541C57.0961 21.5739 55.0293 19.9205 52.9307 19.9205C50.6573 19.9205 48.7654 21.6746 48.7654 24.0541C48.7654 26.4335 50.6573 28.2194 52.9307 28.2194C55.2042 28.2194 57.0961 26.4971 57.0961 24.0541Z" fill="white"/>
<path d="M82.4697 24.0541C82.4697 29.221 78.7177 32.4219 74.5842 32.4219C72.7612 32.4219 70.5566 31.733 69.4173 30.1167V40.0001H64.9075V16.0679H69.4173V17.9969C70.5513 16.3806 72.7559 15.6545 74.5842 15.6545C78.7177 15.6545 82.4697 18.8925 82.4697 24.0541ZM77.8539 24.0541C77.8539 21.7118 75.9938 19.8888 73.7204 19.8888C71.4469 19.8888 69.5551 21.6111 69.5551 24.0541C69.5551 26.4971 71.6218 28.1877 73.7204 28.1877C75.9938 28.1877 77.8539 26.4336 77.8539 24.0541Z" fill="white"/>
<path d="M102.231 24.0541C102.231 29.221 98.4791 32.4219 94.3456 32.4219C92.5226 32.4219 90.318 31.733 89.1786 30.1167V40.0001H84.6688V16.0679H89.1786V17.9969C90.3127 16.3806 92.5173 15.6545 94.3456 15.6545C98.4791 15.6545 102.231 18.8925 102.231 24.0541ZM97.6153 24.0541C97.6153 21.7118 95.7552 19.8888 93.4817 19.8888C91.2083 19.8888 89.3164 21.6111 89.3164 24.0541C89.3164 26.4971 91.3832 28.1877 93.4817 28.1877C95.7552 28.1877 97.6153 26.4336 97.6153 24.0541Z" fill="white"/>
<path d="M127.849 16.0679L122.168 32.1145H118.31L115.003 21.68L111.802 32.1145H107.944L102.088 16.0679H106.979L110.011 25.8453L113.074 16.0679H116.863L119.926 25.8453L122.957 16.0679H127.849Z" fill="white"/>
<path d="M145.342 16.0678V32.1145H140.832V30.1166C139.698 31.7011 137.456 32.4218 135.665 32.4218C131.532 32.4218 127.78 29.221 127.78 24.0541C127.78 18.8871 131.532 15.6863 135.665 15.6863C137.525 15.6863 139.693 16.3752 140.832 17.9915V16.0625H145.342V16.0678ZM140.694 24.0541C140.694 21.5739 138.628 19.9205 136.529 19.9205C134.256 19.9205 132.364 21.6746 132.364 24.0541C132.364 26.4335 134.256 28.2194 136.529 28.2194C138.802 28.2194 140.694 26.4971 140.694 24.0541Z" fill="white"/>
<path d="M160.249 16.1686L159.216 20.4717C158.251 19.9577 157.462 19.8888 156.91 19.8888C154.605 19.8888 153.021 22.0244 153.021 26.6031V32.1145H148.511V16.0679H152.989V19.4754C153.884 16.7886 155.707 15.6545 157.705 15.6545C158.564 15.6545 159.528 15.7923 160.254 16.1686H160.249Z" fill="white"/>
<path d="M178.188 7.49341V32.1092H173.678V30.1113C172.544 31.6958 170.302 32.4166 168.511 32.4166C164.377 32.4166 160.625 29.2157 160.625 24.0488C160.625 18.8819 164.377 15.681 168.511 15.681C170.371 15.681 172.539 16.3699 173.678 17.9863V7.49341H178.188ZM173.54 24.0541C173.54 21.574 171.473 19.9205 169.375 19.9205C167.101 19.9205 165.209 21.6746 165.209 24.0541C165.209 26.4335 167.101 28.2194 169.375 28.2194C171.648 28.2194 173.54 26.4971 173.54 24.0541Z" fill="white"/>
<path d="M29.3852 7.79541H25.2517C24.239 7.79541 23.4181 8.61634 23.4181 9.62901V21.5633C23.4181 22.576 24.239 23.3969 25.2517 23.3969H29.3852C30.3979 23.3969 31.2188 22.576 31.2188 21.5633V9.62901C31.2188 8.61634 30.3979 7.79541 29.3852 7.79541Z" fill="#AFE306"/>
<path d="M29.3852 24.3721H25.2517C24.239 24.3721 23.4181 25.193 23.4181 26.2057V30.3392C23.4181 31.3519 24.239 32.1728 25.2517 32.1728H29.3852C30.3979 32.1728 31.2188 31.3519 31.2188 30.3392V26.2057C31.2188 25.193 30.3979 24.3721 29.3852 24.3721Z" fill="white"/>
<path d="M22.443 30.3445C22.443 31.3567 21.6216 32.1781 20.6094 32.1781H16.0943C13.7784 32.1781 11.505 31.68 9.42231 30.7314C8.40482 30.2703 8.01797 29.025 8.6115 28.0817L10.8267 24.5364C11.2983 23.7838 12.2363 23.4818 13.063 23.805C14.0222 24.1813 15.0503 24.3774 16.0943 24.3774H20.6094C21.6216 24.3774 22.443 25.1988 22.443 26.211V30.3445Z" fill="#AFE306"/>
<path d="M7.82724 27.5941L10.0424 24.0488C10.371 23.5241 10.8585 23.1373 11.4149 22.9306C9.14679 21.3831 7.80074 18.85 7.80074 16.089C7.80074 11.5209 11.5156 7.80604 16.0837 7.80604C18.6645 7.80604 20.9751 8.99311 22.496 10.8479V9.63434C22.496 8.11341 23.7308 6.87864 25.2517 6.87864H29.2687C26.3593 2.7239 21.5368 0 16.089 0C7.21781 0 0 7.21781 0 16.089C0 21.6428 2.79809 26.7144 7.48808 29.6873C7.31849 28.9719 7.43508 28.2194 7.82724 27.5941Z" fill="#AFE306"/>
</svg>
