<?xml version="1.0" encoding="UTF-8"?><svg id="uuid-8fb1311e-44dc-48bb-9d6b-faffc0d0deed" xmlns="http://www.w3.org/2000/svg" viewBox="0 0 48 48"><defs><style>.uuid-649f4e3f-4c19-43f2-99b3-0415d4ab151a{fill:#123543;}</style></defs><path class="uuid-649f4e3f-4c19-43f2-99b3-0415d4ab151a" d="M12.42811,20.26863h-1.10209c-.8115,0-1.46945,.65787-1.46945,1.46945v5.14306c0,.8115,.65794,1.46945,1.46945,1.46945h1.10209c.20286,0,.36736-.1645,.36736-.36736v-7.34723c0-.20293-.1645-.36736-.36736-.36736Zm19.00333-5.22991l-16.53128,4.6494c-.15848,.0446-.26788,.18904-.26788,.3537v8.76929h.00015v2.92031c0,1.19708,.8655,2.21872,2.04628,2.41548l5.3878,.89798c.1349,.02263,.27053,.03372,.40469,.03372,.5747,0,1.13507-.20271,1.58135-.58043,.55038-.4664,.86602-1.14727,.86602-1.86877v-1.02935l6.51619,1.76672c.23357,.06341,.46354-.11256,.46354-.3545V15.39235c0-.24341-.23247-.41953-.46684-.35362Zm-8.71705,17.59067c0,.09368-.04732,.15319-.08677,.18691-.03945,.03336-.10624,.06995-.19808,.05452h-.00066l-5.38846-.89791c-.11836-.01976-.20381-.1213-.20381-.2415v-2.32268l5.87779,1.59369v1.62697Zm13.9596-19.708h-1.46945c-.8115,0-1.46945,.65787-1.46945,1.46945v19.10281c0,.8115,.65794,1.46945,1.46945,1.46945h1.46945c.8115,0,1.46945-.65794,1.46945-1.46945V14.39085c0-.81158-.65794-1.46945-1.46945-1.46945Z"/></svg>