<?xml version="1.0" encoding="UTF-8"?><svg id="a" xmlns="http://www.w3.org/2000/svg" viewBox="0 0 48 48"><defs><style>.b{fill:#123543;}</style></defs><path class="b" d="M19.57692,20.57692H10.5c-.55228,0-1-.44772-1-1V10.5c0-.55228,.44772-1,1-1h9.07692c.55228,0,1,.44772,1,1v9.07692c0,.55228-.44772,1-1,1Zm13.92308-1V10.5c0-.55228-.44772-1-1-1h-9.07692c-.55228,0-1,.44772-1,1v9.07692c0,.55228,.44772,1,1,1h9.07692c.55228,0,1-.44772,1-1Zm-12.92308,12.92308v-9.07692c0-.55228-.44772-1-1-1H10.5c-.55228,0-1,.44772-1,1v9.07692c0,.55228,.44772,1,1,1h9.07692c.55228,0,1-.44772,1-1Zm9.494-9.87585c-.16388-.11743-.35394-.20111-.57092-.20111h-6c-.55231,0-1,.44775-1,1v6.07697c0,.17657,.05798,.33386,.13831,.47784,.64514-3.77917,3.64044-6.74713,7.43262-7.3537Zm8.42908,8.87585c0,3.86597-3.13403,7-7,7s-7-3.13403-7-7,3.13403-7,7-7,7,3.13397,7,7Zm-2,.25v-.5c0-.55231-.44769-1-1-1h-2.75v-2.75c0-.55231-.44769-1-1-1h-.5c-.55231,0-1,.44769-1,1v2.75h-2.75c-.55231,0-1,.44769-1,1v.5c0,.55225,.44769,1,1,1h2.75v2.75c0,.55225,.44769,1,1,1h.5c.55231,0,1-.44775,1-1v-2.75h2.75c.55231,0,1-.44775,1-1Z"/></svg>