<?xml version="1.0" encoding="UTF-8"?><svg id="a" xmlns="http://www.w3.org/2000/svg" viewBox="0 0 48 48"><defs><style>.b{fill:#123543;}</style></defs><path class="b" d="M38.61914,17.82031v11.40723c0,.80078-.65137,1.45215-1.45215,1.45215h-3.95117c-.80078,0-1.45215-.65137-1.45215-1.45215v-11.40723c0-.80078,.65137-1.45215,1.45215-1.45215h3.95117c.80078,0,1.45215,.65137,1.45215,1.45215Zm-1.45215,14.39746l-.2998-.00586h-3.65137c-.80078,0-1.45215,.65234-1.45215,1.45898v3.9502c0,.80078,.65137,1.45312,1.45215,1.45312h3.95117c.80078,0,1.45215-.65234,1.45215-1.45312v-3.9502c0-.80078-.65137-1.45312-1.45215-1.45312Zm-8.38477,0h-4.31543c-1.03418,0-2.0459-.19141-3.00781-.56836-.17188-.06836-.35254-.10254-.53711-.10254-.50488,0-.9668,.25488-1.23438,.68164l-2.11719,3.3877c-.03613,.05762-.06738,.11816-.09375,.17773-.15918,.35547-.16992,.75195-.03125,1.11426,.13965,.36328,.41211,.65039,.76953,.80957,1.97656,.90039,4.07812,1.35645,6.24805,1.35645h4.31543c.7998-.00098,1.45215-.65332,1.45312-1.45312v-3.94727c.00098-.80078-.64941-1.45312-1.44922-1.45605Zm7.68359-17.33008c-2.8418-3.74414-7.29199-5.96191-12.02051-5.96191-3.09766,0-6.08105,.94238-8.62793,2.72461-3.2998,2.30859-5.50195,5.76367-6.20312,9.72852-.7002,3.96484,.18555,7.96582,2.49414,11.26465,1.02832,1.46973,2.28906,2.72559,3.75586,3.74219-.00098-.54688,.15039-1.09082,.44238-1.55859l2.11816-3.38379c.24707-.39453,.58691-.72461,.9834-.96191-1.58496-1.22949-2.65332-2.97363-3.0293-4.96191-.40625-2.15723,.05078-4.34277,1.28809-6.15527,1.53223-2.24512,4.07129-3.58594,6.79297-3.58594,1.6543,0,3.25391,.49512,4.62598,1.43066,.43066,.2959,.83105,.62891,1.19629,.99609v-.38281c.00098-1.61621,1.31641-2.93262,2.93359-2.93457h3.25Z"/></svg>