<?xml version="1.0" encoding="UTF-8"?><svg id="uuid-b99bc4e4-4e42-4a5c-a02c-0338d35f83e4" xmlns="http://www.w3.org/2000/svg" viewBox="0 0 48 48"><defs><style>.uuid-e43222f3-3387-461f-b04a-11622a5c6db6{fill:#123543;}</style></defs><path class="uuid-e43222f3-3387-461f-b04a-11622a5c6db6" d="M36.26852,11.73148H16.98942c-.96943,0-1.75265,.78486-1.75265,1.75265V31.8869c0,.48198-.39215,.87632-.87632,.87632s-.87632-.39435-.87632-.87632V15.23677h-1.75265c-.96779,0-1.75265,.78321-1.75265,1.75265v15.77381c0,1.93613,1.56917,3.50529,3.50529,3.50529h21.03175c1.93613,0,3.50529-1.56917,3.50529-3.50529V13.48413c0-.96779-.78321-1.75265-1.75265-1.75265Zm-11.3922,21.03175h-5.25794c-.48198,0-.87632-.39435-.87632-.87632s.39435-.87632,.87632-.87632h5.25794c.48395,0,.87632,.39226,.87632,.87632,0,.48198-.39435,.87632-.87632,.87632Zm0-5.25794h-5.25794c-.48198,0-.87632-.39435-.87632-.87632s.39435-.87632,.87632-.87632h5.25794c.48198,0,.87632,.39435,.87632,.87632s-.39435,.87632-.87632,.87632Zm8.76323,5.25794h-5.25794c-.48395,0-.87632-.39237-.87632-.87632,0-.48406,.39237-.87632,.87632-.87632h5.25794c.48395,0,.87632,.39226,.87632,.87632,0,.48198-.39435,.87632-.87632,.87632Zm0-5.25794h-5.25794c-.48198,0-.87632-.39435-.87632-.87632s.39435-.87632,.87632-.87632h5.25794c.48198,0,.87632,.39435,.87632,.87632s-.39435,.87632-.87632,.87632Zm.87632-6.13426c0,.48198-.39435,.87632-.87632,.87632h-14.02116c-.48198,0-.87632-.39435-.87632-.87632v-5.25794c0-.48198,.39435-.87632,.87632-.87632h14.02116c.48198,0,.87632,.39435,.87632,.87632v5.25794Z"/></svg>