<?xml version="1.0" encoding="UTF-8"?><svg id="uuid-91a37191-19db-462c-a6e1-476b0c9def18" xmlns="http://www.w3.org/2000/svg" viewBox="0 0 48 48"><defs><style>.uuid-ff9bbe3d-7a73-4411-91a5-bd7d89e1938b{fill:#123543;}</style></defs><path class="uuid-ff9bbe3d-7a73-4411-91a5-bd7d89e1938b" d="M36.44903,27.34131h0c-.62285-.78793-1.76577-.92409-2.55633-.30458l-5.15643,4.04025c-.25614,.20062-.57201,.30975-.89713,.31012l-3.69473,.00364c-.50295,.00051-.9109-.40679-.91126-.90973-.00073-.50287,.40657-.91097,.90951-.91148l3.09606-.00307c1.00596-.00101,1.82048-.8172,1.81946-1.82302-.00109-1.00582-.81707-1.82041-1.82303-1.8194l-7.08867,.00701-.47898,.00051c-.97814,.00095-1.92786,.32977-2.69765,.93392l-2.52923,1.98578c-.15845,.12457-.18584,.35426-.06068,.51249l4.91305,6.21376c.06826,.08654,.17214,.13738,.28243,.13834l5.94349,.04997,1.64295,.01384c.99671,.00838,1.96603-.32403,2.74784-.94208l6.23976-4.93359c.79041-.62497,.92452-1.77226,.29955-2.56266Z"/><rect class="uuid-ff9bbe3d-7a73-4411-91a5-bd7d89e1938b" x="13.39864" y="29.97225" width="2.18543" height="8.46144" rx=".36414" ry=".36414" transform="translate(-18.08891 16.36007) rotate(-38.33052)"/><g><path class="uuid-ff9bbe3d-7a73-4411-91a5-bd7d89e1938b" d="M18.69761,18.48301l7.14893-6.29657c.34949-.30786,.87341-.30786,1.22296-.00006l7.14886,6.29663c.34625,.30487,.86981,.28833,1.19598-.03784,.35706-.35706,.33826-.94147-.04108-1.27484l-7.69379-6.76184c-.69861-.61395-1.74438-.61395-2.44293,0l-7.69385,6.76184c-.37927,.33337-.39807,.91779-.04108,1.27484,.32629,.32617,.84985,.34277,1.19598,.03784Z"/><path class="uuid-ff9bbe3d-7a73-4411-91a5-bd7d89e1938b" d="M26.76426,13.52159c-.17493-.15454-.43756-.15454-.61255,0l-6.74951,5.96222c-.04968,.04388-.07819,.10706-.07819,.1734v4.30347c.11426-.00635,.22668-.02899,.34137-.02911l.47913-.00055,4.38666-.00433v-1.7359c0-.51093,.41418-.92517,.92511-.92517h2.00342c.51099,0,.92517,.41425,.92517,.92517v1.91858c1.25275,.39697,2.23199,1.41571,2.55695,2.69873l1.71729-1.34558c.28351-.22217,.6012-.39185,.93286-.52551v-5.27979c0-.06635-.0285-.12952-.07819-.1734l-6.74951-5.96222Z"/></g></svg>