<?xml version="1.0" encoding="UTF-8"?><svg id="uuid-ad24c0cd-d464-4985-b85f-2ed566216260" xmlns="http://www.w3.org/2000/svg" viewBox="0 0 48 48"><defs><style>.uuid-8b80d1c8-604c-4615-aafa-e0a394cc8f13{fill:#123543;}</style></defs><path class="uuid-8b80d1c8-604c-4615-aafa-e0a394cc8f13" d="M21.25674,36.14862H12.63516c-.21643,0-.39191,.17554-.39191,.39191v.39191c0,.86578,.7019,1.56757,1.56757,1.56757h6.27026c.86572,0,1.56757-.70178,1.56757-1.56757v-.39191c0-.21637-.17548-.39191-.39191-.39191Z"/><path class="uuid-8b80d1c8-604c-4615-aafa-e0a394cc8f13" d="M26.74326,11.85138h6.27026c.21643,0,.39191-.17542,.39191-.39191v-.39191c0-.86578-.7019-1.56757-1.56757-1.56757h-3.91895c-.86566,0-1.56757,.70178-1.56757,1.56757v.39191c0,.21649,.17548,.39191,.39191,.39191Z"/><path class="uuid-8b80d1c8-604c-4615-aafa-e0a394cc8f13" d="M14.98648,11.85138h6.27026c.21643,0,.39191-.17542,.39191-.39191v-.39191c0-.86578-.70184-1.56757-1.56757-1.56757h-3.91888c-.86572,0-1.56757,.70178-1.56757,1.56757v.39191c0,.21649,.17548,.39191,.39185,.39191Z"/><path class="uuid-8b80d1c8-604c-4615-aafa-e0a394cc8f13" d="M35.3649,36.14862h-8.62164c-.21643,0-.39191,.17554-.39191,.39191v.39191c0,.86578,.7019,1.56757,1.56757,1.56757h6.27026c.86572,0,1.56757-.70178,1.56757-1.56757v-.39191c0-.21637-.17548-.39191-.39185-.39191Z"/><path class="uuid-8b80d1c8-604c-4615-aafa-e0a394cc8f13" d="M35.13162,18.4295c-.99524-.2738-1.7262-1.185-1.7262-2.26733v-1.95947c0-.21637-.17548-.39191-.39191-.39191h-6.27026c-.21643,0-.39191,.17554-.39191,.39191v1.17566c0,.43292-.35095,.78381-.78375,.78381h-3.13513c-.4328,0-.78381-.35089-.78381-.78381v-1.17566c0-.21637-.17548-.39191-.39191-.39191h-6.27026c-.21637,0-.39185,.17554-.39185,.39191v1.95947c0,1.08234-.73096,1.99353-1.72626,2.26733-.35803,.09851-.62512,.39447-.62512,.76575v14.60205c0,.21649,.17548,.39191,.39191,.39191h8.62158c.21643,0,.39191-.17542,.39191-.39191v-5.0946c0-.4328,.35101-.78375,.78381-.78375h3.13513c.4328,0,.78375,.35095,.78375,.78375v5.0946c0,.21649,.17548,.39191,.39191,.39191h8.62164c.21637,0,.39185-.17542,.39185-.39191v-14.60205c0-.37128-.26703-.66724-.62512-.76575Zm-9.65631,4.09515c0,.81476-.66046,1.47534-1.47528,1.47534s-1.47534-.66058-1.47534-1.47534v-.9682c0-.81482,.66052-1.4754,1.47534-1.4754s1.47528,.66058,1.47528,1.4754v.9682Z"/></svg>