<?xml version="1.0" encoding="UTF-8"?><svg id="a" xmlns="http://www.w3.org/2000/svg" viewBox="0 0 48 48"><defs><style>.b{fill:#123543;}</style></defs><path class="b" d="M22.58606,18.84851v15.5517c0,1.10455-.89545,2-2,2h-7.73102c-1.10455,0-2-.89545-2-2v-15.5517c0-1.10455,.89545-2,2-2h7.73102c1.10455,0,2,.89545,2,2Zm13.11456-2h-8.63263c-.85559,0-1.54919,.6936-1.54919,1.54919v8.63263c0,.85559,.6936,1.54919,1.54919,1.54919h8.63263c.85559,0,1.54919-.6936,1.54919-1.54919v-8.63263c0-.85559-.6936-1.54919-1.54919-1.54919Zm-14.34515-5.24872H12.01465c-.73926,0-1.33838,.59912-1.33838,1.33838s.59912,1.33838,1.33838,1.33838h9.34082c.73926,0,1.33838-.59912,1.33838-1.33838s-.59912-1.33838-1.33838-1.33838Zm5.45264,2.66602h9.18799c.73291,0,1.32764-.59473,1.32764-1.32764s-.59473-1.32764-1.32764-1.32764h-9.18799c-.73291,0-1.32764,.59473-1.32764,1.32764s.59473,1.32764,1.32764,1.32764Z"/></svg>