<?xml version="1.0" encoding="UTF-8"?><svg id="uuid-d79ab046-1191-4e19-b06b-f88653837104" xmlns="http://www.w3.org/2000/svg" viewBox="0 0 48 48"><defs><style>.uuid-8585f903-feee-4dcd-a582-9d22bb934685{fill:#123543;}</style></defs><path class="uuid-8585f903-feee-4dcd-a582-9d22bb934685" d="M8.3228,15.0518c0,.8432,.6531,1.5099,1.5284,1.5099h28.2956c.8753,0,1.5304-.6667,1.5304-1.5099,0-.8629-.6551-1.51-1.5304-1.51H9.8512c-.8753,0-1.5284,.6471-1.5284,1.51Z"/><path class="uuid-8585f903-feee-4dcd-a582-9d22bb934685" d="M33.5858,34.4582c-1.0742-.0236-1.9382-.9218-1.9382-2.0091-.0233-1.0873,.8407-1.9831,1.9148-2.0068h.0234c1.0975,0,1.9849,.8982,1.9849,2.0068,0,1.1109-.8874,2.0091-1.9849,2.0091Z"/><path class="uuid-8585f903-feee-4dcd-a582-9d22bb934685" d="M24.0582,25.7599c-1.0742,.0496-1.9615-.8037-2.0082-1.8886,0-1.0873,.8406-1.9855,1.9148-2.0352,1.0508,0,1.9148,.8297,1.9382,1.891,.0467,1.0896-.794,1.9878-1.8448,2.0328Z"/><path class="uuid-8585f903-feee-4dcd-a582-9d22bb934685" d="M24.0582,34.3402c-1.0742,.0496-1.9615-.8037-2.0082-1.891,0-1.0873,.8406-1.9831,1.9148-2.0328,1.0508,0,1.9148,.8297,1.9382,1.8934,.0467,1.0873-.794,1.9855-1.8448,2.0304Z"/><path class="uuid-8585f903-feee-4dcd-a582-9d22bb934685" d="M14.461,25.7599c-1.0741,.0496-1.9615-.8037-2.0082-1.8886,0-1.0873,.8407-1.9855,1.9148-2.0352,1.0509,0,1.9149,.8297,1.9382,1.891,.0467,1.0896-.7939,1.9878-1.8448,2.0328Z"/><path class="uuid-8585f903-feee-4dcd-a582-9d22bb934685" d="M14.4374,34.3402c-1.0742,.0496-1.9616-.8037-2.0083-1.891,0-1.0873,.8407-1.9831,1.9149-2.0328,1.0508,0,1.9148,.8297,1.9381,1.8934,.0467,1.0873-.7939,1.9855-1.8447,2.0304Z"/><path class="uuid-8585f903-feee-4dcd-a582-9d22bb934685" d="M31.6711,23.8477c0-1.0873,.8406-1.9619,1.9148-1.9855,1.0508,0,1.8915,.8486,1.9382,1.8909,.0233,1.0873-.8173,1.9856-1.8681,2.0068-1.0742,.0237-1.9616-.8036-1.9849-1.8886v-.0236Z"/></svg>