<?xml version="1.0" encoding="UTF-8"?><svg id="uuid-0fe2d481-a987-4d68-ae16-25a6df1bd88d" xmlns="http://www.w3.org/2000/svg" viewBox="0 0 48 48"><defs><style>.uuid-7f92d5b2-3a36-4992-8b62-59787b4ddcf8{fill:#123543;}</style></defs><rect class="uuid-7f92d5b2-3a36-4992-8b62-59787b4ddcf8" x="13.83017" y="11.75" width="6.47168" height="20.3396" rx="2" ry="2"/><path class="uuid-7f92d5b2-3a36-4992-8b62-59787b4ddcf8" d="M34.79245,13.59906h-13.22644V31.75c0,1.10455-.89545,2-2,2h-5c-1.10455,0-2-.89545-2-2V13.6637c-1.90216,.30865-3.35846,1.94598-3.35846,3.93536v14.65094c0,2.20911,1.79083,4,4,4h21.5849c2.20911,0,4-1.79089,4-4v-14.65094c0-2.20917-1.79089-4-4-4Zm-8.03772,18.9245c0,.55231-.44775,1-1,1h-.77362c-.55231,0-1-.44769-1-1v-.77356c0-.55231,.44769-1,1-1h.77362c.55225,0,1,.44769,1,1v.77356Zm0-5c0,.55231-.44775,1-1,1h-.77362c-.55231,0-1-.44769-1-1v-.77356c0-.55231,.44769-1,1-1h.77362c.55225,0,1,.44769,1,1v.77356Zm4.62262,5c0,.55231-.44769,1-1,1h-.77362c-.55225,0-1-.44769-1-1v-.77356c0-.55231,.44775-1,1-1h.77362c.55231,0,1,.44769,1,1v.77356Zm0-5c0,.55231-.44769,1-1,1h-.77362c-.55225,0-1-.44769-1-1v-.77356c0-.55231,.44775-1,1-1h.77362c.55231,0,1,.44769,1,1v.77356Zm4.62262,5c0,.55231-.44769,1-1,1h-.77356c-.55231,0-1-.44769-1-1v-.77356c0-.55231,.44769-1,1-1h.77356c.55231,0,1,.44769,1,1v.77356Zm0-5c0,.55231-.44769,1-1,1h-.77356c-.55231,0-1-.44769-1-1v-.77356c0-.55231,.44769-1,1-1h.77356c.55231,0,1,.44769,1,1v.77356Zm.01886-5.7547c0,1.10455-.89539,2-2,2h-8.01886c-1.10455,0-2-.89545-2-2v-4.32074c0-1.10461,.89545-2,2-2h8.01886c1.10461,0,2,.89539,2,2v4.32074Z"/></svg>