<?xml version="1.0" encoding="UTF-8"?><svg id="uuid-06213c0b-d3a3-42eb-9b75-8fef20589e47" xmlns="http://www.w3.org/2000/svg" viewBox="0 0 48 48"><defs><style>.uuid-d42e07bc-4fb5-4977-ae9a-f7f7566885f8{fill:#123543;}</style></defs><path class="uuid-d42e07bc-4fb5-4977-ae9a-f7f7566885f8" d="M38.84027,36.18355l-1.36048-4.08129c-.07756-.23274-.05223-.48302,.06009-.7012,1.02244-1.98643,1.44461-4.33156,1.00226-6.80368-.67812-3.78951-3.45313-6.93847-7.05231-8.14603,.92871,2.243,1.21187,4.73682,.74797,7.2106-.94269,5.02792-4.96873,9.01442-10.01834,9.91999-.65363,.11724-1.31392,.17439-1.96936,.19102,1.53358,1.6546,3.58058,2.83072,5.86402,3.24027,2.45685,.44062,4.79117,.03046,6.77142-.97663,.2174-.11051,.46579-.13516,.69725-.05798l4.09686,1.36555c.71736,.23917,1.39971-.44334,1.16062-1.16062Z"/><path class="uuid-d42e07bc-4fb5-4977-ae9a-f7f7566885f8" d="M30.38038,23.31361c1.40191-7.47643-5.01968-13.90527-12.49416-12.51637-4.25553,.79074-7.66588,4.24812-8.42836,8.50879-.44236,2.47212-.02018,4.81724,1.00226,6.80368,.11233,.21817,.13765,.46845,.06009,.7012l-1.36048,4.08129c-.23909,.71728,.44326,1.39979,1.1607,1.16062l4.09679-1.36555c.23146-.07718,.47993-.05254,.69725,.05798,1.98025,1.00709,4.31457,1.41725,6.77142,.97663,4.25024-.76227,7.69884-4.16406,8.49451-8.40827Z"/></svg>