<?xml version="1.0" encoding="UTF-8"?><svg id="uuid-c9bd8584-eeea-4432-af8a-271018f7c3fb" xmlns="http://www.w3.org/2000/svg" viewBox="0 0 48 48"><defs><style>.uuid-935594a1-e772-4a12-82aa-a813e0556bde{fill:#123543;}</style></defs><path class="uuid-935594a1-e772-4a12-82aa-a813e0556bde" d="M15.41319,14.75397h10.16609c.23372,0,.42327-.18954,.42327-.42327v-1.26982c0-1.49441-.96998-1.91184-2.31099-2.36533-.62678-.21206-1.08502-.79567-1.07545-1.45724,.01693-1.15867-.91732-2.10324-2.07208-2.10324h-.08804c-1.12151,0-2.11636,.89116-2.07354,2.0119,.02675,.69857-.41142,1.32501-1.06919,1.54698-1.34558,.454-2.32334,.87084-2.32334,2.36694v1.26982c0,.23373,.18946,.42327,.42327,.42327Z"/><path class="uuid-935594a1-e772-4a12-82aa-a813e0556bde" d="M22.08182,33.86494c0-4.97058,4.02942-9,9-9V15.16163c0-.935-.758-1.69305-1.69305-1.69305h-.91937c-.23376,0-.42328,.18945-.42328,.42328v2.53961c0,.23383-.18958,.42328-.42328,.42328H13.37717c-.2337,0-.42328-.18945-.42328-.42328v-2.53961c0-.23383-.18951-.42328-.42328-.42328h-.91931c-.93512,0-1.69312,.75806-1.69312,1.69305v22.01019c0,.93518,.758,1.69312,1.69312,1.69312h11.98816c-.95764-1.4303-1.51764-3.14941-1.51764-5Zm-3.60181-1c0,.55225-.44769,1-1,1h-3.88c-.55231,0-1-.44775-1-1v-3.88c0-.55231,.44769-1,1-1h3.88c.55231,0,1,.44769,1,1v3.88Zm0-7.56c0,.55225-.44769,1-1,1h-3.88c-.55231,0-1-.44775-1-1v-3.88c0-.55231,.44769-1,1-1h3.88c.55231,0,1,.44769,1,1v3.88Zm2.14911-3.46912c0-.53625,.47021-.97089,1.05054-.97089h5.89893c.5802,0,1.05054,.43463,1.05054,.97089s-.47034,.97089-1.05054,.97089h-5.89893c-.58032,0-1.05054-.43463-1.05054-.97089Z"/><path class="uuid-935594a1-e772-4a12-82aa-a813e0556bde" d="M31.08182,26.86494c-3.86597,0-7,3.13397-7,7s3.13403,7,7,7,7-3.13403,7-7-3.13403-7-7-7Zm4,8.25h-2.75v2.75c0,.55225-.44769,1-1,1h-.5c-.55231,0-1-.44775-1-1v-2.75h-2.75c-.55231,0-1-.44775-1-1v-.5c0-.55231,.44769-1,1-1h2.75v-2.75c0-.55231,.44769-1,1-1h.5c.55231,0,1,.44769,1,1v2.75h2.75c.55231,0,1,.44769,1,1v.5c0,.55225-.44769,1-1,1Z"/><g><path class="uuid-935594a1-e772-4a12-82aa-a813e0556bde" d="M14.55447,25.19013c.15625,.15625,.36035,.23438,.56543,.23438s.40918-.07812,.56543-.23438l2.10059-2.09961c.3125-.31152,.3125-.81836,0-1.13086s-.81836-.3125-1.13086,0l-1.53516,1.53418-.27441-.27441c-.3125-.3125-.81836-.3125-1.13086,0s-.3125,.81836,0,1.13086l.83984,.83984Z"/><path class="uuid-935594a1-e772-4a12-82aa-a813e0556bde" d="M16.65506,29.51924l-1.53516,1.53418-.27441-.27344c-.3125-.3125-.81836-.3125-1.13086,0s-.3125,.81836,0,1.13086l.83984,.83984c.15625,.15625,.36035,.23438,.56543,.23438s.40918-.07812,.56543-.23438l2.10059-2.10059c.3125-.3125,.3125-.81836,0-1.13086s-.81836-.3125-1.13086,0Z"/></g></svg>