<?xml version="1.0" encoding="UTF-8"?><svg id="uuid-fa1d129d-5952-4561-9c36-ab8bb74b6229" xmlns="http://www.w3.org/2000/svg" viewBox="0 0 48 48"><defs><style>.uuid-79c07fab-b177-4f1a-a84e-64606bf4fce1{fill:#123543;}</style></defs><path class="uuid-79c07fab-b177-4f1a-a84e-64606bf4fce1" d="M35.97025,20.276h-5.88019c-.01642,0-.03162,.00446-.04797,.00482V11.75171c0-1.10455-.89545-2-2-2h-8.7254c-1.10455,0-2,.89545-2,2v4.77087h-5.28693c-1.10455,0-2,.89545-2,2v15.07361c0,1.10461,.89545,2,2,2h5.28693v.6521c0,1.10461,.89545,2,2,2h8.7254c1.10455,0,2-.89539,2-2v-.65668c.01636,.00037,.03156,.00482,.04797,.00482h5.88019c1.10455,0,2-.89545,2-2v-11.32043c0-1.10455-.89545-2-2-2Zm-19.10645,9.09631h-3.78809c-.55273,0-1-.44775-1-1s.44727-1,1-1h3.78809c.55273,0,1,.44775,1,1s-.44727,1-1,1Zm0-3.40967h-3.78809c-.55273,0-1-.44775-1-1s.44727-1,1-1h3.78809c.55273,0,1,.44775,1,1s-.44727,1-1,1Zm0-3.40967h-3.78809c-.55273,0-1-.44775-1-1s.44727-1,1-1h3.78809c.55273,0,1,.44775,1,1s-.44727,1-1,1Zm9.40625,9.99512h-5.18066c-.55273,0-1-.44775-1-1s.44727-1,1-1h5.18066c.55273,0,1,.44775,1,1s-.44727,1-1,1Zm0-4.53076h-5.18066c-.55273,0-1-.44775-1-1s.44727-1,1-1h5.18066c.55273,0,1,.44775,1,1s-.44727,1-1,1Zm0-4.53125h-5.18066c-.55273,0-1-.44775-1-1s.44727-1,1-1h5.18066c.55273,0,1,.44775,1,1s-.44727,1-1,1Zm0-4.53076h-5.18066c-.55273,0-1-.44775-1-1s.44727-1,1-1h5.18066c.55273,0,1,.44775,1,1s-.44727,1-1,1Zm0-4.53076h-5.18066c-.55273,0-1-.44775-1-1s.44727-1,1-1h5.18066c.55273,0,1,.44775,1,1s-.44727,1-1,1Zm8.01269,17.46729h-3.78711c-.55273,0-1-.44775-1-1s.44727-1,1-1h3.78711c.55274,0,1,.44775,1,1s-.44726,1-1,1Zm0-3.41016h-3.78711c-.55273,0-1-.44775-1-1s.44727-1,1-1h3.78711c.55274,0,1,.44775,1,1s-.44726,1-1,1Zm0-3.40967h-3.78711c-.55273,0-1-.44775-1-1s.44727-1,1-1h3.78711c.55274,0,1,.44775,1,1s-.44726,1-1,1Z"/></svg>