<?xml version="1.0" encoding="UTF-8"?><svg id="a" xmlns="http://www.w3.org/2000/svg" viewBox="0 0 48 48"><defs><style>.b{fill:#123543;fill-rule:evenodd;}</style></defs><path class="b" d="M24.01313,13.76c2.9182,0,5.2917,2.4237,5.2917,5.4036s-2.3735,5.4036-5.2917,5.4036-5.2917-2.4237-5.2917-5.4036,2.3735-5.4036,5.2917-5.4036Zm-8.7783,19.4073c-.0195,.2781,.0681,.5463,.2529,.7549,.1848,.1986,.4475,.3178,.7101,.3178h15.6019c.2723,0,.5253-.1192,.7101-.3178,.1848-.1987,.2821-.4768,.2529-.7549l-.2671-2.3622c-.1946-2.6124-2.4999-4.6686-5.2625-4.6686h-6.4979c-2.7528,0-5.068,2.0463-5.2625,4.6686l-.2379,2.3622Z"/></svg>