<?xml version="1.0" encoding="UTF-8"?><svg id="uuid-dd2c21bf-945a-456b-b6f8-db035954d572" xmlns="http://www.w3.org/2000/svg" viewBox="0 0 48 48"><defs><style>.uuid-8307a8e5-a2e0-46bf-b544-d7e561c4ed8f{fill:#123543;}</style></defs><path class="uuid-8307a8e5-a2e0-46bf-b544-d7e561c4ed8f" d="M19.93854,22.28625c4.08173,0,7.86755-1.03839,9.88251-2.61859,.10162-.0799,.15631-.20245,.15631-.33173v-4.76489c0-2.64258-4.47205-4.78485-9.98877-4.78485s-9.98859,2.14227-9.98859,4.78485v4.84717c0,.13165,.05719,.25647,.16223,.33575,2.04504,1.54578,5.745,2.53229,9.77631,2.53229Zm.05005-9.76581c3.02026,0,5.46869,.91803,5.46869,2.0506,0,1.13263-2.44843,2.05084-5.46869,2.05084s-5.46844-.91821-5.46844-2.05084c0-1.13257,2.44818-2.0506,5.46844-2.0506Z"/><path class="uuid-8307a8e5-a2e0-46bf-b544-d7e561c4ed8f" d="M23.0014,34.20105c-.74518-.32172-1.3089-1.01044-1.43542-1.84705-.03442-.22778-.06018-.45551-.07776-.68164-.50964,.0293-1.02521,.0484-1.54968,.0484-3.57935,0-6.89288-.71552-9.32996-1.9303-.28003-.13959-.60858,.05304-.60858,.36609v2.10419c0,.01892,.00714,.03717,.008,.05627-.00085,.02527-.008,.05005-.008,.07574,0,2.64264,4.47205,4.78497,9.98859,4.78497,1.26654,0,2.47333-.11749,3.58813-.32343-.08942-.10944-.1922-.20703-.27667-.32062-.50928-.68353-.60022-1.57397-.29865-2.33264Z"/><path class="uuid-8307a8e5-a2e0-46bf-b544-d7e561c4ed8f" d="M37.91809,29.91937c-.02429-.16077-.16675-.27789-.32935-.27789h-.68024c-.21704-.06262-.39081-.23248-.46283-.45819-.12811-.40009-.29736-.7818-.50275-1.14038-.07422-.12958-.05688-.29004,.04871-.39557l.54419-.54431c.11597-.11584,.13361-.30231,.03595-.43365-.4176-.56079-.91467-1.05841-1.47412-1.47742-.13147-.09839-.31842-.08087-.43433,.03528l-.54584,.54572c-.10559,.10559-.26611,.12299-.39569,.04865-.50201-.28735-1.04822-.50378-1.62848-.6355q-.00018,0-.00018-.00006v-1.02692c0-.16284-.11725-.3053-.27832-.32935-.34174-.05115-.69067-.08014-1.04681-.08014-.3562,0-.70514,.02899-1.04706,.08014-.16083,.02405-.27832,.1665-.27832,.32935v1.02692c0,.00006-.00006,.00006-.00006,.00006-.58032,.13171-1.12653,.34814-1.62848,.6355-.12952,.07434-.29004,.05695-.39563-.04865l-.5459-.54572c-.11603-.11615-.30298-.13367-.43427-.03528-.55963,.41901-1.05658,.91663-1.47412,1.47742-.09784,.13135-.08002,.31781,.03583,.43365l.54425,.54431c.10565,.10553,.12292,.26599,.04871,.39557-.20544,.35858-.37457,.7403-.50269,1.14038-.07214,.22571-.24585,.39557-.46301,.45819h-.68005c-.1626,0-.30511,.11713-.32935,.27789-.05255,.34674-.08203,.70099-.08203,1.06238,0,.36133,.02948,.71564,.08203,1.06232,.02423,.16077,.16675,.27789,.32935,.27789h.68005c.21716,.06262,.39087,.23242,.46301,.45813,.12811,.40015,.29724,.7818,.50269,1.14044,.07422,.12958,.05695,.29004-.04871,.39563l-.54425,.54419c-.11584,.11584-.13367,.30231-.03583,.43378,.41754,.56067,.91449,1.05841,1.47412,1.47742,.13129,.09833,.31824,.08081,.43427-.03522l.5459-.54584c.10559-.10559,.26611-.12292,.39563-.04883,.50195,.28741,1.04816,.50409,1.62848,.6355,0,0,.00006,0,.00006,.00012v1.0271c0,.16272,.11749,.30524,.27832,.32935,.34192,.05115,.69086,.08008,1.04706,.08008,.35614,0,.70508-.02893,1.04681-.08008,.16107-.02411,.27832-.16663,.27832-.32935v-1.0271c0-.00012,.00024-.00012,.00024-.00012,.5802-.13141,1.1264-.34808,1.62848-.6355,.12952-.0741,.29004-.05676,.39563,.04883l.54584,.54584c.11591,.11603,.30286,.13354,.43433,.03522,.55945-.41901,1.05652-.91675,1.47412-1.47742,.09766-.13147,.08002-.31793-.03595-.43378l-.54419-.54419c-.10559-.10559-.12292-.26605-.04871-.39563,.20538-.35864,.37463-.7403,.50275-1.14044,.07202-.22571,.24579-.39551,.46283-.45813h.68024c.1626,0,.30505-.11713,.32935-.27789,.05255-.34668,.08191-.70099,.08191-1.06232,0-.36139-.02936-.71564-.08191-1.06238Zm-5.18939,1.37622c-.12799,.83588-.81122,1.51904-1.64703,1.64703-1.34143,.20532-2.4801-.93359-2.27441-2.27496,.12805-.83582,.81122-1.51898,1.64716-1.64685,1.34125-.20532,2.47974,.93353,2.27429,2.27478Z"/><path class="uuid-8307a8e5-a2e0-46bf-b544-d7e561c4ed8f" d="M19.93854,29.64563c.55176,0,1.09656-.02228,1.63391-.05908,.13354-.82562,.69067-1.50555,1.42908-1.82422-.3017-.75879-.21045-1.64911,.29816-2.33215,.42224-.56726,.92346-1.06671,1.46271-1.52441-1.50226,.2926-3.1261,.45563-4.82385,.45563-3.57935,0-6.89288-.71552-9.32996-1.93024-.28003-.13965-.60858,.05304-.60858,.36597v3.98047c0,.13165,.05719,.25647,.16223,.33588,2.04504,1.54565,5.745,2.53217,9.77631,2.53217Z"/></svg>