<?xml version="1.0" encoding="UTF-8"?><svg id="uuid-1db78ea0-ceaf-462b-a39c-484b201e94d8" xmlns="http://www.w3.org/2000/svg" viewBox="0 0 48 48"><defs><style>.uuid-effe2fab-0c77-47c7-bcd3-29473aa8082c{fill:#123543;}</style></defs><path class="uuid-effe2fab-0c77-47c7-bcd3-29473aa8082c" d="M16.78942,16.21118l-2.67712-2.08002c-.15295-.11884-.37305-.09113-.49182,.06171l-5.45825,7.02496c-.11877,.15283-.09119,.37311,.06165,.49188l2.67719,2.08014c.15295,.11877,.37311,.09113,.49188-.06177l5.45831-7.02496c.11877-.15283,.09119-.37317-.06183-.49194Zm-5.24603,5.23926c-.25983,.33459-.74182,.39508-1.07629,.13513-.33466-.25989-.39508-.74188-.13501-1.07648,.25983-.33453,.74188-.39508,1.07629-.13507,.33453,.25995,.39508,.74188,.13501,1.07642Z"/><path class="uuid-effe2fab-0c77-47c7-bcd3-29473aa8082c" d="M39.81609,19.48969l-5.84869-6.20801c-.13275-.14093-.35468-.14752-.49554-.01477l-2.45715,2.315c-.14111,.13275-.14758,.35468-.01477,.49561l5.84851,6.20801c.13287,.14093,.35468,.14752,.49554,.01477l2.4574-2.31506c.14087-.13269,.14758-.35461,.01471-.49554Zm-2.13641,.70514c-.30725,.28955-.79114,.27509-1.08063-.03223-.28967-.30725-.27527-.79108,.03217-1.08063,.30731-.28949,.79114-.27502,1.08063,.03223,.28943,.30725,.27509,.79114-.03217,1.08063Z"/><path class="uuid-effe2fab-0c77-47c7-bcd3-29473aa8082c" d="M25.85289,23.57501l-1.09363,1.00079c-1.54535,1.38751-2.93665,1.76031-3.98694,1.76031-.2691,0-.5163-.0246-.73749-.06262-1.44336-.24921-2.42175-1.17358-2.8634-1.96643-.54083-.86035-.3855-1.94629,.38416-2.65283l4.30841-3.9173c-.50787-.38892-1.10571-.58112-1.70111-.58105-.83771,0-1.66699,.37366-2.22015,1.08838l-4.20654,5.43658c-.34357,.43958-.49817,.99768-.43018,1.55133l.2713,2.20709c.06793,.55371,.35315,1.05768,.79291,1.40106l7.3736,5.74896c.20593,.16058,.45142,.2392,.69531,.2392,.3075,0,.61304-.12476,.83521-.36731l.3316-.36206c.43524-.47528,.38629-1.21759-.10754-1.63159l1.23773,1.03766c.21112,.17688,.46918,.26453,.72687,.26453,.28394,0,.56726-.10645,.78571-.31708l.38116-.36749c.48492-.46753,.45667-1.25262-.06079-1.68396l.91528,.76294c.21075,.1756,.46783,.26245,.72437,.26245,.28711,0,.57312-.1087,.79224-.32336l.3363-.32953c.47217-.46252,.44891-1.22943-.04974-1.66266l.60406,.5224c.21411,.18518,.47754,.27563,.73962,.27563,.32373,0,.64532-.13812,.86945-.40643l.52356-.62726c.40997-.49115,.3316-1.22424-.17291-1.61768l-5.99841-4.68268Z"/><path class="uuid-effe2fab-0c77-47c7-bcd3-29473aa8082c" d="M29.71752,17.48511c-.21979-.22394-.50806-.3678-.81909-.40851l-2.59241-.33948c-.40778-.05334-.81818,.07483-1.12305,.35071l-.61011,.55518-5.83484,5.3053c-.06567,.06018-.21088,.22906-.07874,.43237l.03632,.06055c.22736,.4184,.79224,.95898,1.63782,1.10516,1.00714,.17181,2.1308-.26532,3.24884-1.26941l2.18109-1.99603,6.8631,5.35852,2.13867-2.00562c.5517-.54242,.55969-1.42938,.01776-1.98181l-5.06537-5.16693Z"/></svg>