<?xml version="1.0" encoding="UTF-8"?><svg id="uuid-3bb1d5aa-3e2f-43b2-8a10-e5fadf3576f0" xmlns="http://www.w3.org/2000/svg" viewBox="0 0 48 48"><defs><style>.uuid-6b913ecb-72b9-4233-8d8e-2425740d4c98{fill:#123543;}</style></defs><path class="uuid-6b913ecb-72b9-4233-8d8e-2425740d4c98" d="M30.59644,31.21307c2.58513,0,4.68084-2.0956,4.68084-4.68077,0-2.58496-2.09571-4.68063-4.68084-4.68063-2.58493,0-4.68056,2.09567-4.68056,4.68063,0,2.58517,2.09564,4.68077,4.68056,4.68077Z"/><path class="uuid-6b913ecb-72b9-4233-8d8e-2425740d4c98" d="M22.11856,32.66529H12.86266c-2.14537,0-3.88453,1.79491-3.88453,4.00903v2.2139c0,.20214,.15882,.36605,.35469,.36605H25.6484c.19592,0,.35469-.16392,.35469-.36605v-2.2139c0-2.21412-1.73918-4.00903-3.88453-4.00903Z"/><path class="uuid-6b913ecb-72b9-4233-8d8e-2425740d4c98" d="M17.49047,31.21307c2.58513,0,4.68084-2.0956,4.68084-4.68077,0-2.58496-2.09571-4.68063-4.68084-4.68063-2.58493,0-4.68056,2.09567-4.68056,4.68063,0,2.58517,2.09564,4.68077,4.68056,4.68077Z"/><path class="uuid-6b913ecb-72b9-4233-8d8e-2425740d4c98" d="M37.02187,8.74573H11.06539c-1.10461,0-2,.89539-2,2v6.29755c0,1.10455,.89539,2,2,2h1.35809v3.49115c0,.23114,.28448,.34113,.44,.1701l3.32837-3.66125h15.00464l3.67432,3.67432c.14996,.15002,.40649,.04376,.40649-.1684v-3.50592h1.74457c1.10455,0,2-.89545,2-2v-6.29755c0-1.10461-.89545-2-2-2Zm-15.72052,6.18054H13.27059c-.82861,0-1.5-.67139-1.5-1.5s.67139-1.5,1.5-1.5h8.03076c.82861,0,1.5,.67139,1.5,1.5s-.67139,1.5-1.5,1.5Zm4.73926-.44092c-.28027,.27979-.66992,.43994-1.06006,.43994-.1001,0-.2002-.01025-.29004-.02979-.1001-.02002-.18994-.05029-.27979-.08008-.1001-.04004-.18018-.09033-.26025-.14014-.08984-.06006-.16016-.12012-.22998-.18994-.06982-.07031-.12988-.14014-.18994-.22998-.0498-.08008-.1001-.16992-.14014-.26025-.02979-.08984-.06006-.17969-.08008-.27979-.02002-.08984-.02979-.18994-.02979-.29004s.00977-.18994,.02979-.29004,.05029-.18994,.08008-.27979c.04004-.09033,.09033-.18018,.14014-.26025,.06006-.08008,.12012-.16016,.18994-.22998s.14014-.12988,.22998-.18994c.08008-.0498,.16016-.1001,.26025-.12988,.08984-.04004,.17969-.07031,.27979-.09033,.47998-.09961,1,.06006,1.3501,.41016,.06982,.06982,.12988,.1499,.18994,.22998,.0498,.08008,.1001,.16992,.12988,.26025,.04004,.08984,.07031,.17969,.09033,.27979s.02979,.18994,.02979,.29004c0,.39014-.16016,.77979-.43994,1.06006Zm3.61963,.44092h-.93604c-.82861,0-1.5-.67139-1.5-1.5s.67139-1.5,1.5-1.5h.93604c.82861,0,1.5,.67139,1.5,1.5s-.67139,1.5-1.5,1.5Zm4.80029-.44092c-.27979,.27979-.66016,.43994-1.06006,.43994-.39014,0-.77979-.16016-1.06006-.43994-.27979-.28027-.43994-.66016-.43994-1.06006,0-.1001,.01025-.2002,.03027-.29004,.02002-.1001,.0498-.18994,.08984-.27979,.04004-.09033,.08008-.18018,.14014-.26025,.0498-.08008,.10986-.16016,.17969-.22998,.56006-.56006,1.56006-.56006,2.12012,0,.06982,.06982,.14014,.1499,.18994,.22998,.06006,.08008,.1001,.16992,.14014,.26025,.04004,.08984,.06982,.17969,.08008,.27979,.02002,.08984,.02979,.18994,.02979,.29004,0,.3999-.16016,.77979-.43994,1.06006Z"/><path class="uuid-6b913ecb-72b9-4233-8d8e-2425740d4c98" d="M34.96352,32.66528h-7.20605c.78253,1.13733,1.24567,2.51813,1.24567,4.00903v2.21387c0,.12537-.02356,.24426-.03693,.36609h9.68512c.20465,0,.37054-.16394,.37054-.36603v-2.21393c0-2.21411-1.81702-4.00903-4.05835-4.00903Z"/></svg>