<?xml version="1.0" encoding="UTF-8"?><svg id="uuid-8de8b93d-b269-4736-91ee-fb9d5065cc60" xmlns="http://www.w3.org/2000/svg" viewBox="0 0 48 48"><defs><style>.uuid-8c5d121e-f0d0-4b6a-b471-96801a3802e3{fill:#123543;}</style></defs><path class="uuid-8c5d121e-f0d0-4b6a-b471-96801a3802e3" d="M25.04031,26.34933h-7.14484c-3.02704,0-5.57269,2.24994-5.78656,5.13342l-.2616,2.59735c-.02136,.30585,.07483,.60071,.27802,.83002,.20331,.21851,.492,.34955,.78088,.34955H30.06167c.29944,0,.57758-.13104,.78076-.34955,.20325-.21838,.31018-.52417,.27814-.83002l-.2937-2.59735c-.21393-2.87262-2.74884-5.13342-5.78656-5.13342Z"/><path class="uuid-8c5d121e-f0d0-4b6a-b471-96801a3802e3" d="M21.49972,24.62357c3.2088,0,5.81866-2.66498,5.81866-5.94165s-2.60986-5.94159-5.81866-5.94159-5.81854,2.66498-5.81854,5.94159,2.60986,5.94165,5.81854,5.94165Z"/><path class="uuid-8c5d121e-f0d0-4b6a-b471-96801a3802e3" d="M28.51095,22.38144c2.52319-.09924,4.54944-2.21082,4.54944-4.81134,0-2.66351-2.12146-4.82977-4.7298-4.82977-.45154,0-.87976,.08557-1.29364,.20673,1.46948,1.466,2.37817,3.50238,2.37817,5.73486,0,1.33124-.33112,2.58771-.90417,3.69952Z"/><path class="uuid-8c5d121e-f0d0-4b6a-b471-96801a3802e3" d="M35.91232,27.97543c-.17395-2.33502-2.23456-4.17285-4.7038-4.17285h-3.62677c-.19647,.24023-.4021,.47241-.62439,.68823,3.10022,.75653,5.54712,3.30048,5.91614,6.55487h2.41669c.24341,0,.46954-.10657,.6347-.28412,.16522-.17761,.25226-.42621,.22614-.67474l-.23871-2.11139Z"/></svg>