<?xml version="1.0" encoding="UTF-8"?><svg id="uuid-96068d3e-eddc-4276-9a37-fa242d7ed64e" xmlns="http://www.w3.org/2000/svg" viewBox="0 0 48 48"><defs><style>.uuid-e186cb29-5371-4405-8880-c58a3bd0f365{fill:#123543;}</style></defs><path class="uuid-e186cb29-5371-4405-8880-c58a3bd0f365" d="M29.10334,25.00243c-4.1415,0-7.49878,3.35737-7.49878,7.49878s3.35729,7.49878,7.49878,7.49878,7.49878-3.35729,7.49878-7.49878-3.35729-7.49878-7.49878-7.49878Zm-.36727,6.1705l1.69406,.87144c1.01142,.52075,1.54758,1.58833,1.3662,2.72098-.14139,.87919-.69472,1.57583-1.46543,1.91286v.22546c0,.57524-.46626,1.0415-1.0415,1.0415-.57532,0-1.0415-.46626-1.0415-1.0415v-.15781c-.81287-.27012-1.49901-.87078-1.85678-1.69498-.22946-.528,.013-1.14156,.54025-1.37019,.52891-.22863,1.1424,.013,1.37019,.54033,.17256,.39702,.57449,.62971,1.0065,.59799,.32553-.04883,.40768-.2343,.43126-.38321,.01383-.08788,.03666-.38567-.26279-.53948l-1.69406-.87144c-1.022-.52566-1.5655-1.64198-1.3532-2.77622,.18597-.99517,.88086-1.74197,1.81862-1.99451v-.15522c0-.57524,.46617-1.0415,1.0415-1.0415,.57524,0,1.0415,.46626,1.0415,1.0415v.38569c.65114,.31403,1.18489,.84161,1.48493,1.5305,.22946,.52725-.01225,1.14156-.5395,1.37103-.52966,.22946-1.14073-.01216-1.37103-.5395-.17247-.39702-.57691-.6354-1.0065-.59965-.31328,.03341-.39785,.25471-.42226,.3841-.02116,.11223-.03741,.38894,.25954,.54183Zm.36727-8.2535c1.09507,0,2.14349,.1938,3.12449,.53358V9.28731c0-.6324-.67681-1.03433-1.23197-.73163l-1.84587,1.00625c-.24854,.13556-.54899,.13556-.79754,0l-2.67873-1.46026c-.24879-.13564-.54941-.13556-.79812,.00025l-2.67273,1.45935c-.24888,.13598-.54983,.13589-.79862,0l-2.67148-1.45901c-.24896-.13598-.54991-.13598-.79879,0l-2.67065,1.45885c-.24896,.13598-.55024,.13589-.7992-.00025l-1.8332-1.00252c-.55533-.30368-1.23305,.09817-1.23305,.73107v26.70059c0,.63231,.67689,1.03425,1.23197,.73155l1.84587-1.00625c.24854-.13556,.54899-.13556,.79754,0l2.67882,1.46026c.24879,.13563,.54949,.13556,.79804-.00025l1.56958-.85694c-.51083-1.17073-.79812-2.46035-.79812-3.81713,0-5.28341,4.29839-9.58178,9.58178-9.58178Zm-14.5813-7.66834c0-.57532,.46626-1.0415,1.0415-1.0415h12.29459c.57524,0,1.0415,.46617,1.0415,1.0415,0,.57522-.46626,1.0415-1.0415,1.0415H15.56353c-.57524,0-1.0415-.46628-1.0415-1.0415Zm1.0415,3.12449h12.29459c.57524,0,1.0415,.46617,1.0415,1.0415,0,.57522-.46626,1.0415-1.0415,1.0415H15.56353c-.57524,0-1.0415-.46628-1.0415-1.0415,0-.57532,.46626-1.0415,1.0415-1.0415Zm1.2498,10.41498h-1.2498c-.57524,0-1.0415-.46628-1.0415-1.0415,0-.57532,.46626-1.0415,1.0415-1.0415h1.2498c.57532,0,1.0415,.46617,1.0415,1.0415,0,.57522-.46617,1.0415-1.0415,1.0415Zm-1.2498-4.16599c-.57524,0-1.0415-.46628-1.0415-1.0415,0-.57532,.46626-1.0415,1.0415-1.0415h3.68999c.57532,0,1.0415,.46617,1.0415,1.0415,0,.57522-.46617,1.0415-1.0415,1.0415h-3.68999Z"/></svg>