<?xml version="1.0" encoding="UTF-8"?><svg id="uuid-8fa3dbcd-d9e5-4963-9749-f3e47eb6141a" xmlns="http://www.w3.org/2000/svg" viewBox="0 0 48 48"><defs><style>.uuid-133ac11e-ffc5-4d99-b196-55b7fe2cfbb9{fill:#123543;}</style></defs><path class="uuid-133ac11e-ffc5-4d99-b196-55b7fe2cfbb9" d="M38.54565,35.94165l-1.33344-4.00018c-.07605-.22821-.05121-.47351,.0589-.68732,1.00208-1.94696,1.41595-4.24561,.98236-6.66858-.66473-3.71429-3.38458-6.80072-6.91229-7.98438,.91022,2.19843,1.18781,4.64276,.73309,7.06744-.92389,4.9281-4.87012,8.83551-9.81946,9.72314-.64069,.11487-1.2879,.17084-1.9303,.18719,1.50317,1.6217,3.50952,2.77454,5.74762,3.1759,2.40808,.43182,4.69611,.02985,6.63708-.95728,.21301-.10828,.45654-.13239,.68335-.05682l4.01544,1.3385c.70312,.23438,1.37201-.43451,1.13763-1.13763Z"/><path class="uuid-133ac11e-ffc5-4d99-b196-55b7fe2cfbb9" d="M30.25372,23.32727c1.37415-7.32806-4.9201-13.62921-12.24603-12.26794-4.17114,.77502-7.51373,4.16382-8.26111,8.3399-.43359,2.42297-.01971,4.72162,.98236,6.66858,.11011,.21381,.13489,.45917,.05896,.68732l-1.33356,4.00024c-.23431,.70306,.43457,1.37195,1.13763,1.13763l4.0155-1.3385c.22675-.07556,.47046-.05151,.68341,.05682,1.94098,.98706,4.22888,1.3891,6.63696,.95721,4.16589-.74707,7.54608-4.08136,8.32587-8.24127Zm-14.77679-4.33069h8.89081c.5116,0,.92609,.41461,.92609,.92615,0,.5116-.41449,.92609-.92609,.92609H15.47693c-.51154,0-.92615-.41449-.92615-.92609,0-.51154,.41461-.92615,.92615-.92615Zm5.18628,5.55676h-5.18628c-.51154,0-.92615-.41455-.92615-.92615,0-.51147,.41461-.92609,.92615-.92609h5.18628c.5116,0,.92615,.41461,.92615,.92609,0,.5116-.41455,.92615-.92615,.92615Z"/></svg>