<?xml version="1.0" encoding="UTF-8"?><svg id="uuid-4202233c-cc11-48a2-b516-8ef5397c8d07" xmlns="http://www.w3.org/2000/svg" viewBox="0 0 48 48"><defs><style>.uuid-303fcd1c-af30-4228-827a-191fca0b2a76{fill:#123543;}</style></defs><path class="uuid-303fcd1c-af30-4228-827a-191fca0b2a76" d="M39.38691,37.60375l-11.04652-19.49381c-.58092-1.02506-2.06419-1.00613-2.61871,.03348l-4.52075,8.47656,2.41759,4.2308c.45933,.8039,.29622,1.79524-.34092,2.4129-.27595-.04183-.34831-.0528-.62426-.09463l-4.75892-8.32833c-.58601-1.0253-2.07357-.9981-2.62141,.04803l-6.66589,12.72573c-.13034,.24875,.05002,.54704,.33098,.54704h30.12378c.28636,0,.46617-.30879,.32501-.55778ZM26.85442,15.00749c0,.21964,.17797,.39762,.39762,.39762h7.48538c.33972,0,.52303-.39841,.30187-.65639l-1.60128-1.86816c-.12756-.14887-.12756-.36859,0-.51754l1.60128-1.86816c.22115-.25789,.03785-.65639-.30187-.65639h-7.48538c-.21964,0-.39762,.17805-.39762,.39762v4.7714Z"/></svg>