<?xml version="1.0" encoding="UTF-8"?><svg id="uuid-f8b72b06-ae48-4325-b389-55ee7124424f" xmlns="http://www.w3.org/2000/svg" viewBox="0 0 48 48"><defs><style>.uuid-b548fb1f-02b4-4612-917b-31c74d71cc18{fill:#9c0;}.uuid-b765fc24-35de-4486-867e-a4001d155ea5{fill:#123543;}</style></defs><circle class="uuid-b548fb1f-02b4-4612-917b-31c74d71cc18" cx="27.27766" cy="19.72652" r="2.06204"/><path class="uuid-b548fb1f-02b4-4612-917b-31c74d71cc18" d="M27.32486,21.2499c-.39747,0-.73363-.13742-1.00847-.41227-.27485-.27485-.41227-.611-.41227-1.00847s.13742-.73363,.41227-1.00847c.27485-.27485,.611-.41227,1.00847-.41227s.73363,.13742,1.00847,.41227c.27485,.27485,.41227,.611,.41227,1.00847s-.13742,.73363-.41227,1.00847c-.27485,.27485-.611,.41227-1.00847,.41227Z"/><path class="uuid-b765fc24-35de-4486-867e-a4001d155ea5" d="M24.0497,12.51338c0-.43299,.29266-.79546,.76763-.79546,5.93474,0,10.74682,4.81208,10.74682,10.74682,0,.43179-.36462,.76763-.79641,.76763h-10.71803V12.51338Zm-13.0497,12.25425c0-5.81959,4.32271-10.63455,9.88803-11.4065,.48457-.06045,.85879,.29314,.85879,.73692v11.4372l7.50838,7.50838c.32145,.32145,.29746,.84919-.07197,1.11306-1.88069,1.33855-4.18358,2.12537-6.66878,2.12537-6.35693,0-11.51445-5.15271-11.51445-11.51445Zm25.25502,.76763c.44138,0,.79641,.37422,.73884,.81561-.36942,2.68191-1.6648,5.06636-3.54549,6.82711-.28786,.23029-.73884,.24948-1.01711-.02878l-7.61393-7.61393h11.43768Z"/></svg>