<?xml version="1.0" encoding="UTF-8"?><svg id="uuid-537fc8a7-41b7-436f-98f9-50e29a315be6" xmlns="http://www.w3.org/2000/svg" viewBox="0 0 48 48"><defs><style>.uuid-ddac8e61-63c1-4cb6-a29e-b4d59a80d9ee{fill:#123543;}</style></defs><path class="uuid-ddac8e61-63c1-4cb6-a29e-b4d59a80d9ee" d="M30,10h-5v10.67078l1.46875-1.39539c.40088-.38086,1.03418-.36426,1.41406,.03613,.38037,.40039,.36426,1.0332-.03613,1.41309l-3.15771,3c-.00635,.00604-.01483,.00775-.0213,.01361-.08038,.07281-.16998,.13629-.27313,.18073-.00482,.00208-.01013,.0011-.01501,.00311-.12177,.05005-.25006,.07794-.37952,.07794-.12939,0-.2569-.02698-.37689-.07593-.03674-.01495-.06616-.04529-.10132-.06476-.07275-.04047-.1485-.0755-.21075-.1347l-3.15771-3c-.40039-.37988-.4165-1.0127-.03613-1.41309,.38232-.40039,1.01367-.41699,1.41406-.03613l1.46875,1.39551V10h-5c-2.20911,0-4,1.79083-4,4v20c0,2.20911,1.79089,4,4,4h12c2.20917,0,4-1.79089,4-4V14c0-2.20917-1.79083-4-4-4Zm-.10522,26h-11.78949c-1.10455,0-2-.89545-2-2,0-1.10461,.89545-2,2-2h11.78949c1.10455,0,2,.89539,2,2,0,1.10455-.89545,2-2,2Z"/><path class="uuid-ddac8e61-63c1-4cb6-a29e-b4d59a80d9ee" d="M20.70996,33.29004c-.05029-.04004-.1001-.08984-.1499-.12012-.06006-.04004-.12012-.07031-.18018-.08984-.06006-.03027-.12012-.0498-.18018-.06055-.33008-.06934-.67969,.04004-.90967,.27051-.09033,.09961-.16016,.2002-.21045,.33008-.0498,.12012-.07959,.25-.07959,.37988s.02979,.25977,.07959,.37988c.05029,.12012,.12012,.22949,.21045,.33008,.18994,.18945,.43994,.29004,.70996,.29004,.12988,0,.25977-.03027,.37988-.08008s.22998-.12012,.33008-.20996c.08984-.10059,.15967-.20996,.21973-.33008,.05029-.12012,.07031-.25,.07031-.37988s-.02002-.25977-.08008-.37988c-.05029-.12988-.12012-.23047-.20996-.33008Z"/></svg>