<?xml version="1.0" encoding="UTF-8"?><svg id="uuid-6e11e7f5-799b-448f-bf32-9a6db5e27a49" xmlns="http://www.w3.org/2000/svg" viewBox="0 0 48 48"><defs><style>.uuid-9d30a6cf-7222-40f8-af61-8ef7ecad428a{fill:#123543;}</style></defs><path class="uuid-9d30a6cf-7222-40f8-af61-8ef7ecad428a" d="M17.01389,12.64757c0-1.44689,1.17345-2.61979,2.61979-2.61979h2.61979v4.36632c0,.48248,.39297,.87326,.87326,.87326h1.74653c.48029,0,.87326-.39079,.87326-.87326v-4.36632h2.61979c1.44634,0,2.61979,1.1729,2.61979,2.61979v6.98611c0,1.44634-1.17345,2.61979-2.61979,2.61979h-8.73264c-1.44634,0-2.61979-1.17345-2.61979-2.61979v-6.98611Z"/><path class="uuid-9d30a6cf-7222-40f8-af61-8ef7ecad428a" d="M13.52084,25.74653v4.36632c0,.48029,.39297,.87326,.87326,.87326h1.74653c.4803,0,.87326-.39297,.87326-.87326v-4.36632h2.61979c1.44634,0,2.61979,1.17345,2.61979,2.61979v6.98611c0,1.44634-1.17345,2.61979-2.61979,2.61979H10.90104c-1.44689,0-2.6198-1.17345-2.6198-2.61979v-6.98611c0-1.44634,1.17291-2.61979,2.6198-2.61979h2.61979Z"/><path class="uuid-9d30a6cf-7222-40f8-af61-8ef7ecad428a" d="M30.98611,25.74653v4.36632c0,.48029,.39297,.87326,.87326,.87326h1.74653c.48029,0,.87326-.39297,.87326-.87326v-4.36632h2.61979c1.44634,0,2.61979,1.17345,2.61979,2.61979v6.98611c0,1.44634-1.17345,2.61979-2.61979,2.61979h-8.73264c-1.44634,0-2.61979-1.17345-2.61979-2.61979v-6.98611c0-1.44634,1.17345-2.61979,2.61979-2.61979h2.61979Z"/></svg>