<?xml version="1.0" encoding="UTF-8"?><svg id="uuid-28614156-1667-45dc-9c7f-e45c9c3ede83" xmlns="http://www.w3.org/2000/svg" viewBox="0 0 48 48"><defs><style>.uuid-bb45db58-8bf0-4737-8ad6-5958ebbd5ecb{fill:#123543;}</style></defs><path class="uuid-bb45db58-8bf0-4737-8ad6-5958ebbd5ecb" d="M28.51653,21.40082c-4.97052,0-9,4.02936-9,9s4.02948,9,9,9,9-4.02942,9-9-4.02942-9-9-9Zm1.25,9.72656c0,.56525-.45819,1.02344-1.02344,1.02344h-4.09375c-.56525,0-1.02344-.45819-1.02344-1.02344s.45819-1.02344,1.02344-1.02344h3.07031v-3.88904c0-.56531,.45819-1.02344,1.02344-1.02344s1.02344,.45813,1.02344,1.02344v4.91248Z"/><g><path class="uuid-bb45db58-8bf0-4737-8ad6-5958ebbd5ecb" d="M19.69317,19.93396c3.06067,0,5.55011-2.54199,5.55011-5.66736s-2.48944-5.66742-5.55011-5.66742-5.54999,2.54199-5.54999,5.66742,2.48938,5.66736,5.54999,5.66736Z"/><path class="uuid-bb45db58-8bf0-4737-8ad6-5958ebbd5ecb" d="M22.84166,21.58008h-6.58643c-2.88727,0-5.31549,2.14612-5.51947,4.89648l-.24951,2.47754c-.02039,.29169,.07141,.573,.2652,.79169,.19391,.20837,.4693,.33337,.74481,.33337h6.53668c.10883-3.56427,1.99585-6.68304,4.80872-8.49908Z"/></g></svg>