<?xml version="1.0" encoding="UTF-8"?><svg id="uuid-68ce0e2f-b721-487e-9154-2853dd7ddd62" xmlns="http://www.w3.org/2000/svg" viewBox="0 0 48 48"><defs><style>.uuid-9ce8b21e-e9aa-43c9-b561-331ee0433f48{fill:#123543;}</style></defs><path class="uuid-9ce8b21e-e9aa-43c9-b561-331ee0433f48" d="M36.0927,18.595l-10.51642-6.55412c-.9648-.60127-2.1876-.60127-3.15248,0l-10.5165,6.55412c-.80048,.49883-1.28484,1.3607-1.28484,2.28634v12.81428c0,1.49918,1.24785,2.71445,2.78706,2.71445h21.18096c1.53921,0,2.78706-1.21527,2.78706-2.71445v-12.81428c0-.92564-.48428-1.78751-1.28484-2.28634Zm-15.51845,10.8243l-6.51503,5.06725c-.16505,.12871-.36093,.19088-.55494,.19088-.26972,0-.53655-.12017-.71506-.34919-.30679-.39445-.23577-.96285,.15868-1.26964l6.51503-5.06725c.39445-.30751,.96321-.23541,1.27,.15832,.30679,.39445,.23577,.96285-.15868,1.26964Zm2.56468-2.12622l-8.25209-5.84335c-.91334-.64679-.4436-2.05403,.68574-2.05403h16.85505c1.12927,0,1.59908,1.40725,.68574,2.05403l-8.25216,5.84335c-.51599,.36535-1.20637,.36535-1.72229,0Zm12.07185,7.03515c-.17851,.22903-.44534,.34919-.71506,.34919-.194,0-.38953-.06217-.55494-.19088l-6.51503-5.06725c-.39445-.30679-.46546-.87519-.15868-1.26964,.30679-.39373,.87446-.46582,1.27-.15832l6.51503,5.06725c.39445,.30679,.46546,.87519,.15868,1.26964Zm-7.95327-13.2238h-5.79114c-.59982,0-1.08584,.4864-1.08584,1.08584s.48602,1.08584,1.08584,1.08584h5.79114c.59982,0,1.08584-.48637,1.08584-1.08584s-.48602-1.08584-1.08584-1.08584Z"/></svg>