<?xml version="1.0" encoding="UTF-8"?><svg id="uuid-0d9d353b-185a-437b-ae3e-9b63388fad08" xmlns="http://www.w3.org/2000/svg" viewBox="0 0 48 48"><defs><style>.uuid-46e5404b-0528-4434-8bb7-542b02edc39a{fill:#123543;}</style></defs><path class="uuid-46e5404b-0528-4434-8bb7-542b02edc39a" d="M33.15046,16.05066c-3.32837,0-6.01147,2.75421-5.88135,6.10144-.00189,.00195-.00287,.00287-.00476,.00482-2.49481,0-4.64233,1.48767-5.60364,3.62433,0,0-2.07343-1.70502-2.07343-2.60065v-2.0473h2.55908c.84802,0,1.53546-.68744,1.53546-1.53546v-.55872c0-.3031-.08972-.59949-.25787-.85175l-.92206-1.383c-.51208-.76819-1.47498-1.09851-2.35083-.80658l-4.79395,1.59796c-.836,.27869-1.39984,1.06104-1.39984,1.9422v7.73712c0,3.42279,5.8056,10.23639,6.65363,10.23639h2.55908c5.69794,0,10.40741-4.23236,11.15619-9.72473l.0105-.11908c2.68207-.54718,4.69965-2.91309,4.69965-5.74884,0-3.24091-2.63519-5.86816-5.88586-5.86816Zm-6.90955,18.36609c-.55273,0-1-.44727-1-1s.44727-1,1-1c1.42383,0,2.58301-1.15918,2.58301-2.58301,0-.55273,.44727-1,1-1s1,.44727,1,1c0,2.52734-2.05566,4.58301-4.58301,4.58301Z"/><path class="uuid-46e5404b-0528-4434-8bb7-542b02edc39a" d="M11.96552,23.15698c-.19824,0-.39941-.05859-.57422-.18164l-2.00293-1.4082c-.24512-.17285-.39941-.44531-.42188-.74316-.02246-.29883,.08984-.59082,.30566-.79785l1.21094-1.1582-.81641-1.46191c-.14551-.26074-.16699-.57324-.05762-.85254,.1084-.27832,.33691-.49316,.62109-.58594l1.59277-.51855-.10059-1.6709c-.01855-.29883,.09863-.58984,.31738-.79297s.51172-.29688,.81445-.25879l1.65918,.22363,.63477-1.5498c.11328-.27637,.34473-.48828,.63086-.57617,.28613-.08984,.59473-.04297,.8457,.12012l1.39844,.92188,1.24316-1.12109c.22363-.2002,.52246-.28809,.81836-.24609,.2959,.04492,.55664,.21973,.70996,.47559l.85938,1.43848,1.60742-.4707c.29004-.08203,.59766-.03418,.84473,.13379s.40527,.43848,.43262,.73633l.21973,2.43848c.0498,.5498-.35645,1.03613-.90625,1.08594-.53809,.05176-1.03613-.35547-1.08594-.90625l-.11035-1.22656-1.18164,.3457c-.43652,.12793-.9043-.05566-1.13965-.44629l-.63281-1.05859-.91406,.8252c-.33887,.30566-.83984,.3418-1.2207,.0918l-1.02832-.67871-.4668,1.14062c-.17285,.4209-.61523,.66992-1.05957,.6123l-1.2207-.16504,.07422,1.22949c.02734,.45508-.25586,.87012-.68848,1.01172l-1.17188,.38086,.60059,1.07617c.22168,.39746,.14746,.89551-.18164,1.20996l-.89062,.85156,1.00781,.70801c.45215,.31836,.56055,.94141,.24316,1.39355-.19531,.27637-.50488,.4248-.81934,.4248Z"/></svg>