<?xml version="1.0" encoding="UTF-8"?><svg id="uuid-c70ce343-8299-4d0e-b232-ef760134a8b3" xmlns="http://www.w3.org/2000/svg" viewBox="0 0 48 48"><defs><style>.uuid-b3b6d683-5a3b-4b12-924a-7ece916c1123{fill:#123543;}</style></defs><path class="uuid-b3b6d683-5a3b-4b12-924a-7ece916c1123" d="M31.92484,25.46156h-15.67014c-.86141,0-1.55899-.6759-1.55899-1.50621,0-.83041,.69758-1.50815,1.55899-1.50815h15.67014c.85952,0,1.5591,.67773,1.5591,1.50815,0,.83031-.69958,1.50621-1.5591,1.50621Z"/><path class="uuid-b3b6d683-5a3b-4b12-924a-7ece916c1123" d="M31.92516,34.28658h-15.67014c-.59961,.07721-1.17927-.21245-1.49913-.69518-.31976-.5021-.31976-1.13935,0-1.62217,.31986-.502,.89952-.77238,1.49913-.71445h15.67014c.79744,.07721,1.39906,.73383,1.39906,1.52559,0,.77044-.60162,1.429-1.39906,1.50621Z"/><path class="uuid-b3b6d683-5a3b-4b12-924a-7ece916c1123" d="M16.2547,13.7204v-.01938h5.97427c.86141,0,1.561,.6759,1.561,1.50438,0,.85163-.69958,1.52743-1.561,1.52743h-5.97427c-.86141,0-1.55899-.6758-1.55899-1.50621,0-.83031,.69758-1.50621,1.55899-1.50621Z"/></svg>