<?xml version="1.0" encoding="UTF-8"?><svg id="uuid-83e8f613-7e77-4cc9-bcd9-8c4f4e17f851" xmlns="http://www.w3.org/2000/svg" viewBox="0 0 48 48"><defs><style>.uuid-34dadb17-14b0-4c59-b55d-55623ffea693{fill:#123543;}</style></defs><path class="uuid-34dadb17-14b0-4c59-b55d-55623ffea693" d="M20.2189,24.34523c.00946-1.41876,.681-2.74766,1.81601-3.59891l11.19399-8.39881c.87963-.6601,2.10449-.59446,2.91318,.15583,.80396,.75005,.95057,1.96923,.35469,2.89285l-7.6471,11.8244c-.71884,1.11609-1.88695,1.84911-3.17802,2.03355l-5.45276-4.9089Zm4.54002,6.4648c0,2.92737-2.36932,5.29669-5.29669,5.29669h-6.81003c-.83565,0-1.51334-.67627-1.51334-1.51334s.67769-1.51334,1.51334-1.51334h.22747c.83376,0,1.39937-.89382,1.31377-1.72143-.01844-.17971-.0279-.36415-.0279-.54859,0-2.85643,2.26528-5.18792,5.09334-5.29196l5.49059,4.93727c.00473,.07567,.00946,.23646,.00946,.35469h0Z"/></svg>