<?xml version="1.0" encoding="UTF-8"?><svg id="uuid-c074e818-925a-4ee9-ba48-913f4f39a9dd" xmlns="http://www.w3.org/2000/svg" viewBox="0 0 48 48"><defs><style>.uuid-bfc6f801-837f-4b8b-ab0a-aa3c80c6daab{fill:#123543;}</style></defs><path class="uuid-bfc6f801-837f-4b8b-ab0a-aa3c80c6daab" d="M27.49576,23.04394l-1.81412-1.81412c-.01166,.01333-.01592,.03017-.02869,.04294l-4.38199,4.38199c-.01203,.01203-.02795,.0161-.04072,.02702l1.81341,1.81341c.01111-.01259,.01499-.02869,.02702-.04072l4.38199-4.38199c.01296-.01277,.0298-.01703,.04313-.0285l-.00003-.00003Z"/><path class="uuid-bfc6f801-837f-4b8b-ab0a-aa3c80c6daab" d="M33.15208,28.69977l-1.81412-1.81412c-.01166,.01333-.01592,.03017-.02869,.04294l-4.38199,4.38199c-.01203,.01203-.02795,.0161-.04072,.02702l1.81341,1.81341c.01111-.01259,.01499-.02869,.02702-.04072l4.38199-4.38199c.01296-.01277,.0298-.01703,.04313-.0285l-.00003-.00003Z"/><path class="uuid-bfc6f801-837f-4b8b-ab0a-aa3c80c6daab" d="M24.66785,20.21555l-3.05465-3.05465,.15308-.15326c.22822-.22822,.34502-.54142,.31837-.86515l-.3291-3.66194c-.11143-1.12501-1.48058-1.62923-2.28205-.82255l-2.75442,2.75442c-.1379,.1379-.20694,.31837-.20694,.49882s.06885,.36094,.21231,.49882c.36094,.36612,.36094,.94476,0,1.31085-.36094,.36094-.94476,.36094-1.3055,0l-.00537-.00518c-.27598-.27598-.72707-.27598-.99768,0l-2.75959,2.75959c-.79611,.79611-.30245,2.17064,.83331,2.27153l3.66194,.3291c.31837,.02647,.6369-.08496,.86515-.31318l.14771-.14789,3.05167,3.05167c.01111-.01259,.01499-.02869,.02702-.04072l4.38199-4.38199c.01259-.0124,.02943-.01666,.04276-.02832v.00005Z"/><path class="uuid-bfc6f801-837f-4b8b-ab0a-aa3c80c6daab" d="M30.32416,25.87186l-1.81412-1.81412c-.01166,.01333-.01592,.03017-.02869,.04294l-4.38199,4.38199c-.01203,.01203-.02795,.0161-.04072,.02702l1.81341,1.81341c.01111-.01259,.01499-.02869,.02702-.04072l4.38199-4.38199c.01277-.01259,.02962-.01684,.04313-.0285l-.00003-.00003Z"/><path class="uuid-bfc6f801-837f-4b8b-ab0a-aa3c80c6daab" d="M36.72251,35.49663l-.4148-3.3184c-.03073-.23822-.13827-.46089-.31115-.63377l-1.83099-1.83099c-.01166,.01333-.01592,.03017-.02869,.04294l-4.38199,4.38199c-.01203,.01203-.02795,.0161-.04072,.02702l1.83061,1.83061c.17288,.17288,.39555,.28042,.63377,.31115l3.3147,.41869c.71854,.10365,1.33289-.51104,1.22921-1.22921l.00005-.00004Z"/></svg>