<?xml version="1.0" encoding="UTF-8"?><svg id="uuid-6768eaa7-8415-402b-8a36-d231a0098195" xmlns="http://www.w3.org/2000/svg" viewBox="0 0 48 48"><defs><style>.uuid-d958d0ee-dcb1-4821-9a81-0a89e712baca{fill:#123543;}</style></defs><path class="uuid-d958d0ee-dcb1-4821-9a81-0a89e712baca" d="M23.39842,31.45844c.35887,.25926,.84054,.25064,1.18946-.02191,1.88099-1.469,7.65582-6.44771,7.65582-12.19625,0-4.84856-4.18749-8.71907-9.14325-8.19217-4.37952,.46555-7.68078,4.67837-7.29932,9.06621,.49987,5.74853,5.78605,10.03475,7.59728,11.34411Zm.60498-15.48822c1.80596,0,3.26991,1.4641,3.26991,3.27006s-1.46395,3.26984-3.26991,3.26984-3.26991-1.46395-3.26991-3.26984,1.46395-3.27006,3.26991-3.27006Zm10.08021,19.17087l-1.34985-6.11766c-.15466-.70089-.77584-1.19995-1.49344-1.19995h-.43257c-1.20856,1.61335-2.8421,3.33136-5.07684,5.07678-.49875,.38948-1.1209,.60394-1.75203,.60394-.60186,0-1.17862-.1869-1.66839-.54065-1.26212-.9123-3.44612-2.68952-5.27303-5.14007h-.31661c-.72109,0-1.34428,.50382-1.49545,1.20901l-1.31107,6.11766c-.20399,.95205,.52178,1.84985,1.49545,1.84985h17.18038c.97745,0,1.70412-.90442,1.49344-1.85892Z"/></svg>