<?xml version="1.0" encoding="UTF-8"?><svg id="uuid-d32c8780-dbe4-404b-a8e1-6bca03cf0865" xmlns="http://www.w3.org/2000/svg" viewBox="0 0 48 48"><defs><style>.uuid-8a63b0e5-0a8b-4706-9c22-a17247a49bb5{fill:#123543;}</style></defs><path class="uuid-8a63b0e5-0a8b-4706-9c22-a17247a49bb5" d="M39.81866,21.64972c-.05371-.35565-.36896-.61481-.72876-.61481h-1.50464c-.48029-.13855-.86469-.51422-1.02417-1.01361-.28333-.88525-.65771-1.72961-1.11212-2.52301-.16412-.28668-.12592-.64154,.10767-.87518l1.20416-1.20416c.25616-.25623,.29553-.66882,.07904-.95947-.92358-1.24054-2.02295-2.34155-3.26099-3.26849-.29065-.21765-.7041-.17883-.961,.07788l-1.20758,1.20758c-.23364,.23364-.58856,.27185-.87531,.10773-1.11041-.63593-2.31891-1.11481-3.60278-1.40613-.00018,0-.00018-.00012-.00018-.00018v-2.27197c0-.36011-.2597-.67548-.61591-.7287-.75629-.1131-1.52826-.17719-2.3161-.17719s-1.55981,.06409-2.3161,.17719c-.3562,.05322-.61591,.36859-.61591,.7287v2.27197c0,.00006-.00012,.00018-.00012,.00018-1.28394,.29132-2.49237,.7702-3.60284,1.40613-.28668,.16412-.64166,.12592-.87524-.10773l-1.20764-1.20758c-.25684-.25671-.67035-.29553-.96094-.07788-1.23804,.92694-2.3374,2.02795-3.26105,3.26849-.21649,.29065-.17712,.70325,.07904,.95947l1.20416,1.20416c.23364,.23364,.27185,.5885,.10773,.87518-.45447,.7934-.8288,1.63776-1.11212,2.52301-.15955,.49939-.54388,.87506-1.02423,1.01361h-1.50464c-.3598,0-.67505,.25916-.72876,.61481-.11597,.76715-.18134,1.55078-.18134,2.35034,0,.7995,.06537,1.58313,.18134,2.35022,.05371,.35583,.36896,.61493,.72876,.61493h1.50464c.48035,.13837,.86469,.5141,1.02423,1.01349,.28333,.88525,.65765,1.72961,1.11212,2.52307,.16412,.28674,.12592,.6416-.10773,.87512l-1.20416,1.2041c-.25616,.25629-.29553,.66888-.07904,.95953,.92365,1.24054,2.02301,2.34161,3.26105,3.26855,.29059,.21759,.7041,.17883,.96094-.07788l1.20764-1.20764c.23358-.23358,.58856-.27185,.87524-.10773,1.11047,.63568,2.31891,1.11499,3.6026,1.40576,.00024,0,.00037,.00012,.00037,.00024v2.27228c0,.36011,.2597,.67542,.61591,.7287,.75629,.1131,1.52826,.17719,2.3161,.17719s1.55981-.06409,2.3161-.17719c.3562-.05328,.61591-.36859,.61591-.7287v-2.27228c0-.00012,.00037-.00024,.00037-.00024,1.28369-.29077,2.49219-.77008,3.6026-1.40576,.28674-.16412,.64166-.12585,.87531,.10773l1.20758,1.20764c.2569,.25671,.67035,.29547,.961,.07788,1.23804-.92694,2.3374-2.02802,3.26099-3.26855,.21649-.29065,.17712-.70325-.07904-.95953l-1.20416-1.2041c-.23358-.23352-.27179-.58838-.10767-.87512,.45441-.79346,.8288-1.63782,1.11212-2.52307,.15948-.49939,.54388-.87512,1.02417-1.01349h1.50464c.3598,0,.67505-.25909,.72876-.61493,.11597-.76709,.18134-1.55072,.18134-2.35022,0-.79956-.06537-1.58319-.18134-2.35034Zm-7.35559-1.5672l-7.25098,12.10754c-.54858,1.00574-1.97516,1.05383-2.59021,.08728l-7.03308-12.10754c-.63745-1.00165,.08209-2.31232,1.26935-2.31232h14.28406c1.14209,0,1.86774,1.22241,1.32086,2.22504Z"/><path class="uuid-8a63b0e5-0a8b-4706-9c22-a17247a49bb5" d="M24,18.59668c-.82861,0-1.5,.67139-1.5,1.5v3.72803c0,.82861,.67139,1.5,1.5,1.5s1.5-.67139,1.5-1.5v-3.72803c0-.82861-.67139-1.5-1.5-1.5Z"/><path class="uuid-8a63b0e5-0a8b-4706-9c22-a17247a49bb5" d="M24,26.5c-.82861,0-1.5,.67139-1.5,1.5v.22754c0,.82861,.67139,1.5,1.5,1.5s1.5-.67139,1.5-1.5v-.22754c0-.82861-.67139-1.5-1.5-1.5Z"/></svg>