<?xml version="1.0" encoding="UTF-8"?><svg id="a" xmlns="http://www.w3.org/2000/svg" viewBox="0 0 48 48"><defs><style>.b{fill:#123543;}</style></defs><path class="b" d="M34.33847,22.17517l-.00006-1.55927c0-.20209,.16382-.36591,.36591-.36591h2.96808c.20203,0,.36584,.16382,.36584,.36591l-.00006,1.55927c0,.20197-.16376,.36572-.36578,.36572l-2.96808,.00006c-.20209,0-.36597-.16382-.36584-.36578Zm.36584,11.21014h2.96808c.20203,0,.36584-.16382,.36584-.36591v-8.31421c-.00006-.20203-.16382-.36578-.36578-.36578l-2.9682-.00006c-.20209,0-.36591,.16382-.36584,.36584v8.31421c0,.20209,.16382,.36591,.36591,.36591Zm2.96808,1.87427l-2.96899,.00006c-.20172,.00006-.36542,.16125-.36578,.3631-.00067,.33673-.00134,.8197-.00061,1.04993,.00037,.08698,.03149,.16711,.08807,.23309l1.54572,1.80359c.1496,.17456,.42139,.16943,.56433-.01068l1.42383-1.79413c.05127-.0647,.07928-.14484,.07928-.22742l.00006-1.05164c0-.20203-.16388-.36591-.36591-.36591Zm-12.71069-16.88458h7.5v16.875c0,2.06836-1.68164,3.75-3.75,3.75H13.7117c-2.07129,0-3.75-1.68164-3.75-3.75V12.75c0-2.07129,1.67871-3.75,3.75-3.75h9.375v7.5c0,1.03711,.83789,1.875,1.875,1.875Zm.60266,4.58331c-.72705,0-1.31696,.58966-1.31696,1.31696v.43903h-5.26782v-.43903c0-.72729-.5899-1.31696-1.31702-1.31696h-2.63391c-.72736,0-1.31696,.58966-1.31696,1.31696v2.63397c0,.72705,.5896,1.31696,1.31696,1.31696h2.63391l2.20319,2.93573c-.00549,.04388-.00824,.09052-.00824,.13721v2.63391c0,.72705,.5899,1.31696,1.31696,1.31696h2.63397c.72705,0,1.31696-.5899,1.31696-1.31696v-2.63391c0-.72711-.5899-1.31702-1.31696-1.31702h-2.63397l-2.20312-2.96039c.00549-.01923,.00824-.06586,.00824-.11249v-.43903h5.26782v.43903c0,.72705,.5899,1.31696,1.31696,1.31696h2.63397c.72705,0,1.31696-.5899,1.31696-1.31696v-2.63397c0-.72729-.5899-1.31696-1.31696-1.31696h-2.63397Zm-.60266-6.45831h7.5l-7.5-7.5v7.5Z"/></svg>