<?xml version="1.0" encoding="UTF-8"?><svg id="uuid-2f148e8d-f730-46aa-b976-e7502b3a6f70" xmlns="http://www.w3.org/2000/svg" viewBox="0 0 48 48"><defs><style>.uuid-156457cb-f68c-44bf-85e1-a9e96642e930{fill:#123543;}</style></defs><path class="uuid-156457cb-f68c-44bf-85e1-a9e96642e930" d="M26.74936,17.6701c1.23657,0,2.42938,.18774,3.55591,.5293V9.22985c0-.57831-.6189-.94592-1.12665-.66913l-1.68817,.92029c-.22736,.12402-.50214,.12402-.72943,0l-2.44983-1.33545c-.22754-.12408-.50244-.12402-.72992,.00024l-2.4444,1.33459c-.2276,.12439-.50287,.12427-.73035,0l-2.44324-1.33435c-.22772-.12433-.50299-.12433-.73059,0l-2.44244,1.33423c-.22772,.12439-.50323,.12427-.73096-.00024l-1.67657-.91687c-.50787-.27771-1.12769,.08978-1.12769,.66864v24.41931c0,.57831,.61908,.94586,1.12671,.66901l1.68817-.92029c.22729-.1239,.50208-.1239,.72943,0l.19763,.10773c-.34149-1.12646-.5293-2.31927-.5293-3.55579,0-6.77209,5.50952-12.28168,12.28168-12.28168Zm-11.68457-4.12311h11.24414c.52612,0,.95251,.42633,.95251,.95251,0,.52606-.42639,.95251-.95251,.95251H15.06479c-.52612,0-.95251-.42645-.95251-.95251,0-.52618,.42639-.95251,.95251-.95251Zm-.95251,4.76257c0-.52618,.42639-.95251,.95251-.95251h2.33679c.52612,0,.95251,.42633,.95251,.95251,0,.52606-.42639,.95245-.95251,.95245h-2.33679c-.52612,0-.95251-.42639-.95251-.95245Z"/><path class="uuid-156457cb-f68c-44bf-85e1-a9e96642e930" d="M26.74936,19.95617c-2.5498,0-4.8692,.96271-6.63507,2.53418,.28644,.20233,.50323,.4989,.57245,.85901l.21692,.83502h5.59607v3.57263l-.59912-.59912c-.39062-.39062-1.02344-.39062-1.41406,0s-.39062,1.02344,0,1.41406l2.30615,2.30615c.19531,.19531,.45117,.29297,.70703,.29297s.51172-.09766,.70703-.29297l2.30664-2.30615c.39062-.39014,.39062-1.02344,0-1.41406s-1.02344-.39062-1.41406,0l-.59961,.59943v-3.57294h4.45697c.6095,0,1.05963,.56842,.92004,1.16168l-1.44556,6.14386c-.10052,.42688-.48151,.72864-.9201,.72864h-8.55438c-.00006,.09601-.0116,.19159-.04169,.28369l-.50244,1.53687h9.13824c.50427,0,.91284,.40869,.91284,.91284,0,.50427-.40857,.9129-.91284,.9129h-10.39734c-.29242,0-.56726-.1402-.7392-.37695-.17157-.23676-.2193-.54163-.12842-.8197l.81091-2.47943-2.1145-8.13867h-.28735c-1.2149,1.65515-1.94122,3.69122-1.94122,5.90173,0,5.52039,4.47522,9.99561,9.99567,9.99561s9.99561-4.47522,9.99561-9.99561-4.47516-9.99567-9.99561-9.99567Z"/></svg>