<?xml version="1.0" encoding="UTF-8"?><svg id="uuid-3c564b19-baf3-4b62-98a2-4522f0853b52" xmlns="http://www.w3.org/2000/svg" viewBox="0 0 48 48"><defs><style>.uuid-4a2050c8-5aff-4f61-8d6e-abb171060c4b{fill:#123543;}</style></defs><path class="uuid-4a2050c8-5aff-4f61-8d6e-abb171060c4b" d="M26.74933,19.95618c-5.52045,0-9.99561,4.47522-9.99561,9.99567s4.47516,9.99561,9.99561,9.99561,9.99567-4.47522,9.99567-9.99561-4.47522-9.99567-9.99567-9.99567Zm5.7085,13.76001c0,1.10455-.89539,2-2,2h-7c-1.10455,0-2-.89545-2-2v-7c0-1.10461,.89545-2,2-2h2v2.33331h3.22223v-2.33331h1.77777c1.10461,0,2,.89539,2,2v7Z"/><path class="uuid-4a2050c8-5aff-4f61-8d6e-abb171060c4b" d="M27.74719,28.92499c-.39062-.39062-1.02344-.39062-1.41406,0l-2.30615,2.30615c-.39062,.39062-.39062,1.02344,0,1.41406s1.02344,.39062,1.41406,0l.59912-.59912v1.89209c0,.55225,.44775,1,1,1s1-.44775,1-1v-1.8924l.59961,.59943c.19531,.19531,.45117,.29297,.70703,.29297s.51172-.09766,.70703-.29297c.39062-.39062,.39062-1.02393,0-1.41406l-2.30664-2.30615Z"/><path class="uuid-4a2050c8-5aff-4f61-8d6e-abb171060c4b" d="M15.06482,23.25677c-.52612,0-.95251-.42645-.95251-.95251,0-.52618,.42639-.95251,.95251-.95251h2.93115c.72131-.73407,1.53839-1.36957,2.42371-1.90503h-5.35486c-.52612,0-.95251-.42645-.95251-.95251,0-.52618,.42639-.95251,.95251-.95251h11.24408c.16644,0,.315,.05402,.45111,.12897,1.23273,.0011,2.42206,.18823,3.54529,.52881V9.22986c0-.57831-.61896-.94592-1.12671-.66913l-1.68817,.92029c-.22729,.12402-.50208,.12402-.72937,0l-2.44989-1.33545c-.22754-.12408-.50244-.12402-.72992,.00024l-2.44434,1.33459c-.22766,.12439-.50287,.12427-.73041,0l-2.44324-1.33435c-.22772-.12433-.50293-.12433-.73059,0l-2.44244,1.33423c-.22766,.12439-.50317,.12427-.7309-.00024l-1.67657-.91687c-.50787-.27771-1.12775,.08978-1.12775,.66864v24.41931c0,.57831,.61908,.94586,1.12677,.66901l1.68811-.92029c.22729-.1239,.50208-.1239,.72943,0l.19769,.10779c-.34155-1.12653-.5293-2.31934-.5293-3.55585,0-2.46973,.73926-4.76709,1.99878-6.69501h-1.40167Zm0-9.52515h11.24408c.52612,0,.95251,.42633,.95251,.95251,0,.52606-.42639,.95251-.95251,.95251H15.06482c-.52612,0-.95251-.42645-.95251-.95251,0-.52618,.42639-.95251,.95251-.95251Z"/></svg>