<?xml version="1.0" encoding="UTF-8"?><svg id="uuid-4fc78d9f-c569-4eb2-b71e-38370475d21b" xmlns="http://www.w3.org/2000/svg" viewBox="0 0 48 48"><defs><style>.uuid-2a62e992-2985-4827-ad4a-1efc1c22393e{fill:#123543;}</style></defs><path class="uuid-2a62e992-2985-4827-ad4a-1efc1c22393e" d="M18.98853,9c-5.51648,0-9.98853,2.14227-9.98853,4.78485v4.84717c0,.13165,.05719,.25647,.16217,.33575,2.0451,1.54578,5.74506,2.53229,9.77631,2.53229,4.08179,0,7.86761-1.03839,9.88257-2.61859,.10162-.0799,.15631-.20245,.15631-.33173v-4.76489c0-2.64258-4.47205-4.78485-9.98883-4.78485Zm0,6.83569c-3.0202,0-5.46844-.91821-5.46844-2.05084,0-1.13257,2.44824-2.0506,5.46844-2.0506s5.46869,.91803,5.46869,2.0506c0,1.13263-2.44836,2.05084-5.46869,2.05084Z"/><path class="uuid-2a62e992-2985-4827-ad4a-1efc1c22393e" d="M29,23.52307v-1.51215c0-.31293-.32849-.50562-.60858-.36597-1.32294,.65942-2.90991,1.16522-4.65179,1.49579,.00787-.00671,.01483-.01447,.02277-.02118-1.48389,.289-3.0871,.4502-4.76233,.45416-1.67523-.00397-3.2785-.16516-4.76245-.45416,.00793,.00671,.01489,.01447,.02277,.02118-1.74188-.33057-3.3288-.83636-4.65179-1.49579-.28003-.13965-.60858,.05304-.60858,.36597v3.98047c0,.13165,.05719,.25647,.16223,.33588,2.04504,1.54565,5.745,2.53217,9.77631,2.53217,.02075,0,.04071-.00214,.06146-.0022,.02075,.00006,.04077,.0022,.06152,.0022,1.65649,0,3.24847-.17432,4.70123-.47778,.99481-2.26117,2.89276-4.0285,5.23724-4.85858Z"/><path class="uuid-2a62e992-2985-4827-ad4a-1efc1c22393e" d="M32,25c-3.86597,0-7,3.13397-7,7s3.13403,7,7,7,7-3.13403,7-7-3.13403-7-7-7Zm-.07178,12.12305c-.67139,0-1.2334-.50684-1.2334-1.21875,0-.68555,.56201-1.19238,1.2334-1.19238,.68506,0,1.26025,.50684,1.26025,1.19238,0,.71191-.5752,1.21875-1.26025,1.21875Zm1.65771-4.43945c-.38312,.13507-.6803,.62952-.80255,.86285-.04095,.07812-.12134,.12347-.20953,.12347h-1.18567c-.1427,0-.25305-.12061-.23969-.26263,.05109-.54407,.2738-1.77783,1.24554-2.18951l.50684-.21973c.46582-.17773,.54834-.58887,.54834-.82227,0-.54785-.39746-.84961-.97314-.84961-.40308,0-.78888,.24274-.92993,.64569-.07141,.20398-.26178,.34161-.47791,.34161h-.88605c-.31921,0-.56018-.29065-.513-.60632,.22919-1.53235,1.34766-2.31262,2.83423-2.31262,1.68555,0,2.86377,1.01367,2.86377,2.6582,0,1.3291-.72607,2.26074-1.78125,2.63086Z"/><path class="uuid-2a62e992-2985-4827-ad4a-1efc1c22393e" d="M23.8183,35.73364c-.52051-1.13849-.8183-2.40002-.8183-3.73364,0-.48859,.04962-.96454,.12457-1.43201-.91907,.15808-1.87543,.27155-2.86377,.32526-.28632,.01459-.57672,.02124-.86755,.0271-.17096,.00366-.33972,.01245-.51202,.01282-.1723-.00037-.34106-.00916-.51202-.01282-.29083-.00586-.58124-.01251-.86755-.0271-3.02258-.16418-5.78607-.83875-7.89307-1.88898-.28003-.13959-.60858,.05304-.60858,.36609v2.10419c0,.01892,.00714,.03717,.008,.05627-.00085,.02527-.008,.05005-.008,.07574,0,2.00238,2.56989,3.71527,6.21399,4.42883-.0094,.01093-.0191,.02155-.02826,.03271,.73938,.1366,1.53058,.21625,2.34155,.26654,.3299,.02325,.66449,.03845,1.00409,.04584,.08246,.00098,.15955,.01105,.24249,.01105,.03625,0,.07123-.00244,.10736-.00262,.03613,.00018,.07111,.00262,.10736,.00262,.08295,0,.16003-.01007,.24249-.01105,.33954-.00739,.67413-.02258,1.00403-.04584,.81104-.05029,1.60217-.12994,2.34161-.26654-.00916-.01117-.01886-.02179-.02826-.03271,.44012-.08618,.86371-.18768,1.26984-.30176Z"/></svg>