<?xml version="1.0" encoding="UTF-8"?><svg id="uuid-1eb89f47-bc10-44d1-8ef2-9ce22b891190" xmlns="http://www.w3.org/2000/svg" viewBox="0 0 48 48"><defs><style>.uuid-eb7c8793-ebd5-469b-b4b8-6995c35a3f55{fill:#123543;}</style></defs><rect class="uuid-eb7c8793-ebd5-469b-b4b8-6995c35a3f55" x="14.41902" y="36.03682" width="8.50132" height="2.26346" rx=".37724" ry=".37724"/><path class="uuid-eb7c8793-ebd5-469b-b4b8-6995c35a3f55" d="M22.34051,33.95407c.20854,.00023,.37785-.16878,.37785-.37724v-2.28526c0-1.20054-.47691-2.35188-1.32571-3.20083l-3.77107-3.77145c-.72272-.72272-1.9222-.67821-2.58623,.13362-.57741,.70582-.45375,1.75742,.19119,2.40228l1.91541,1.91549c.37785,.37792,.37785,.99056,0,1.36841-.37792,.37792-.99056,.37785-1.36841,0l-1.86033-1.86064c-.70937-.70899-1.1152-1.64599-1.15572-2.64228l.01494-4.51944c0-1.10592-.95178-1.9895-2.0808-1.87641-.98174,.09831-1.69163,.99735-1.69163,1.98407v4.64884c0,1.06971,.37868,2.10479,1.06911,2.92174l4.23696,5.01439c.07168,.08465,.17685,.13362,.28776,.13377l7.74668,.01094Z"/><path class="uuid-eb7c8793-ebd5-469b-b4b8-6995c35a3f55" d="M37.30837,19.24032c-1.12901-.1131-2.0808,.77048-2.0808,1.87641l.01494,4.51944c-.04052,.9963-.44635,1.93329-1.15572,2.64228l-1.86033,1.86064c-.37785,.37785-.99049,.37792-1.36841,0-.37785-.37785-.37785-.99049,0-1.36841l1.91541-1.91549c.64493-.64486,.76859-1.69646,.19119-2.40228-.66402-.81183-1.8635-.85634-2.58623-.13362l-3.77107,3.77145c-.8488,.84895-1.32571,2.00029-1.32571,3.20083v2.28526c0,.20846,.16931,.37747,.37785,.37724l7.74668-.01094c.11091-.00015,.21608-.04912,.28776-.13377l4.23696-5.01439c.69043-.81696,1.06911-1.85204,1.06911-2.92174v-4.64884c0-.98672-.7099-1.88576-1.69163-1.98407Z"/><rect class="uuid-eb7c8793-ebd5-469b-b4b8-6995c35a3f55" x="25.07967" y="36.03682" width="8.50132" height="2.26346" rx=".37724" ry=".37724"/><path class="uuid-eb7c8793-ebd5-469b-b4b8-6995c35a3f55" d="M17.02778,12.31951c0-1.44689,1.17345-2.61979,2.61979-2.61979h2.61979v4.36632c0,.48248,.39297,.87326,.87326,.87326h1.74653c.48029,0,.87326-.39079,.87326-.87326v-4.36632h2.61979c1.44634,0,2.61979,1.1729,2.61979,2.61979v6.98611c0,1.44634-1.17345,2.61979-2.61979,2.61979h-8.73264c-1.44634,0-2.61979-1.17345-2.61979-2.61979v-6.98611Z"/></svg>