<?xml version="1.0" encoding="UTF-8"?><svg id="uuid-335f5bda-0b8c-45f4-9c7e-57bc50db9ebe" xmlns="http://www.w3.org/2000/svg" viewBox="0 0 48 48"><defs><style>.uuid-66690eea-638d-4ff5-a4fd-493f0119d8b3{fill:#123543;}</style></defs><path class="uuid-66690eea-638d-4ff5-a4fd-493f0119d8b3" d="M27.80191,33.77621l-3.64545-2.85852c-.26294-.20618-.5752-.31512-.90302-.31512-.81335,0-1.47504,.66052-1.47504,1.47241v.74249c-4.40765-1.13611-7.38788-5.41254-6.86108-10.00104,.30865-2.68762,1.81226-5.10101,4.12524-6.62146l.58124-.38208-.54736-.4292-.23322-.18286c-.59167-.46393-.935-1.15741-.94586-1.90735l.00049-.00275,.00165-.05084,.00763-.91223-.77307,.48431c-3.85754,2.4165-6.16052,6.56299-6.16052,11.09198,0,6.31647,4.61523,11.77869,10.80487,12.88165v1.00635c0,.81189,.66168,1.47241,1.47504,1.47241,.32782,0,.64008-.10895,.90302-.31519l3.64545-2.85852c.35791-.28064,.56311-.70245,.56311-1.15723,0-.45483-.2052-.87659-.56311-1.15723Z"/><path class="uuid-66690eea-638d-4ff5-a4fd-493f0119d8b3" d="M26.22159,11.21439v-1.00629c0-.81189-.66168-1.47247-1.47498-1.47247-.32788,0-.64014,.10901-.90308,.31525l-3.64545,2.85846c-.35785,.2807-.56311,.70245-.56311,1.15729,0,.45477,.20526,.87659,.56311,1.15723l3.64545,2.85846c.26294,.20618,.5752,.31519,.90302,.31519,.81335,0,1.47504-.66052,1.47504-1.47241v-.74255c4.40765,1.13617,7.38794,5.4126,6.86115,10.0011-.30872,2.68756-1.81232,5.10101-4.12531,6.62146l-.58124,.38208,.54736,.4292,.23322,.18286c.59167,.46393,.93506,1.15735,.94586,1.90735l-.00049,.00275-.00159,.05084-.00769,.91223,.77307-.48431c3.85754-2.4165,6.16052-6.56305,6.16052-11.09198,0-6.31647-4.61523-11.77869-10.80487-12.88171Z"/></svg>