<?xml version="1.0" encoding="UTF-8"?><svg id="uuid-fa9b46c5-bb8b-4fa8-8c72-5614f983ad9e" xmlns="http://www.w3.org/2000/svg" viewBox="0 0 48 48"><defs><style>.uuid-cb654eb4-3f81-433a-82de-66c8b1ee4289{fill:#123543;}</style></defs><path class="uuid-cb654eb4-3f81-433a-82de-66c8b1ee4289" d="M31,23.5c.33838,0,.67133,.02228,1,.05865V10.5c0-1.10461-.89539-2-2-2H12c-1.09998,0-2,.89996-2,2v24c0,1.10455,.89545,2,2,2h10.94659c-.60034-1.20618-.94659-2.56122-.94659-4,0-4.97058,4.02948-9,9-9Zm-4.8335-10.80688c1.25348,.3844,2.23486,1.35797,2.62994,2.60669h-2.62994v-2.60669Zm-2-.10339v4.71008h4.75287c-.37061,1.82581-1.98419,3.2002-3.91937,3.2002-2.20911,0-4-1.79089-4-4,0-1.92297,1.35797-3.52643,3.1665-3.91028Zm-9.29913,.05835h3.23663c.47906,0,.86731,.47961,.86731,1.07141,0,.59174-.38824,1.07141-.86731,1.07141h-3.23663c-.47906,0-.86737-.47968-.86737-1.07141,0-.5918,.38831-1.07141,.86737-1.07141Zm0,5.06622h3.23663c.47906,0,.86731,.47961,.86731,1.07141,0,.59186-.38824,1.07141-.86731,1.07141h-3.23663c-.47906,0-.86737-.47955-.86737-1.07141,0-.5918,.38831-1.07141,.86737-1.07141Zm.11853,5.14282h8.0141c.54456,0,.9859,.47968,.9859,1.07141,0,.59186-.44135,1.07147-.9859,1.07147H14.9859c-.54449,0-.9859-.47961-.9859-1.07147,0-.59174,.44141-1.07141,.9859-1.07141Zm5.0141,7.28571h-5.0141c-.54449,0-.9859-.47955-.9859-1.07141,0-.5918,.44141-1.07141,.9859-1.07141h5.0141c.54456,0,.9859,.47961,.9859,1.07141,0,.59186-.44135,1.07141-.9859,1.07141Z"/><path class="uuid-cb654eb4-3f81-433a-82de-66c8b1ee4289" d="M31,25.5c-3.86597,0-7,3.13397-7,7s3.13403,7,7,7,7-3.13403,7-7-3.13397-7-7-7Zm4,8.25h-2.75v2.75c0,.55225-.44769,1-1,1h-.5c-.55225,0-1-.44775-1-1v-2.75h-2.75c-.55225,0-1-.44775-1-1v-.5c0-.55231,.44775-1,1-1h2.75v-2.75c0-.55231,.44775-1,1-1h.5c.55231,0,1,.44769,1,1v2.75h2.75c.55231,0,1,.44769,1,1v.5c0,.55225-.44769,1-1,1Z"/></svg>