<?xml version="1.0" encoding="UTF-8"?><svg id="uuid-1d60d3f2-b9fb-4901-a97e-4d4ac127b757" xmlns="http://www.w3.org/2000/svg" viewBox="0 0 48 48"><defs><style>.uuid-c55085ca-a89d-4715-86f7-aa1c397cf04d{fill:#123543;}</style></defs><path class="uuid-c55085ca-a89d-4715-86f7-aa1c397cf04d" d="M37.46133,18.23563H10.5386c-.23529,0-.42603,.1908-.42603,.42609v16.83942c0,1.24377,1.00824,2.25201,2.25201,2.25201h23.27081c1.24377,0,2.25201-1.00824,2.25201-2.25201V18.66171c0-.23529-.19073-.42609-.42609-.42609Zm-13.46143,4.50409c1.49908,0,2.71436,1.21521,2.71436,2.71417,0,1.49921-1.21527,2.71442-2.71436,2.71442-1.49896,0-2.71423-1.21521-2.71423-2.71442,0-1.49896,1.21527-2.71417,2.71423-2.71417Zm4.58374,10.5874c0,.37158-.27948,.67267-.62408,.67267h-7.87488c-.3446,0-.62408-.30109-.62408-.67267v-.63861c0-1.22223,.91925-2.21301,2.05322-2.21301h5.0166c1.13397,0,2.05322,.99078,2.05322,2.21301v.63861Z"/><path class="uuid-c55085ca-a89d-4715-86f7-aa1c397cf04d" d="M10.49796,16.41983h26.97949c.21283,0,.38544-.13867,.38544-.30975v-3.38531c0-1.36853-1.38043-2.47791-3.08337-2.47791H13.19589c-1.70294,0-3.08331,1.10938-3.08331,2.47791v3.38531c0,.17108,.17255,.30975,.38538,.30975Zm8.34918-4.40436c.82916,0,1.50134,.67218,1.50134,1.50134,0,.8291-.67218,1.50134-1.50134,1.50134-.82922,0-1.50134-.67224-1.50134-1.50134,0-.82916,.67212-1.50134,1.50134-1.50134Zm-4.87939,0c.82916,0,1.50134,.67218,1.50134,1.50134,0,.8291-.67218,1.50134-1.50134,1.50134-.82922,0-1.50134-.67224-1.50134-1.50134,0-.82916,.67212-1.50134,1.50134-1.50134Z"/></svg>