<?xml version="1.0" encoding="UTF-8"?><svg id="uuid-b10951c9-4d5c-416b-8de7-6281bd4ae8e4" xmlns="http://www.w3.org/2000/svg" viewBox="0 0 48 48"><defs><style>.uuid-2163cc6d-9b46-45fc-89c3-68037fca9d41{fill:#123543;}</style></defs><path class="uuid-2163cc6d-9b46-45fc-89c3-68037fca9d41" d="M11.87886,14.90914c0-1.67376,1.35653-3.03029,3.03029-3.03029h13.63629c1.67139,0,3.03029,1.35653,3.03029,3.03029v3.03029c0,1.67139-1.35889,3.03029-3.03029,3.03029H14.90914c-1.67376,0-3.03029-1.35889-3.03029-3.03029v-3.03029Zm7.57572,13.63629c0-.83806,.67708-1.51514,1.51514-1.51514v-.75757c0-2.09279,1.69507-3.78786,3.78786-3.78786h6.81814c.83806,0,1.51514-.67708,1.51514-1.51514v-5.80205c1.76609,.62405,3.03029,2.30775,3.03029,4.28691v1.51514c0,2.50946-2.03597,4.54543-4.54543,4.54543h-6.81814c-.41666,0-.75757,.34091-.75757,.75757v.75757c.83806,0,1.51514,.67708,1.51514,1.51514v6.06057c0,.83806-.67708,1.51514-1.51514,1.51514h-3.03029c-.83806,0-1.51514-.67708-1.51514-1.51514v-6.06057Z"/></svg>