<?xml version="1.0" encoding="UTF-8"?><svg id="uuid-58eeba7e-ef8e-49c2-9d28-284211eef37f" xmlns="http://www.w3.org/2000/svg" viewBox="0 0 48 48"><defs><style>.uuid-b81bbd60-ef56-4310-9671-4009c77a7917{fill:#123543;}</style></defs><path class="uuid-b81bbd60-ef56-4310-9671-4009c77a7917" d="M22.40918,34.61439c.19995,.00012,.362-.1618,.362-.36163v-2.19073c0-1.15076-.45697-2.25446-1.27081-3.0683l-3.61481-3.6153c-.69275-.69275-1.84277-.65021-2.47931,.12805-.55341,.67657-.43475,1.68469,.18323,2.30286l1.8363,1.83624c.36212,.36218,.36212,.94946,0,1.31177-.36224,.36218-.94965,.36212-1.31183,0l-1.78345-1.78369c-.67975-.67963-1.06897-1.57776-1.1076-2.5329l.01428-4.3324c0-1.06006-.91254-1.90704-1.99481-1.79865-.94092,.09418-1.62146,.95605-1.62146,1.90186v4.45642c0,1.02545,.36304,2.01764,1.02484,2.80084l4.06158,4.80676c.06848,.08124,.16956,.12811,.27563,.12823l7.42621,.01056Z"/><rect class="uuid-b81bbd60-ef56-4310-9671-4009c77a7917" x="14.81543" y="36.61091" width="8.14948" height="2.1698" rx=".36163" ry=".36163"/><path class="uuid-b81bbd60-ef56-4310-9671-4009c77a7917" d="M36.75739,20.50971c-1.0824-.1084-1.99457,.73859-1.99457,1.79865l.0141,4.3324c-.03864,.95514-.42767,1.85327-1.10767,2.5329l-1.78339,1.78369c-.36218,.36212-.94946,.36218-1.31177,0-.36237-.3623-.36237-.94958,0-1.31177l1.83618-1.83624c.61823-.61816,.73669-1.62628,.18311-2.30286-.63635-.77826-1.78619-.8208-2.47906-.12805l-3.61493,3.6153c-.81366,.81384-1.27081,1.91754-1.27081,3.0683v2.19073c0,.19983,.16229,.36176,.36218,.36163l7.42603-.01056c.10632-.00012,.20715-.047,.27563-.12823l4.06177-4.80676c.66168-.7832,1.0249-1.77539,1.0249-2.80084v-4.45642c0-.9458-.68054-1.80768-1.6217-1.90186Z"/><rect class="uuid-b81bbd60-ef56-4310-9671-4009c77a7917" x="25.03491" y="36.61091" width="8.14948" height="2.1698" rx=".36163" ry=".36163"/><path class="uuid-b81bbd60-ef56-4310-9671-4009c77a7917" d="M31.95178,13.7226c.01813-.44775-.31445-.82397-.75903-.87909-2.79706-.3468-5.49017-2.44055-6.6145-3.41846-.31543-.27435-.78442-.27435-1.09985,0-1.12439,.97791-3.81744,3.07166-6.6145,3.41846-.44458,.05511-.77716,.43134-.75903,.87909,.34485,8.50464,5.93622,12.23682,7.5127,13.12317,.25671,.14429,.56476,.14429,.82166,0,1.57648-.88635,7.16785-4.61853,7.51257-13.12317Zm-7.92346,5.28906c-1.50677,0-2.72845-1.2215-2.72845-2.72839s1.22168-2.72845,2.72845-2.72845c1.5069,0,2.72839,1.22156,2.72839,2.72845s-1.2215,2.72839-2.72839,2.72839Z"/></svg>