<?xml version="1.0" encoding="UTF-8"?><svg id="a" xmlns="http://www.w3.org/2000/svg" viewBox="0 0 48 48"><defs><style>.b{fill:#123543;}</style></defs><path class="b" d="M22.64378,36.08485c0,1.2391-1.00444,2.24362-2.24362,2.24362-1.23903,0-2.24362-1.00452-2.24362-2.24362s1.0046-2.24362,2.24362-2.24362c1.23918,0,2.24362,1.00452,2.24362,2.24362Zm9.07204-2.24362c-1.23903,0-2.24362,1.00452-2.24362,2.24362s1.0046,2.24362,2.24362,2.24362c1.23918,0,2.24362-1.00452,2.24362-2.24362s-1.00444-2.24362-2.24362-2.24362Zm6.5722-17.98043l-2.38708,10.14508c-.16583,.70502-.79492,1.20331-1.51923,1.20331h-14.17493c-.00842,.02258-.00763,.04736-.01733,.06958l-.82758,1.90253h15.08533c.75415,0,1.36566,.61157,1.36566,1.36566,0,.75421-.61151,1.36572-1.36566,1.36572H17.27862c-.46027,0-.88971-.23206-1.14197-.61694-.25269-.38477-.29382-.87146-.11047-1.29327l1.4704-3.38098-3.69391-14.21857h-2.76715c-.75409,0-1.36572-.61151-1.36572-1.36572,0-.75409,.61163-1.36566,1.36572-1.36566h3.22528c1.02875,0,1.91888,.74493,2.10864,1.74792l.65546,2.52307h19.74384c1.00653,0,1.74982,.93848,1.51929,1.91827Zm-14.77582,2.70984c0-.53888-.43658-.97546-.97546-.97546-.53882,0-.97552,.43658-.97552,.97546v4.01013c0,.53882,.43671,.97546,.97552,.97546,.53888,0,.97546-.43665,.97546-.97546v-4.01013Zm4.68237,0c0-.53888-.43665-.97546-.97552-.97546-.53876,0-.97546,.43658-.97546,.97546v4.01013c0,.53882,.43671,.97546,.97546,.97546,.53888,0,.97552-.43665,.97552-.97546v-4.01013Zm4.68231,0c0-.53888-.43658-.97546-.97546-.97546-.53882,0-.97552,.43658-.97552,.97546v4.01013c0,.53882,.43671,.97546,.97552,.97546,.53888,0,.97546-.43665,.97546-.97546v-4.01013Z"/></svg>