<?xml version="1.0" encoding="UTF-8"?><svg id="uuid-158538d2-b564-46ba-aa9c-054a52db7230" xmlns="http://www.w3.org/2000/svg" viewBox="0 0 48 48"><defs><style>.uuid-22b43ad2-8b44-4943-a480-7a221a0aca9b{fill:#123543;}</style></defs><path class="uuid-22b43ad2-8b44-4943-a480-7a221a0aca9b" d="M33,22.5c1.85059,0,3.5697,.56,5,1.51764V11.5c0-1.10461-.89545-2-2-2h-2.5c-.82843,0-1.5,.67157-1.5,1.5s-.67157,1.5-1.5,1.5-1.5-.67157-1.5-1.5-.67157-1.5-1.5-1.5h-9c-.82843,0-1.5,.67157-1.5,1.5s-.67157,1.5-1.5,1.5-1.5-.67157-1.5-1.5-.67157-1.5-1.5-1.5h-2.5c-1.10455,0-2,.89539-2,2v22c0,1.10455,.89545,2,2,2h14.94659c-.60034-1.20618-.94659-2.56122-.94659-4,0-4.97058,4.02942-9,9-9Zm.5-8c.82843,0,1.5,.67157,1.5,1.5s-.67157,1.5-1.5,1.5-1.5-.67157-1.5-1.5,.67157-1.5,1.5-1.5Zm-5,0c.82843,0,1.5,.67157,1.5,1.5s-.67157,1.5-1.5,1.5-1.5-.67157-1.5-1.5,.67157-1.5,1.5-1.5Zm-15,18c-.82843,0-1.5-.67157-1.5-1.5s.67157-1.5,1.5-1.5,1.5,.67157,1.5,1.5-.67157,1.5-1.5,1.5Zm0-5c-.82843,0-1.5-.67157-1.5-1.5s.67157-1.5,1.5-1.5,1.5,.67157,1.5,1.5-.67157,1.5-1.5,1.5Zm0-5c-.82843,0-1.5-.67157-1.5-1.5s.67157-1.5,1.5-1.5,1.5,.67157,1.5,1.5-.67157,1.5-1.5,1.5Zm0-5c-.82843,0-1.5-.67157-1.5-1.5s.67157-1.5,1.5-1.5,1.5,.67157,1.5,1.5-.67157,1.5-1.5,1.5Zm10-3c.82843,0,1.5,.67157,1.5,1.5s-.67157,1.5-1.5,1.5-1.5-.67157-1.5-1.5,.67157-1.5,1.5-1.5Zm-5,18c-.82843,0-1.5-.67157-1.5-1.5s.67157-1.5,1.5-1.5,1.5,.67157,1.5,1.5-.67157,1.5-1.5,1.5Zm0-5c-.82843,0-1.5-.67157-1.5-1.5s.67157-1.5,1.5-1.5,1.5,.67157,1.5,1.5-.67157,1.5-1.5,1.5Zm0-5c-.82843,0-1.5-.67157-1.5-1.5s.67157-1.5,1.5-1.5,1.5,.67157,1.5,1.5-.67157,1.5-1.5,1.5Zm0-5c-.82843,0-1.5-.67157-1.5-1.5s.67157-1.5,1.5-1.5,1.5,.67157,1.5,1.5-.67157,1.5-1.5,1.5Zm3.5,3.5c0-.82843,.67157-1.5,1.5-1.5s1.5,.67157,1.5,1.5-.67157,1.5-1.5,1.5-1.5-.67157-1.5-1.5Z"/><path class="uuid-22b43ad2-8b44-4943-a480-7a221a0aca9b" d="M33,24.5c-3.86597,0-7,3.13397-7,7s3.13403,7,7,7,7-3.13403,7-7-3.13403-7-7-7Zm4,8.25h-2.75v2.75c0,.55225-.44769,1-1,1h-.5c-.55231,0-1-.44775-1-1v-2.75h-2.75c-.55231,0-1-.44775-1-1v-.5c0-.55231,.44769-1,1-1h2.75v-2.75c0-.55231,.44769-1,1-1h.5c.55231,0,1,.44769,1,1v2.75h2.75c.55231,0,1,.44769,1,1v.5c0,.55225-.44769,1-1,1Z"/></svg>