<?xml version="1.0" encoding="UTF-8"?><svg id="uuid-3e922843-c081-4d10-bf95-a6e98f7750cb" xmlns="http://www.w3.org/2000/svg" viewBox="0 0 48 48"><defs><style>.uuid-bd123f7c-fcd7-41ad-b80b-3b9d59e81227{fill:#123543;}</style></defs><path class="uuid-bd123f7c-fcd7-41ad-b80b-3b9d59e81227" d="M38.1358,34.67084c-.79395,.39587-1.74646,.69952-2.79199,.89795,.0047-.00403,.00885-.00867,.01361-.0127-.89032,.1734-1.85223,.27008-2.85736,.27246-1.00519-.00238-1.9671-.09906-2.85748-.27246,.00476,.00403,.00891,.00867,.01367,.0127-1.04553-.19843-1.99805-.50208-2.79205-.89795-.16852-.08405-.3642,.03168-.3642,.22003v1.88074c0,.41296,.20496,.80811,.56134,1.01672,1.27875,.74866,3.26251,1.21167,5.40179,1.21167,.01245,0,.02441-.00128,.03687-.00134,.01245,.00006,.02448,.00134,.03693,.00134,2.13922,0,4.12292-.46301,5.40173-1.21161,.35638-.20862,.56134-.60376,.56134-1.01672v-1.88318c0-.18842-.19562-.3017-.3642-.21765Z"/><path class="uuid-bd123f7c-fcd7-41ad-b80b-3b9d59e81227" d="M38.39264,32.57153c.06097-.04791,.09381-.12146,.09381-.19897v-2.85895c0-1.58557-2.68323-2.87097-5.99329-2.87097s-5.99316,1.2854-5.99316,2.87097v2.90826c0,.07898,.03436,.15393,.09735,.20148,1.22705,.92749,3.44702,1.51941,5.86578,1.51941,2.44904,0,4.72058-.62305,5.9295-1.57123Zm-9.18054-2.97363c0-.67957,1.46893-1.23035,3.28107-1.23035s3.28119,.55078,3.28119,1.23035-1.46899,1.23053-3.28119,1.23053-3.28107-.55096-3.28107-1.23053Z"/><path class="uuid-bd123f7c-fcd7-41ad-b80b-3b9d59e81227" d="M35.5,9H12.5c-2.20911,0-4,1.79083-4,4v19c0,2.20911,1.79089,4,4,4h12v-1.10913c0-.46045,.14014-.88837,.3786-1.24518-.13025-.20062-.22321-.42145-.28839-.65131-.00977,.00031-.01788,.00562-.02771,.00562H11.4375c-.55225,0-1-.44727-1-1s.44775-1,1-1h13.0625v-1.48639c0-2.82239,3.36163-4.87091,7.99316-4.87091,3.13525,0,5.68427,.94073,7.00684,2.42273V13c0-2.20917-1.79083-4-4-4ZM14.14258,19.83002c-.21185,.18439-.474,.27521-.73438,.27521-.31238,0-.62256-.13019-.84363-.38354l-1.78949-2.05426c-.34467-.39581-.36786-.97772-.05591-1.39972l1.78943-2.41943c.36749-.49719,1.06781-.6012,1.56415-.23425,.49664,.367,.6015,1.06781,.23413,1.56409l-1.25513,1.69769,1.19922,1.37616c.40588,.46576,.35736,1.17267-.1084,1.57806Zm5.71185-5.9137l-1.73004,6.26318c-.13721,.49542-.58722,.8205-1.07782,.8205-.09833,0-.19879-.01306-.2984-.04016-.59497-.16431-.94458-.78033-.78027-1.37622l1.73004-6.26318c.16425-.59497,.7785-.94366,1.37622-.78027,.59497,.16425,.94452,.78027,.78027,1.37616Zm5.18927,3.31604l-1.78943,2.41943c-.2193,.29706-.55756,.45343-.90002,.45343-.23114,0-.46393-.07166-.66406-.2193-.4967-.367-.60156-1.06775-.23419-1.56396l1.25513-1.69775-1.19922-1.37622c-.40582-.4657-.3573-1.17255,.1084-1.57806,.46613-.4054,1.17261-.35645,1.578,.10834l1.78949,2.05426c.34467,.39581,.36786,.97778,.05591,1.39984Z"/></svg>