<?xml version="1.0" encoding="UTF-8"?><svg id="uuid-850802ab-8f30-4bba-a891-819712098589" xmlns="http://www.w3.org/2000/svg" viewBox="0 0 48 48"><defs><style>.uuid-8c4314be-ec32-46e2-9bc2-a3e574b5d777{fill:#123543;}</style></defs><path class="uuid-8c4314be-ec32-46e2-9bc2-a3e574b5d777" d="M37.5,28.5v-5.37659c0-.79688-.31409-1.56091-.87659-2.12341l-3.62341-3.62341c-.60468-.5625-1.32654-.87659-2.12341-.87659h-2.37659v-2.25c0-1.24268-1.00781-2.25-2.25-2.25H11.25c-1.24268,0-2.25,1.00732-2.25,2.25v15c0,1.24219,1.00732,2.25,2.25,2.25h.75c0,2.48438,1.97345,4.5,4.5,4.5,2.48438,0,4.5-2.01562,4.5-4.5h6c0,2.48438,1.97345,4.5,4.5,4.5,2.48438,0,4.5-2.01562,4.5-4.5h1.5c.82971,0,1.5-.67029,1.5-1.5s-.67029-1.5-1.5-1.5Zm-21,5.25c-1.24219,0-2.25-1.00781-2.25-2.25s1.00781-2.25,2.25-2.25,2.25,1.00781,2.25,2.25-1.00781,2.25-2.25,2.25Zm8.18652-9.71552c0,1.20972-.98151,2.19122-2.19122,2.19122h-7.30408c-1.20972,0-2.19122-.98151-2.19122-2.19122v-5.84326c0-1.21021,.98151-2.19122,2.19122-2.19122h2.19122v3.65204c0,.40356,.32867,.73041,.73041,.73041h1.46082c.40173,0,.73041-.32684,.73041-.73041v-3.65204h2.19122c1.20972,0,2.19122,.98102,2.19122,2.19122v5.84326Zm6.81348,9.71552c-1.24219,0-2.25-1.00781-2.25-2.25s1.00781-2.25,2.25-2.25,2.25,1.00781,2.25,2.25-1.00781,2.25-2.25,2.25Zm3-9.75h-6v-4.5h2.37659l3.62341,3.62341v.87659Z"/></svg>