<?xml version="1.0" encoding="UTF-8"?><svg id="uuid-a3b990bc-e00d-4454-b79b-a053c462fb98" xmlns="http://www.w3.org/2000/svg" viewBox="0 0 48 48"><defs><style>.uuid-835cc9f5-93b1-4a3c-bd2f-1f829d967a3b{fill:#123543;}</style></defs><path class="uuid-835cc9f5-93b1-4a3c-bd2f-1f829d967a3b" d="M39.45157,21.70425c-.05249-.34741-.36041-.60052-.71185-.60052h-1.46973c-.46918-.13531-.8446-.50232-1.00043-.99005-.27673-.86475-.64246-1.68951-1.0863-2.46454-.16034-.28003-.12299-.62665,.10522-.85486l1.17621-1.17621c.25018-.25031,.28864-.65326,.07721-.93719-.90222-1.21179-1.97607-2.28723-3.18536-3.19263-.28387-.21265-.68774-.17468-.93866,.07605l-1.17963,1.17957c-.22821,.22821-.57489,.26556-.85492,.10522-1.08472-.62115-2.26514-1.08893-3.51923-1.37347-.00018,0-.00018-.00012-.00018-.00024v-2.21924c0-.35175-.25366-.65973-.60156-.71173-.73877-.11047-1.4928-.1731-2.26239-.1731-.76953,0-1.52356,.06262-2.26233,.1731-.34796,.052-.60162,.35999-.60162,.71173v2.21924c0,.00012-.00012,.00024-.00012,.00024-1.25415,.28455-2.43457,.75232-3.51923,1.37347-.28003,.16034-.62677,.12299-.85498-.10522l-1.17957-1.17957c-.25092-.25073-.65479-.2887-.93866-.07605-1.20935,.9054-2.28314,1.98083-3.18536,3.19263-.21149,.28394-.17303,.68689,.07721,.93719l1.17621,1.17621c.22821,.22821,.2655,.57483,.10522,.85486-.44391,.77502-.80957,1.59979-1.0863,2.46454-.15582,.48773-.53131,.85474-1.00049,.99005h-1.46967c-.3515,0-.65942,.25311-.71185,.60052-.11334,.74939-.17712,1.51483-.17712,2.29584,0,.78094,.06378,1.54639,.17712,2.29572,.05243,.34753,.36035,.60059,.71185,.60059h1.46967c.46918,.13513,.84467,.5022,1.00049,.98999,.27673,.86475,.6424,1.68945,1.0863,2.46454,.16028,.28003,.12299,.62671-.10522,.8548l-1.17621,1.17615c-.25024,.25037-.2887,.65338-.07721,.93732,.90222,1.21173,1.97601,2.28729,3.18536,3.19269,.28387,.21252,.68774,.17468,.93866-.07605l1.17957-1.17969c.22821-.22815,.57495-.2655,.85498-.10516,1.08466,.62091,2.26508,1.08911,3.51898,1.37311,.00024,0,.00037,.00012,.00037,.00024v2.21954c0,.35175,.25366,.65973,.60162,.71179,.73877,.11047,1.4928,.17303,2.26233,.17303,.76959,0,1.52362-.06256,2.26239-.17303,.3479-.05206,.60156-.36005,.60156-.71179v-2.21954c0-.00012,.00043-.00024,.00043-.00024,1.25385-.284,2.43427-.7522,3.51898-1.37311,.28003-.16034,.62671-.12299,.85492,.10516l1.17963,1.17969c.25092,.25073,.65479,.28857,.93866,.07605,1.20929-.9054,2.28314-1.98096,3.18536-3.19269,.21143-.28394,.17297-.68695-.07721-.93732l-1.17621-1.17615c-.22821-.22809-.26556-.57477-.10522-.8548,.44385-.77509,.80957-1.59979,1.0863-2.46454,.15582-.48779,.53125-.85486,1.00043-.98999h1.46973c.35144,0,.65936-.25305,.71185-.60059,.11328-.74933,.17712-1.51477,.17712-2.29572,0-.78101-.06384-1.54645-.17712-2.29584Zm-9.91101,9.94769c-.21399,.15753-.43481,.30548-.66168,.44446-.00696,.00427-.01392,.00861-.02087,.01282-.2276,.13861-.46118,.26819-.70105,.3877h0c-1.25574,.62555-2.66376,.98669-4.15717,.98669-1.49323,0-2.90106-.36121-4.15674-.98682-.24048-.11981-.47467-.24982-.70282-.38885-.00684-.00421-.01367-.00836-.02057-.01257-.22766-.13959-.44922-.28821-.66394-.44647-2.34247-1.72675-3.87292-4.50763-3.87292-7.64868,0-5.229,4.22461-9.4834,9.41699-9.4834,5.19336,0,9.41797,4.25439,9.41797,9.4834,0,3.14288-1.53217,5.92523-3.8772,7.65173Z"/><ellipse class="uuid-835cc9f5-93b1-4a3c-bd2f-1f829d967a3b" cx="24.00833" cy="22.93149" rx="3.35736" ry="3.42834"/><path class="uuid-835cc9f5-93b1-4a3c-bd2f-1f829d967a3b" d="M26.05124,27.35556h-4.12262c-1.39105,0-2.59357,.82947-3.09283,2.00531,1.33661,1.3111,3.15698,2.12274,5.164,2.12274,1.99969,0,3.8139-.80627,5.14941-2.10895-.49487-1.1803-1.69745-2.0191-3.09796-2.0191Z"/></svg>