<?xml version="1.0" encoding="UTF-8"?><svg id="uuid-7e267f06-a564-481d-8436-51a24092eb76" xmlns="http://www.w3.org/2000/svg" viewBox="0 0 48 48"><defs><style>.uuid-f37958fa-c81c-47b8-bfb1-50204cbbedd0{fill:#123543;}</style></defs><path class="uuid-f37958fa-c81c-47b8-bfb1-50204cbbedd0" d="M34.76767,30.81995H13.23227c-.19818,0-.35889,.16058-.35889,.35889v6.8855c0,.79291,.64282,1.43567,1.43567,1.43567h19.3819c.79285,0,1.43567-.64276,1.43567-1.43567v-6.8855c0-.1983-.16071-.35889-.35895-.35889Z"/><path class="uuid-f37958fa-c81c-47b8-bfb1-50204cbbedd0" d="M34.87918,25.23804l-2.24506-5.05115c-.23047-.51843-.74451-.85254-1.31195-.85254h-1.95886l3.4704-3.4704c.39056-.3905,.39056-1.02368,0-1.41418l-5.65686-5.65686c-.3905-.39056-1.02368-.39056-1.41418,0l-7.07111,7.07104c-.3905,.3905-.3905,1.02368,0,1.41425l2.05615,2.05615h-4.06989c-.56744,0-1.08154,.33411-1.31195,.85254l-2.24506,5.05121c-.16315,.36719-.24744,.7644-.24744,1.16614v1.9032c0,.19824,.16071,.35895,.35889,.35895h21.5354c.19824,0,.35895-.16071,.35895-.35895v-1.9032c0-.40179-.08429-.79913-.24744-1.1662Zm-4.34143-.93628h-12.11621c-.82812,0-1.5-.67188-1.5-1.5s.67188-1.5,1.5-1.5h4.29358l1.6333,1.6333c.39056,.3905,1.02374,.3905,1.41425,0l1.6333-1.6333h3.14178c.82812,0,1.5,.67188,1.5,1.5s-.67188,1.5-1.5,1.5Z"/></svg>