<?xml version="1.0" encoding="UTF-8"?><svg id="uuid-eb30d610-18f4-40f5-9ac1-7fd5643ee792" xmlns="http://www.w3.org/2000/svg" viewBox="0 0 48 48"><defs><style>.uuid-5afed934-c1d1-4515-8ba4-bc4ea1ab5806{fill:#123543;}</style></defs><path class="uuid-5afed934-c1d1-4515-8ba4-bc4ea1ab5806" d="M24.37721,20.60017c-.14984-.15002-.39154-.15179-.54181-.00208-.25079,.24988-.61023,.60834-.78094,.78009-.06445,.06482-.10071,.14758-.10779,.23877l-.19171,2.48962c-.01855,.24109,.18732,.43927,.42743,.41162l2.39215-.27527c.08618-.00989,.16656-.04865,.22797-.11011l.7818-.78174c.15021-.15021,.15021-.39374,0-.54388l-2.20709-2.20703Z"/><rect class="uuid-5afed934-c1d1-4515-8ba4-bc4ea1ab5806" x="34.58306" y="9.45312" width="2.40837" height="3.8895" rx=".38457" ry=".38457" transform="translate(2.42281 28.64468) rotate(-45.00158)"/><path class="uuid-5afed934-c1d1-4515-8ba4-bc4ea1ab5806" d="M25.8663,15.00364h8.74061c.21225,0,.38458,.17232,.38458,.38458v3.1204c0,.21226-.17233,.38458-.38458,.38458h-8.74069c-.21221,0-.3845-.17229-.3845-.3845v-3.12047c0-.21226,.17233-.38459,.38459-.38459Z" transform="translate(-3.12838 26.34412) rotate(-44.99921)"/><path class="uuid-5afed934-c1d1-4515-8ba4-bc4ea1ab5806" d="M35.56813,27.12642h-.21912v-6.24768c0-1.05377-.15533-2.07001-.42487-3.03912l-2.58887,2.58887c.00806,.15002,.02283,.29828,.02283,.45026v4.00446h-2.02411c-.82593,0-1.49542,.66956-1.49542,1.49548v6.72955c0,.82587,.66949,1.49548,1.49542,1.49548h2.99091c.82593,0,1.49548-.66962,1.49548-1.49548v-.74774h.74774c.82593,0,1.49542-.66956,1.49542-1.49542v-2.24323c0-.82593-.66949-1.49542-1.49542-1.49542Z"/><path class="uuid-5afed934-c1d1-4515-8ba4-bc4ea1ab5806" d="M12.3885,32.36049h.74774v.74774c0,.82587,.66949,1.49548,1.49542,1.49548h2.99097c.82593,0,1.49542-.66962,1.49542-1.49548v-6.72955c0-.82593-.66949-1.49548-1.49542-1.49548h-2.02411v-4.00446c0-4.62073,3.75903-8.37976,8.37976-8.37976,1.4765,0,2.86285,.38708,4.06885,1.06018l2.17371-2.17371c-1.7937-1.18347-3.93762-1.87744-6.24255-1.87744-6.26953,0-11.37073,5.10089-11.37073,11.37073v6.24768h-.21906c-.82593,0-1.49548,.66949-1.49548,1.49542v2.24323c0,.82587,.66956,1.49542,1.49548,1.49542Z"/><path class="uuid-5afed934-c1d1-4515-8ba4-bc4ea1ab5806" d="M22.8567,35.67854h-1.49542c-.55219,0-1.02905,.30261-1.28815,.74774h-6.18915c-1.237,0-2.24323-1.00623-2.24323-2.24316,0-.4129-.33447-.74774-.74774-.74774s-.74768,.33484-.74768,.74774c0,2.06134,1.67725,3.73865,3.73865,3.73865h6.18921c.25903,.44501,.73602,.74774,1.28809,.74774h1.49542c.82593,0,1.49548-.66962,1.49548-1.49548,0-.82593-.66956-1.49548-1.49548-1.49548Z"/></svg>