<?xml version="1.0" encoding="utf-8"?>
<!-- Generator: Adobe Illustrator 26.4.1, SVG Export Plug-In . SVG Version: 6.00 Build 0)  -->
<svg version="1.1" id="a" xmlns="http://www.w3.org/2000/svg" xmlns:xlink="http://www.w3.org/1999/xlink" x="0px" y="0px"
	 viewBox="0 0 48 48" style="enable-background:new 0 0 48 48;" xml:space="preserve">
<style type="text/css">
	.st0{fill:#123543;}
</style>
<path class="st0" d="M16.3,13.5h10.2c0.2,0,0.4-0.2,0.4-0.4v-1.3c0-1.5-1-1.9-2.3-2.4c-0.6-0.2-1.1-0.8-1.1-1.5
	c0-1.2-0.9-2.1-2.1-2.1h-0.1c-1.1,0-2.1,0.9-2.1,2c0,0.7-0.4,1.3-1.1,1.5c-1.3,0.5-2.3,0.9-2.3,2.4v1.3C15.8,13.4,16,13.5,16.3,13.5
	L16.3,13.5z M32.8,26.8l1.3-1.3c0.2-0.2,0.4-0.2,0.6,0l2.4,2.4c0.2,0.2,0.2,0.4,0,0.6l-1.3,1.3c-0.2,0.2-0.4,0.2-0.6,0l-2.4-2.4
	C32.6,27.2,32.6,26.9,32.8,26.8z M23.9,35.6l6.8-6.8c0.2-0.2,0.4-0.2,0.6,0l2.4,2.4c0.2,0.2,0.2,0.4,0,0.6L27,38.7
	c-0.2,0.2-0.4,0.2-0.6,0l-2.4-2.4C23.8,36.1,23.8,35.8,23.9,35.6z M31.9,14c0-0.9-0.8-1.7-1.7-1.7h-0.9c-0.2,0-0.4,0.2-0.4,0.4v2.5
	c0,0.2-0.2,0.4-0.4,0.4H14.1c-0.2,0-0.4-0.2-0.4-0.4v-2.5c0-0.2-0.2-0.4-0.4-0.4h-0.8c-0.9,0-1.7,0.8-1.7,1.7v22
	c0,0.9,0.8,1.7,1.7,1.7H19c0.1-0.2,0.2-0.4,0.4-0.5c0.3-0.3,1.2-1.2,1.2-1.2l11.3-11.3C31.9,24.6,31.9,14,31.9,14z M22.2,26.1h-5.9
	c-0.6,0-1.1-0.5-1.1-1.1c0-0.6,0.5-1.1,1.1-1.1h5.9c0.6,0,1.1,0.5,1.1,1.1C23.3,25.7,22.8,26.1,22.2,26.1z M26.4,21.9H16.3
	c-0.6,0-1.1-0.5-1.1-1.1c0-0.6,0.5-1.1,1.1-1.1h10.2c0.6,0,1.1,0.5,1.1,1.1C27.5,21.4,27,21.9,26.4,21.9z M22.4,37.8
	c-0.2-0.2-0.4-0.2-0.6,0c-0.3,0.3-0.7,0.7-0.9,0.9c-0.1,0.1-0.1,0.2-0.1,0.3l-0.2,2.7c0,0.3,0.2,0.5,0.5,0.5l2.6-0.3
	c0.1,0,0.2-0.1,0.3-0.1l0.9-0.9c0.2-0.2,0.2-0.4,0-0.6C24.8,40.2,22.4,37.8,22.4,37.8z"/>
</svg>
