<?xml version="1.0" encoding="UTF-8"?><svg id="a" xmlns="http://www.w3.org/2000/svg" viewBox="0 0 48 48"><defs><style>.b{fill:#123543;}</style></defs><path class="b" d="M25.42639,26.95288c.55731-1.08441,1.3349-2.02985,2.26392-2.80243,.82428-.70001,1.76935-1.25903,2.80969-1.62738v-2.61121h6.20502v2.76947c1.1286,.44183,2.14673,1.10071,3,1.93176V14.94257c0-2.75696-2.24304-5-5-5H12.57056c-2.75696,0-5,2.24304-5,5v13.98572c0,2.75702,2.24304,5,5,5h12.33472c-.30402-.90259-.47583-1.86584-.47583-2.87091,0-.04358,.00592-.08563,.00653-.12909h-4.93597v-3.9754h5.92639Zm2.07361-3h-8v-4.04102h8v4.04102Zm-8-7.04102v-3.9693h8v3.9693h-8Zm17.20502-1.9693v1.9693h-6.20502v-3.9693h4.20502c1.10455,0,2,.89545,2,2Zm-26.13446,0c0-1.10455,.89545-2,2-2h3.92944v3.9693h-5.92944v-1.9693Zm0,4.9693h5.92944v4.04102h-5.92944v-4.04102Zm5.92944,11.01642h-3.92944c-1.10455,0-2-.89539-2-2v-1.9754h5.92944v3.9754Zm16.92944-6.87091c-3.86597,0-7,3.13397-7,7s3.13403,7,7,7,7-3.13403,7-7-3.13397-7-7-7Zm4,8.25h-2.75v2.75c0,.55225-.44769,1-1,1h-.5c-.55225,0-1-.44775-1-1v-2.75h-2.75c-.55225,0-1-.44775-1-1v-.5c0-.55231,.44775-1,1-1h2.75v-2.75c0-.55231,.44775-1,1-1h.5c.55231,0,1,.44769,1,1v2.75h2.75c.55231,0,1,.44769,1,1v.5c0,.55225-.44769,1-1,1Z"/></svg>