<?xml version="1.0" encoding="UTF-8"?><svg id="uuid-79591d91-4047-41e4-8880-7d9a29e9247b" xmlns="http://www.w3.org/2000/svg" viewBox="0 0 48 48"><defs><style>.uuid-4a7760c3-987d-4368-a083-40b28430faa5{fill:#123543;}</style></defs><path class="uuid-4a7760c3-987d-4368-a083-40b28430faa5" d="M37.58835,23.77399l-13.36542-13.3623c-.74005-.74066-1.73914-1.15637-2.78754-1.15637H12.21555c-1.63489,0-2.96021,1.32532-2.96021,2.96027v9.21985c0,1.0484,.41583,2.04749,1.15631,2.78754l13.3623,13.36536c1.54181,1.54181,4.04565,1.54181,5.5874,0l8.22699-8.22693c1.54175-1.54181,1.54175-4.04565,0-5.5874ZM13.22879,15.69166c-1.08972,0-1.97345-.8819-1.97345-1.97351,0-1.09155,.88373-1.97345,1.97345-1.97345,1.09161,0,1.97351,.8819,1.97351,1.97345,0,1.09161-.8819,1.97351-1.97351,1.97351ZM31.77744,31.70911c-.83466,.83496-2.18781,.83496-3.02277,0l-5.28827-5.28827c-.69476,.23163-1.46381,.30585-2.23376,.15131-1.85284-.29095-3.40277-1.71472-3.83929-3.53937-.18878-.78925-.17639-1.55084-.00732-2.25427,.08606-.35889,.54187-.47888,.80286-.21783l2.27332,2.27301h2.46747v-2.46747l-2.27332-2.27301c-.26105-.26099-.14111-.71667,.2179-.80286,.70374-.16925,1.46387-.18115,2.28082,.05994,1.82312,.43652,3.24719,1.98615,3.53937,3.83929,.12579,.79755,.05145,1.56512-.17828,2.26172l5.28827,5.28827c.41748,.41779,.62622,.99084,.62622,1.51166s-.23456,1.06714-.6532,1.45789Z"/></svg>