<?xml version="1.0" encoding="UTF-8"?><svg id="uuid-c791f32a-ea5c-42da-bc8d-956e4cb0ede6" xmlns="http://www.w3.org/2000/svg" viewBox="0 0 48 48"><defs><style>.uuid-8625e316-b2c8-4c14-b23c-e15260f4787f{fill:#123543;}</style></defs><path class="uuid-8625e316-b2c8-4c14-b23c-e15260f4787f" d="M28.25409,20.38989c-4.97052,0-9,4.02942-9,9s4.02948,9,9,9,9-4.02942,9-9-4.02942-9-9-9Zm1.25,9.72656c0,.56525-.45819,1.02344-1.02344,1.02344h-4.09375c-.56525,0-1.02344-.45819-1.02344-1.02344s.45819-1.02344,1.02344-1.02344h3.07031v-3.88904c0-.56525,.45819-1.02344,1.02344-1.02344s1.02344,.45819,1.02344,1.02344v4.91248Z"/><path class="uuid-8625e316-b2c8-4c14-b23c-e15260f4787f" d="M19.2132,11.81201h7.81598v1.61835h2.2019v-1.61835c0-1.216-.98578-2.2019-2.2019-2.2019h-7.81598c-1.21606,0-2.2019,.9859-2.2019,2.2019v1.61835h2.2019v-1.61835Z"/><path class="uuid-8625e316-b2c8-4c14-b23c-e15260f4787f" d="M28.25409,18.88989c2.80829,0,5.35645,1.1145,7.24243,2.91638v-5.44489c0-.71948-.58331-1.30267-1.30267-1.30267H12.04858c-.71942,0-1.30267,.58319-1.30267,1.30267v6.51331c0,1.43884,1.16638,2.60535,2.60529,2.60535h5.16577c1.55463-3.8573,5.32959-6.59015,9.73712-6.59015Z"/><path class="uuid-8625e316-b2c8-4c14-b23c-e15260f4787f" d="M18.01111,27.10834h-4.65991c-.45459,0-.89185-.07391-1.30261-.20715v4.4408c0,.71948,.58325,1.30267,1.30261,1.30267h4.92554c-.33557-1.02588-.52264-2.11823-.52264-3.25476,0-.78418,.0932-1.54596,.25702-2.28156Z"/></svg>