<?xml version="1.0" encoding="UTF-8"?><svg id="uuid-47ea422a-f7d9-4299-9d05-ff0e8bbf0dd8" xmlns="http://www.w3.org/2000/svg" viewBox="0 0 48 48"><defs><style>.uuid-a6db60a1-2592-4138-aad3-0a8100445bc1{fill:#123543;}</style></defs><path class="uuid-a6db60a1-2592-4138-aad3-0a8100445bc1" d="M15.66196,16.43296c.29626,0,.59043-.12106,.80387-.35837,.29482-.32961,.61214-.64485,.9414-.93687,.44514-.39561,.48583-1.07698,.09058-1.52241-.39597-.44579-1.07691-.48655-1.5227-.09094-.39036,.34651-.76527,.71998-1.11559,1.11034-.39734,.44334-.36017,1.125,.08354,1.5227,.20568,.18468,.46268,.27555,.7189,.27555Z"/><path class="uuid-a6db60a1-2592-4138-aad3-0a8100445bc1" d="M19.70367,13.40783c.1565,0,.31452-.03408,.46541-.10597,.39877-.19137,.81228-.36125,1.22723-.50447,.56304-.19445,.8621-.80839,.66764-1.37143-.19518-.56232-.80804-.86182-1.37108-.66728-.49288,.17024-.98288,.37138-1.45606,.59776-.53709,.25729-.76383,.90143-.50618,1.43852,.18533,.38684,.57073,.61286,.97303,.61286Z"/><path class="uuid-a6db60a1-2592-4138-aad3-0a8100445bc1" d="M25.33127,9.98148h-1.07831v28.03705h1.07831c7.72961,0,14.01855-6.32483,14.01855-14.09857,0-7.68567-6.28894-13.93848-14.01855-13.93848Zm10.54199,8.54675h-3.56146c-.46393-2.0965-1.19318-3.92047-2.11536-5.33978,2.44244,1.09698,4.4502,2.98309,5.67682,5.33978Zm-9.46362-6.11853c1.50061,.72687,2.9209,2.92206,3.69861,6.11853h-3.69861v-6.11853Zm0,8.27527h4.09869c.13446,1.01276,.21466,2.08954,.21466,3.23499,0,1.14075-.08124,2.2182-.21722,3.23505h-4.09613v-6.47003Zm0,14.88708v-6.26031h3.6958c-.78333,3.23615-2.21234,5.49982-3.6958,6.26031Zm3.76868-.76666c.93994-1.45331,1.67908-3.33325,2.14539-5.49365h3.58978c-1.2262,2.4292-3.25891,4.37152-5.73517,5.49365Zm2.50232-7.65039c.12598-1.03741,.1991-2.11633,.1991-3.23505,0-1.11932-.07513-2.19824-.2041-3.23499h4.0592c.29614,1.02863,.45825,2.1131,.45825,3.23499,0,1.12146-.15936,2.20526-.44769,3.23505h-4.06476Z"/><path class="uuid-a6db60a1-2592-4138-aad3-0a8100445bc1" d="M21.42019,35.19311c-.41703-.14745-.82982-.3205-1.22651-.51388-.53637-.26116-1.18151-.03859-1.44197,.49742-.26046,.53529-.03796,1.18086,.49705,1.44161,.47038,.2289,.95894,.43357,1.45253,.60797,.11862,.04213,.24011,.06218,.35945,.06218,.44435,0,.86002-.27663,1.01652-.7189,.1987-.56168-.09547-1.1777-.65707-1.3764Z"/><path class="uuid-a6db60a1-2592-4138-aad3-0a8100445bc1" d="M16.50371,31.87978c-.39525-.4437-1.07835-.48511-1.52277-.0867-.44435,.39633-.48296,1.07799-.08634,1.5224,.34752,.38964,.71962,.76384,1.10646,1.11208,.2064,.18569,.46405,.27692,.7217,.27692,.29482,0,.58835-.12034,.801-.35666,.39877-.44261,.36297-1.12463-.07929-1.52304-.32854-.2959-.64521-.61358-.94075-.94499Z"/><path class="uuid-a6db60a1-2592-4138-aad3-0a8100445bc1" d="M12.96357,20.41995c0-.7672,.6515-2.10458,1.4378-2.10458,.80876,0,1.4378,1.33738,1.4378,2.10458v1.48992l3.99438,2.66217c.19994,.13255,.31901,.3572,.31901,.59758v1.2738c0,.24488-.24038,.41786-.47402,.32126l-3.83937-1.28054v1.81746l1.29402,.97051c.08986,.0674,.14378,.15501,.14378,.28756v.92334c0,.1932-.14153,.33474-.33474,.33474-.00899,0-.03819-.00449-.0674-.01123l-2.47346-.70767-2.47346,.70767c-.0292,.00674-.05841,.01123-.08762,.01123-.17298,0-.31452-.14153-.31452-.33474v-.92334c0-.13255,.05392-.22016,.14378-.28756l1.29402-.97051v-1.81746l-3.84027,1.28054c-.23274,.0966-.47312-.07638-.47312-.32126v-1.2738c0-.24038,.12012-.46504,.32013-.59758l3.99326-2.66217v-1.48992Z"/></svg>