<?xml version="1.0" encoding="UTF-8"?><svg id="uuid-a6187837-c77a-461c-9ab6-9e571bee3b07" xmlns="http://www.w3.org/2000/svg" viewBox="0 0 48 48"><defs><style>.uuid-b21e4c2b-2cfc-4330-a834-1742b03d9b4a{fill:#123543;}</style></defs><path class="uuid-b21e4c2b-2cfc-4330-a834-1742b03d9b4a" d="M35.00677,34.79813H12.17792c-.6756,0-1.22302,.54742-1.22302,1.22296,0,.6756,.54742,1.22302,1.22302,1.22302h22.82886c.6756,0,1.22296-.54742,1.22296-1.22302,0-.67554-.54736-1.22296-1.22296-1.22296Z"/><path class="uuid-b21e4c2b-2cfc-4330-a834-1742b03d9b4a" d="M35.82208,10.75589h-3.26123c-.90063,0-1.63068,.73004-1.63068,1.63062,0,.90063-.73004,1.63068-1.63062,1.63068s-1.63062-.73004-1.63062-1.63068c0-.90057-.73004-1.63062-1.63068-1.63062h-4.07654c-.90063,0-1.63068,.73004-1.63068,1.63062,0,.90063-.73004,1.63068-1.63062,1.63068-.90063,0-1.63062-.73004-1.63062-1.63068,0-.90057-.73004-1.63062-1.63068-1.63062h-3.26123c-.90063,0-1.63068,.7301-1.63068,1.63062V31.13882c0,.90057,.73004,1.63062,1.63068,1.63062h23.64417c.90063,0,1.63068-.73004,1.63068-1.63062V12.38651c0-.90057-.73004-1.63062-1.63068-1.63062Zm-18.23163,7.41077c1.30255,0,2.35858,1.05591,2.35858,2.3584s-1.05603,2.35846-2.35858,2.35846-2.35828-1.05603-2.35828-2.35846,1.05579-2.3584,2.35828-2.3584Zm3.96356,9.19928c0,.32281-.2428,.58453-.5423,.58453h-6.84235c-.29944,0-.54224-.26172-.54224-.58453v-.55499c0-1.06195,.79865-1.92273,1.784-1.92273h4.35883c.98529,0,1.78406,.86078,1.78406,1.92273v.55499Zm11.00684-.50763h-7.33789c-.56287,0-1.01917-.45624-1.01917-1.0191,0-.56293,.4563-1.01917,1.01917-1.01917h7.33789c.56287,0,1.0191,.45624,1.0191,1.01917,0,.56287-.45624,1.0191-1.0191,1.0191Zm0-4.07654h-7.33789c-.56287,0-1.01917-.4563-1.01917-1.01917,0-.56293,.4563-1.01917,1.01917-1.01917h7.33789c.56287,0,1.0191,.45624,1.0191,1.01917,0,.56287-.45624,1.01917-1.0191,1.01917Z"/></svg>